{
.appVersion = "3133";
.formatVersion = 3;
DisplayStrings = (
" ",
"500 years ago."
);
customParameters = (
{
name = vendorID;
value = XXXX;
},
{
name = panose;
value = (
0,
0,
0,
0,
0,
0,
0,
0,
0,
0
);
},
{
name = unicodeRanges;
value = (
0,
1,
2,
31,
38
);
},
{
name = codePageRanges;
value = (
"1252",
"1250"
);
},
{
name = fsType;
value = (
);
},
{
name = glyphOrder;
value = (
.notdef,
null,
controlLF,
controlCR,
space,
exclam,
quotedbl,
numbersign,
dollar,
percent,
ampersand,
quotesingle,
parenleft,
parenright,
plus,
comma,
hyphen,
period,
zero,
one,
two,
three,
four,
five,
six,
seven,
eight,
nine,
colon,
semicolon,
less,
equal,
greater,
question,
at,
A,
B,
C,
D,
E,
F,
G,
H,
I,
J,
K,
L,
M,
N,
O,
P,
Q,
R,
S,
T,
U,
V,
W,
X,
Y,
Z,
underscore,
a,
b,
c,
d,
e,
f,
g,
h,
i,
j,
k,
l,
m,
n,
o,
p,
q,
r,
s,
t,
u,
v,
w,
x,
y,
z,
asciitilde,
nonbreakingspace,
softhyphen,
multiply,
divide,
minus
);
}
);
date = "2022-11-05 13:45:14 +0000";
familyName = Nonpareil;
fontMaster = (
{
customParameters = (
{
name = typoAscender;
value = 952;
},
{
name = typoDescender;
value = -241;
},
{
name = typoLineGap;
value = 0;
},
{
name = winAscent;
value = 787;
},
{
name = winDescent;
value = 247;
},
{
name = hheaAscender;
value = 952;
},
{
name = hheaDescender;
value = -241;
},
{
name = strikeoutPosition;
value = 258;
},
{
name = strikeoutSize;
value = 49;
}
);
id = m01;
metricValues = (
{
pos = 952;
},
{
pos = 705;
},
{
pos = 508;
},
{
},
{
pos = -241;
},
{
}
);
name = Regular;
}
);
glyphs = (
{
glyphname = exclam;
kernLeft = exclam;
layers = (
{
layerId = m01;
shapes = (
{
closed = 1;
nodes = (
(254,173,o),
(260,183,o),
(265,194,cs),
(285,244,o),
(296,299,o),
(302,353,cs),
(310,428,o),
(310,505,o),
(303,581,cs),
(300,620,o),
(293,659,o),
(282,696,cs),
(280,705,o),
(267,737,o),
(261,744,cs),
(255,751,o),
(247,757,o),
(239,760,c),
(238,760,o),
(234,762,o),
(233,762,c),
(231,763,o),
(224,772,o),
(222,773,c),
(188,802,o),
(137,786,o),
(120,746,cs),
(111,726,o),
(94,631,o),
(91,610,c),
(90,609,o),
(90,609,o),
(90,608,cs),
(82,578,o),
(77,548,o),
(74,517,cs),
(67,456,o),
(64,393,o),
(71,331,cs),
(74,295,o),
(80,260,o),
(92,226,cs),
(100,205,o),
(109,182,o),
(124,165,cs),
(133,154,o),
(143,146,o),
(155,140,cs),
(185,123,o),
(228,134,o),
(247,163,cs)
);
},
{
closed = 1;
nodes = (
(160,599,o),
(154,610,o),
(154,616,cs),
(154,624,o),
(164,649,o),
(168,656,cs),
(172,663,o),
(178,670,o),
(184,676,c),
(187,678,o),
(197,681,o),
(201,680,cs),
(219,678,o),
(231,661,o),
(227,644,cs),
(224,630,o),
(218,616,o),
(210,604,cs),
(206,598,o),
(202,592,o),
(195,591,cs),
(190,590,o),
(172,594,o),
(166,597,cs)
);
},
{
closed = 1;
nodes = (
(150,412,o),
(151,438,o),
(164,455,cs),
(171,465,o),
(175,477,o),
(184,485,cs),
(196,496,o),
(217,492,o),
(224,478,cs),
(226,474,o),
(229,461,o),
(227,456,c),
(226,450,o),
(217,424,o),
(214,419,cs),
(209,410,o),
(196,396,o),
(187,398,c),
(181,398,o),
(174,399,o),
(169,402,cs)
);
},
{
closed = 1;
nodes = (
(157,251,o),
(167,283,o),
(175,295,cs),
(193,323,o),
(230,296,o),
(227,263,cs),
(226,257,o),
(221,241,o),
(217,237,cs),
(215,234,o),
(205,229,o),
(202,227,c),
(200,227,o),
(194,226,o),
(193,225,c),
(182,220,o),
(165,226,o),
(161,238,cs)
);
},
{
closed = 1;
nodes = (
(196,262,o),
(195,262,o),
(195,262,c),
(195,262,o),
(195,261,o),
(195,261,c),
(195,261,o),
(196,262,o),
(196,263,c)
);
},
{
closed = 1;
nodes = (
(234,-79,o),
(248,-63,o),
(257,-46,cs),
(264,-32,o),
(266,-16,o),
(270,-2,cs),
(279,29,o),
(262,61,o),
(231,69,cs),
(221,71,o),
(210,71,o),
(199,69,cs),
(195,68,o),
(191,66,o),
(186,66,cs),
(165,66,o),
(141,54,o),
(128,37,cs),
(92,-11,o),
(113,-80,o),
(171,-93,cs),
(186,-96,o),
(202,-94,o),
(216,-88,cs)
);
},
{
closed = 1;
nodes = (
(163,-25,o),
(152,-7,o),
(162,7,cs),
(168,17,o),
(183,16,o),
(188,5,c),
(188,4,o),
(191,5,o),
(192,5,cs),
(193,5,o),
(203,2,o),
(205,2,cs),
(225,1,o),
(222,-27,o),
(202,-32,cs),
(195,-34,o),
(187,-31,o),
(180,-29,cs)
);
}
);
width = 377;
}
);
note = exclam;
unicode = 33;
},
{
glyphname = quotedbl;
kernLeft = quotedbl;
layers = (
{
layerId = m01;
shapes = (
{
closed = 1;
nodes = (
(164,483,o),
(169,493,o),
(170,503,cs),
(170,506,o),
(172,508,o),
(173,511,cs),
(184,534,o),
(187,559,o),
(190,584,cs),
(190,587,o),
(197,603,o),
(198,606,cs),
(202,620,o),
(203,635,o),
(209,649,cs),
(214,662,o),
(218,677,o),
(218,692,cs),
(218,712,o),
(208,734,o),
(193,749,cs),
(182,760,o),
(165,768,o),
(149,768,cs),
(126,768,o),
(106,753,o),
(90,737,cs),
(68,715,o),
(50,685,o),
(44,654,cs),
(41,632,o),
(45,609,o),
(53,588,cs),
(62,564,o),
(76,543,o),
(85,519,cs),
(91,502,o),
(92,482,o),
(104,469,cs),
(110,462,o),
(120,456,o),
(130,456,cs),
(133,456,o),
(137,456,o),
(140,455,cs),
(152,452,o),
(162,461,o),
(163,473,cs)
);
},
{
closed = 1;
nodes = (
(95,658,o),
(98,673,o),
(107,677,cs),
(114,681,o),
(131,677,o),
(138,674,cs),
(145,671,o),
(149,659,o),
(149,652,cs),
(149,646,o),
(148,640,o),
(146,634,cs),
(144,630,o),
(137,624,o),
(132,624,cs),
(118,622,o),
(101,635,o),
(98,649,cs)
);
},
{
closed = 1;
nodes = (
(331,442,o),
(333,451,o),
(339,457,cs),
(345,465,o),
(345,476,o),
(347,486,cs),
(352,515,o),
(364,543,o),
(374,571,cs),
(390,623,o),
(401,717,o),
(358,750,cs),
(347,758,o),
(331,760,o),
(317,761,cs),
(290,763,o),
(264,750,o),
(250,726,cs),
(248,722,o),
(245,718,o),
(244,713,cs),
(244,710,o),
(244,694,o),
(243,691,cs),
(241,679,o),
(241,666,o),
(243,653,cs),
(243,650,o),
(247,634,o),
(247,632,cs),
(249,613,o),
(262,515,o),
(265,497,cs),
(267,487,o),
(268,476,o),
(275,468,cs),
(277,465,o),
(285,459,o),
(285,455,cs),
(284,444,o),
(292,435,o),
(303,435,cs),
(304,435,o),
(311,433,o),
(312,433,cs),
(317,433,o),
(321,435,o),
(325,437,c)
);
},
{
closed = 1;
nodes = (
(290,655,o),
(290,662,o),
(292,667,cs),
(300,685,o),
(326,690,o),
(333,672,cs),
(336,665,o),
(334,656,o),
(333,648,cs),
(330,617,o),
(291,617,o),
(290,649,cs)
);
}
);
width = 432;
}
);
note = quotedbl;
unicode = (34,171,187,8220,8221,8222,8223);
},
{
glyphname = numbersign;
kernLeft = numbersign;
layers = (
{
layerId = m01;
shapes = (
{
closed = 1;
nodes = (
(708,27,o),
(713,40,o),
(718,54,cs),
(741,113,o),
(756,174,o),
(767,237,c),
(805,235,o),
(843,231,o),
(881,228,cs),
(889,227,o),
(905,235,o),
(910,242,cs),
(918,251,o),
(915,265,o),
(904,272,cs),
(903,273,o),
(902,275,o),
(900,276,c),
(893,282,o),
(883,282,o),
(873,283,cs),
(841,287,o),
(808,288,o),
(776,291,c),
(782,337,o),
(786,384,o),
(788,431,c),
(823,429,o),
(859,426,o),
(895,424,cs),
(902,423,o),
(929,423,o),
(935,426,cs),
(952,434,o),
(948,460,o),
(929,463,cs),
(883,470,o),
(835,469,o),
(788,473,c),
(788,528,o),
(781,584,o),
(760,634,cs),
(759,636,o),
(760,638,o),
(760,640,cs),
(756,673,o),
(732,704,o),
(698,700,cs),
(690,699,o),
(682,697,o),
(675,694,c),
(667,698,o),
(656,697,o),
(649,692,cs),
(642,686,o),
(638,677,o),
(634,670,c),
(633,669,o),
(632,663,o),
(631,662,c),
(615,635,o),
(607,605,o),
(599,575,cs),
(590,544,o),
(583,514,o),
(578,483,c),
(536,484,o),
(493,485,o),
(451,486,cs),
(448,486,o),
(447,487,o),
(447,489,cs),
(446,542,o),
(443,598,o),
(422,648,cs),
(417,661,o),
(408,674,o),
(398,684,cs),
(370,711,o),
(326,706,o),
(300,677,cs),
(284,658,o),
(276,633,o),
(269,609,cs),
(258,568,o),
(254,525,o),
(252,483,c),
(232,482,o),
(119,474,o),
(100,472,cs),
(92,471,o),
(83,469,o),
(77,464,cs),
(64,454,o),
(69,436,o),
(82,429,cs),
(92,424,o),
(103,426,o),
(113,425,cs),
(132,424,o),
(231,427,o),
(249,427,c),
(249,421,o),
(250,380,o),
(249,373,cs),
(249,363,o),
(243,301,o),
(242,290,c),
(197,287,o),
(151,282,o),
(106,275,cs),
(99,274,o),
(66,271,o),
(59,267,cs),
(46,261,o),
(42,243,o),
(54,234,cs),
(58,231,o),
(75,227,o),
(80,226,c),
(101,226,o),
(219,232,o),
(240,233,c),
(239,210,o),
(238,187,o),
(239,164,cs),
(239,149,o),
(244,76,o),
(248,61,cs),
(252,47,o),
(261,32,o),
(273,23,cs),
(282,16,o),
(289,6,o),
(299,2,cs),
(312,-2,o),
(326,-5,o),
(338,-2,cs),
(352,1,o),
(365,9,o),
(374,20,cs),
(381,29,o),
(385,41,o),
(391,51,cs),
(392,53,o),
(396,66,o),
(397,68,cs),
(418,124,o),
(431,183,o),
(438,242,c),
(482,244,o),
(525,244,o),
(569,244,c),
(572,171,o),
(578,96,o),
(606,29,cs),
(622,-12,o),
(676,-22,o),
(700,15,cs)
);
},
{
closed = 1;
nodes = (
(666,603,o),
(665,608,o),
(666,609,c),
(667,617,o),
(669,624,o),
(674,630,cs),
(686,647,o),
(713,641,o),
(721,620,cs),
(724,611,o),
(720,599,o),
(715,590,cs),
(710,582,o),
(703,573,o),
(694,572,cs),
(678,570,o),
(663,586,o),
(666,602,cs)
);
},
{
closed = 1;
nodes = (
(312,582,o),
(316,590,o),
(315,597,cs),
(315,606,o),
(321,616,o),
(330,619,c),
(333,621,o),
(345,625,o),
(349,625,cs),
(364,627,o),
(380,617,o),
(381,602,cs),
(382,586,o),
(366,565,o),
(352,559,cs),
(337,552,o),
(318,561,o),
(314,575,cs)
);
},
{
closed = 1;
nodes = (
(646,458,o),
(660,485,o),
(678,490,cs),
(684,491,o),
(698,488,o),
(703,485,c),
(705,483,o),
(709,476,o),
(709,473,cs),
(707,456,o),
(696,430,o),
(679,427,cs),
(669,425,o),
(656,432,o),
(652,441,cs)
);
},
{
closed = 1;
nodes = (
(317,454,o),
(320,464,o),
(328,470,cs),
(329,471,o),
(336,482,o),
(337,483,cs),
(347,491,o),
(364,487,o),
(368,475,cs),
(369,472,o),
(374,459,o),
(375,456,cs),
(377,443,o),
(367,421,o),
(356,414,cs),
(336,399,o),
(312,421,o),
(316,445,cs)
);
},
{
closed = 1;
nodes = (
(489,437,o),
(531,438,o),
(573,437,c),
(568,391,o),
(566,345,o),
(567,298,c),
(552,298,o),
(458,298,o),
(443,298,c),
(446,344,o),
(448,390,o),
(448,436,c)
);
},
{
closed = 1;
nodes = (
(656,266,o),
(646,274,o),
(644,277,cs),
(640,283,o),
(637,291,o),
(639,299,cs),
(644,321,o),
(660,345,o),
(682,340,cs),
(691,339,o),
(701,332,o),
(704,323,cs),
(706,314,o),
(700,295,o),
(695,288,cs),
(693,284,o),
(682,271,o),
(678,269,c),
(673,265,o),
(666,262,o),
(660,264,cs)
);
},
{
closed = 1;
nodes = (
(302,251,o),
(301,288,o),
(321,308,cs),
(327,315,o),
(335,321,o),
(344,323,cs),
(355,325,o),
(368,314,o),
(372,303,cs),
(375,296,o),
(372,287,o),
(370,280,cs),
(365,261,o),
(349,241,o),
(330,245,cs)
);
},
{
closed = 1;
nodes = (
(301,97,o),
(297,112,o),
(297,119,cs),
(298,133,o),
(302,148,o),
(310,159,cs),
(320,170,o),
(337,172,o),
(347,161,cs),
(361,146,o),
(349,113,o),
(338,95,cs),
(332,83,o),
(315,83,o),
(305,92,c)
);
},
{
closed = 1;
nodes = (
(626,116,o),
(628,127,o),
(631,135,cs),
(635,144,o),
(638,153,o),
(646,159,cs),
(663,174,o),
(686,155,o),
(682,132,cs),
(680,123,o),
(672,101,o),
(663,96,cs),
(653,89,o),
(635,97,o),
(630,108,cs)
);
}
);
width = 991;
}
);
note = numbersign;
unicode = 35;
},
{
glyphname = dollar;
layers = (
{
layerId = m01;
shapes = (
{
closed = 1;
nodes = (
(342,-141,o),
(343,-132,o),
(343,-123,cs),
(343,-99,o),
(340,-74,o),
(337,-49,c),
(341,-49,o),
(365,-47,o),
(369,-47,cs),
(398,-44,o),
(427,-38,o),
(456,-35,cs),
(482,-32,o),
(510,-1,o),
(515,24,cs),
(518,43,o),
(515,63,o),
(507,80,cs),
(506,83,o),
(496,97,o),
(496,100,c),
(454,227,o),
(395,350,o),
(320,462,cs),
(311,474,o),
(257,547,o),
(249,559,cs),
(245,564,o),
(223,589,o),
(220,594,c),
(265,590,o),
(311,586,o),
(356,583,cs),
(389,581,o),
(422,581,o),
(455,578,cs),
(466,577,o),
(478,572,o),
(488,577,cs),
(505,585,o),
(505,609,o),
(488,617,cs),
(485,618,o),
(467,623,o),
(463,624,cs),
(442,630,o),
(421,637,o),
(400,642,cs),
(375,647,o),
(349,650,o),
(323,651,c),
(326,667,o),
(335,730,o),
(331,745,cs),
(322,785,o),
(270,791,o),
(250,755,cs),
(245,745,o),
(240,702,o),
(240,690,cs),
(240,680,o),
(241,669,o),
(242,658,cs),
(242,655,o),
(239,656,o),
(235,656,cs),
(225,657,o),
(173,659,o),
(164,658,cs),
(161,658,o),
(150,656,o),
(147,657,cs),
(134,660,o),
(118,659,o),
(106,652,cs),
(91,644,o),
(78,629,o),
(71,613,cs),
(68,606,o),
(67,598,o),
(64,590,cs),
(55,557,o),
(57,520,o),
(64,487,cs),
(80,412,o),
(110,340,o),
(143,271,cs),
(175,204,o),
(212,138,o),
(255,77,cs),
(263,66,o),
(303,21,o),
(315,12,c),
(279,12,o),
(243,12,o),
(208,18,cs),
(185,21,o),
(160,28,o),
(140,18,cs),
(125,10,o),
(120,-10,o),
(131,-23,cs),
(139,-34,o),
(152,-41,o),
(165,-44,cs),
(198,-51,o),
(231,-52,o),
(265,-52,c),
(264,-57,o),
(266,-81,o),
(266,-86,cs),
(267,-107,o),
(264,-130,o),
(274,-149,cs),
(287,-176,o),
(325,-176,o),
(338,-149,cs)
);
},
{
closed = 1;
nodes = (
(126,498,o),
(125,506,o),
(125,508,cs),
(127,524,o),
(141,543,o),
(157,545,cs),
(174,547,o),
(186,531,o),
(186,514,c),
(185,508,o),
(179,487,o),
(176,481,cs),
(173,474,o),
(161,460,o),
(152,459,cs),
(134,457,o),
(125,478,o),
(126,496,cs)
);
},
{
closed = 1;
nodes = (
(197,349,o),
(199,371,o),
(206,387,cs),
(212,404,o),
(228,419,o),
(245,413,c),
(247,413,o),
(248,414,o),
(249,414,cs),
(268,414,o),
(276,395,o),
(272,376,cs),
(271,370,o),
(274,363,o),
(272,357,cs),
(271,354,o),
(268,351,o),
(265,349,cs),
(261,346,o),
(258,341,o),
(256,337,cs),
(251,329,o),
(243,322,o),
(234,321,cs),
(224,320,o),
(213,327,o),
(207,335,cs)
);
},
{
closed = 1;
nodes = (
(288,201,o),
(288,209,o),
(286,217,cs),
(284,225,o),
(281,233,o),
(281,241,cs),
(281,252,o),
(287,268,o),
(297,270,c),
(299,271,o),
(303,270,o),
(304,271,c),
(306,276,o),
(309,281,o),
(313,284,cs),
(320,288,o),
(330,285,o),
(336,279,cs),
(337,278,o),
(338,276,o),
(340,274,c),
(352,268,o),
(357,260,o),
(358,248,cs),
(359,238,o),
(353,228,o),
(349,220,cs),
(337,197,o),
(312,178,o),
(294,196,cs)
);
},
{
closed = 1;
nodes = (
(353,62,o),
(352,86,o),
(358,101,cs),
(361,112,o),
(366,137,o),
(377,139,c),
(379,140,o),
(380,139,o),
(382,140,c),
(394,150,o),
(412,144,o),
(418,129,c),
(418,129,o),
(418,126,o),
(419,126,c),
(427,117,o),
(433,103,o),
(430,91,cs),
(426,76,o),
(418,61,o),
(405,53,cs),
(394,47,o),
(377,46,o),
(366,53,cs)
);
}
);
width = 571;
}
);
note = dollar;
unicode = 36;
},
{
glyphname = percent;
layers = (
{
layerId = m01;
shapes = (
{
closed = 1;
nodes = (
(95,-17,o),
(111,2,o),
(114,6,cs),
(198,108,o),
(265,223,o),
(342,331,cs),
(419,439,o),
(504,542,o),
(579,651,cs),
(586,660,o),
(607,688,o),
(607,699,cs),
(607,719,o),
(583,730,o),
(568,717,cs),
(558,709,o),
(552,697,o),
(545,687,cs),
(512,636,o),
(474,589,o),
(437,540,cs),
(342,415,o),
(254,285,o),
(166,154,cs),
(138,113,o),
(110,71,o),
(80,32,cs),
(75,26,o),
(59,6,o),
(57,-1,cs),
(51,-21,o),
(77,-35,o),
(91,-20,c)
);
},
{
closed = 1;
nodes = (
(272,508,o),
(285,576,o),
(264,625,cs),
(256,642,o),
(244,657,o),
(229,668,cs),
(211,680,o),
(187,690,o),
(165,689,cs),
(148,687,o),
(131,680,o),
(117,670,cs),
(90,651,o),
(76,617,o),
(64,586,cs),
(52,555,o),
(52,527,o),
(65,496,cs),
(95,423,o),
(191,402,o),
(239,465,cs)
);
},
{
closed = 1;
nodes = (
(135,538,o),
(131,551,o),
(130,554,c),
(122,563,o),
(124,579,o),
(130,590,cs),
(133,595,o),
(146,607,o),
(152,609,cs),
(161,613,o),
(181,606,o),
(189,599,cs),
(198,592,o),
(205,581,o),
(205,570,cs),
(204,551,o),
(189,524,o),
(170,519,cs),
(159,516,o),
(142,525,o),
(136,535,c)
);
},
{
closed = 1;
nodes = (
(622,21,o),
(655,90,o),
(651,134,cs),
(650,152,o),
(646,169,o),
(639,186,cs),
(637,191,o),
(621,217,o),
(618,222,cs),
(607,238,o),
(572,255,o),
(552,254,cs),
(528,253,o),
(505,240,o),
(491,220,cs),
(488,215,o),
(483,210,o),
(479,204,cs),
(461,179,o),
(451,149,o),
(453,118,cs),
(454,93,o),
(458,67,o),
(471,45,cs),
(478,34,o),
(487,23,o),
(497,14,cs),
(522,-5,o),
(553,-9,o),
(582,3,cs)
);
},
{
closed = 1;
nodes = (
(523,79,o),
(510,98,o),
(511,110,cs),
(512,130,o),
(525,157,o),
(546,159,cs),
(567,161,o),
(583,143,o),
(583,122,cs),
(582,92,o),
(560,59,o),
(534,74,cs)
);
}
);
width = 702;
}
);
note = percent;
unicode = 37;
},
{
glyphname = ampersand;
layers = (
{
layerId = m01;
shapes = (
{
closed = 1;
nodes = (
(668,1,o),
(682,16,o),
(689,32,cs),
(696,50,o),
(695,75,o),
(682,89,cs),
(676,95,o),
(672,103,o),
(665,108,cs),
(660,111,o),
(635,125,o),
(631,128,cs),
(620,138,o),
(549,176,o),
(536,185,cs),
(534,186,o),
(534,186,o),
(536,189,cs),
(552,211,o),
(567,234,o),
(580,258,cs),
(594,281,o),
(608,319,o),
(587,335,cs),
(571,347,o),
(549,336,o),
(549,316,cs),
(549,312,o),
(541,299,o),
(539,295,cs),
(526,268,o),
(510,243,o),
(493,218,c),
(469,240,o),
(447,266,o),
(427,291,cs),
(385,343,o),
(349,400,o),
(317,459,c),
(387,524,o),
(466,581,o),
(526,655,c),
(528,656,o),
(529,657,o),
(531,657,cs),
(538,657,o),
(545,658,o),
(550,662,cs),
(561,671,o),
(561,688,o),
(550,696,cs),
(525,717,o),
(425,715,o),
(392,715,cs),
(360,716,o),
(176,715,o),
(144,713,cs),
(138,713,o),
(110,714,o),
(104,713,cs),
(100,712,o),
(95,709,o),
(93,705,c),
(92,704,o),
(89,705,o),
(88,705,cs),
(64,705,o),
(63,672,o),
(64,648,c),
(65,644,o),
(66,640,o),
(68,637,cs),
(70,635,o),
(72,633,o),
(72,630,cs),
(76,562,o),
(98,495,o),
(123,431,cs),
(132,409,o),
(144,388,o),
(157,368,cs),
(159,364,o),
(162,359,o),
(160,356,cs),
(123,306,o),
(90,246,o),
(86,184,cs),
(83,146,o),
(91,106,o),
(105,71,cs),
(116,44,o),
(134,16,o),
(158,1,cs),
(189,-17,o),
(230,-16,o),
(265,-10,cs),
(314,-1,o),
(362,20,o),
(403,49,c),
(442,22,o),
(488,3,o),
(534,-9,cs),
(572,-18,o),
(617,-23,o),
(652,-6,cs)
);
},
{
closed = 1;
nodes = (
(251,600,o),
(241,633,o),
(232,666,c),
(313,663,o),
(393,660,o),
(474,658,c),
(417,603,o),
(355,552,o),
(295,500,c),
(291,509,o),
(268,560,o),
(264,568,cs)
);
},
{
closed = 1;
nodes = (
(150,592,o),
(138,600,o),
(134,610,cs),
(133,614,o),
(131,618,o),
(133,622,c),
(139,642,o),
(151,667,o),
(171,659,cs),
(175,657,o),
(180,656,o),
(183,653,cs),
(201,638,o),
(197,612,o),
(180,597,cs),
(175,592,o),
(168,593,o),
(161,593,cs)
);
},
{
closed = 1;
nodes = (
(191,450,o),
(186,451,o),
(183,455,cs),
(179,459,o),
(179,472,o),
(181,478,cs),
(184,488,o),
(187,498,o),
(190,508,cs),
(193,516,o),
(203,520,o),
(211,517,cs),
(213,516,o),
(219,518,o),
(221,519,c),
(237,522,o),
(247,503,o),
(246,487,cs),
(245,475,o),
(240,463,o),
(234,453,cs),
(230,447,o),
(224,440,o),
(216,439,cs),
(209,438,o),
(201,442,o),
(195,447,cs)
);
},
{
closed = 1;
nodes = (
(259,311,o),
(272,336,o),
(280,345,cs),
(284,349,o),
(291,353,o),
(297,351,cs),
(308,349,o),
(321,347,o),
(328,338,cs),
(343,318,o),
(328,290,o),
(308,274,cs),
(289,258,o),
(261,275,o),
(260,300,cs)
);
},
{
closed = 1;
nodes = (
(183,48,o),
(173,60,o),
(168,73,cs),
(151,112,o),
(139,158,o),
(145,201,cs),
(150,239,o),
(168,274,o),
(188,306,c),
(234,224,o),
(293,148,o),
(361,83,c),
(331,62,o),
(297,48,o),
(261,42,cs),
(239,38,o),
(216,36,o),
(195,44,cs)
);
},
{
closed = 1;
nodes = (
(388,143,o),
(386,156,o),
(388,167,cs),
(391,181,o),
(399,202,o),
(412,203,c),
(416,204,o),
(419,202,o),
(423,203,cs),
(440,209,o),
(459,195,o),
(456,177,cs),
(456,175,o),
(453,166,o),
(452,164,c),
(450,151,o),
(441,137,o),
(430,129,cs),
(419,121,o),
(402,123,o),
(394,134,cs)
);
},
{
closed = 1;
nodes = (
(513,65,o),
(522,81,o),
(528,87,cs),
(533,93,o),
(540,100,o),
(547,99,c),
(549,98,o),
(555,102,o),
(557,103,c),
(563,104,o),
(571,102,o),
(576,99,cs),
(602,82,o),
(586,47,o),
(558,35,cs),
(542,28,o),
(518,40,o),
(515,57,cs)
);
}
);
width = 732;
}
);
note = ampersand;
unicode = 38;
},
{
glyphname = quotesingle;
kernLeft = quotesingle;
layers = (
{
layerId = m01;
shapes = (
{
closed = 1;
nodes = (
(148,395,o),
(150,395,o),
(151,395,cs),
(161,395,o),
(170,401,o),
(173,411,cs),
(175,418,o),
(178,425,o),
(181,432,cs),
(196,469,o),
(206,508,o),
(213,547,cs),
(219,579,o),
(223,611,o),
(224,643,cs),
(224,664,o),
(222,687,o),
(214,707,cs),
(211,717,o),
(204,725,o),
(197,732,cs),
(190,739,o),
(164,752,o),
(153,752,cs),
(129,752,o),
(102,748,o),
(82,733,cs),
(66,721,o),
(54,700,o),
(50,679,cs),
(45,647,o),
(44,614,o),
(52,582,cs),
(59,552,o),
(73,523,o),
(88,495,cs),
(92,487,o),
(98,478,o),
(100,468,cs),
(103,457,o),
(100,443,o),
(107,434,cs),
(108,432,o),
(110,431,o),
(111,429,cs),
(112,425,o),
(114,407,o),
(115,403,cs),
(117,386,o),
(137,382,o),
(148,395,c)
);
},
{
closed = 1;
nodes = (
(113,606,o),
(106,619,o),
(105,631,cs),
(104,640,o),
(105,652,o),
(112,659,c),
(114,662,o),
(115,666,o),
(118,669,cs),
(131,686,o),
(163,678,o),
(169,656,cs),
(173,639,o),
(167,611,o),
(152,601,cs),
(146,598,o),
(131,599,o),
(124,602,cs)
);
}
);
width = 272;
}
);
note = quotesingle;
unicode = (39,8216,8217,8218,8219,8249,8250);
},
{
glyphname = parenleft;
layers = (
{
layerId = m01;
shapes = (
{
closed = 1;
nodes = (
(279,-120,o),
(294,-124,o),
(299,-124,cs),
(331,-128,o),
(366,-113,o),
(393,-95,cs),
(418,-79,o),
(439,-56,o),
(452,-29,cs),
(458,-15,o),
(471,28,o),
(468,43,cs),
(462,67,o),
(429,74,o),
(415,54,cs),
(410,48,o),
(408,41,o),
(404,36,cs),
(394,24,o),
(382,13,o),
(369,5,c),
(356,42,o),
(329,72,o),
(316,108,cs),
(303,146,o),
(298,188,o),
(295,228,cs),
(291,278,o),
(291,329,o),
(297,379,cs),
(301,419,o),
(310,458,o),
(320,497,cs),
(325,516,o),
(353,601,o),
(362,618,cs),
(365,623,o),
(373,649,o),
(375,654,cs),
(376,657,o),
(376,657,o),
(379,656,cs),
(388,653,o),
(424,643,o),
(431,637,cs),
(451,621,o),
(480,639,o),
(474,664,cs),
(471,675,o),
(462,685,o),
(454,693,cs),
(430,717,o),
(396,734,o),
(362,737,cs),
(339,739,o),
(316,732,o),
(296,723,c),
(279,728,o),
(252,718,o),
(242,704,cs),
(240,701,o),
(237,700,o),
(234,698,c),
(184,647,o),
(142,586,o),
(116,519,cs),
(85,439,o),
(70,353,o),
(67,267,cs),
(64,188,o),
(73,106,o),
(98,31,cs),
(112,-11,o),
(129,-53,o),
(157,-86,cs),
(170,-102,o),
(186,-115,o),
(204,-123,cs),
(226,-132,o),
(254,-133,o),
(275,-122,cs)
);
},
{
closed = 1;
nodes = (
(204,515,o),
(200,523,o),
(202,531,cs),
(202,532,o),
(201,534,o),
(201,535,cs),
(200,545,o),
(211,573,o),
(215,582,cs),
(219,589,o),
(231,599,o),
(239,599,cs),
(250,598,o),
(262,592,o),
(268,583,cs),
(271,578,o),
(273,572,o),
(275,567,cs),
(278,558,o),
(267,534,o),
(263,525,cs),
(260,517,o),
(245,504,o),
(237,501,cs),
(228,499,o),
(216,502,o),
(209,509,cs)
);
},
{
closed = 1;
nodes = (
(149,292,o),
(144,305,o),
(146,315,cs),
(146,317,o),
(149,326,o),
(149,328,cs),
(149,331,o),
(146,346,o),
(146,348,cs),
(147,356,o),
(152,371,o),
(160,375,c),
(160,375,o),
(163,375,o),
(164,376,c),
(167,383,o),
(177,386,o),
(184,384,cs),
(191,382,o),
(200,378,o),
(204,372,cs),
(206,370,o),
(211,360,o),
(211,357,c),
(216,339,o),
(200,303,o),
(186,290,cs),
(183,287,o),
(177,285,o),
(172,284,cs),
(167,284,o),
(162,286,o),
(158,288,cs)
);
},
{
closed = 1;
nodes = (
(152,131,o),
(150,142,o),
(148,152,cs),
(146,160,o),
(151,180,o),
(155,186,cs),
(158,191,o),
(165,194,o),
(170,192,cs),
(175,191,o),
(191,185,o),
(195,183,c),
(204,175,o),
(212,155,o),
(209,143,cs),
(208,136,o),
(201,116,o),
(194,112,cs),
(182,104,o),
(166,111,o),
(158,123,cs)
);
},
{
closed = 1;
nodes = (
(203,-34,o),
(202,-2,o),
(214,8,cs),
(218,12,o),
(221,17,o),
(224,23,cs),
(227,29,o),
(235,36,o),
(242,35,cs),
(250,35,o),
(262,30,o),
(265,24,cs),
(268,15,o),
(270,5,o),
(268,-4,cs),
(261,-25,o),
(256,-50,o),
(239,-65,cs),
(228,-75,o),
(211,-64,o),
(207,-49,cs)
);
}
);
width = 519;
}
);
note = parenleft;
unicode = 40;
},
{
glyphname = parenright;
kernLeft = parenright;
layers = (
{
layerId = m01;
shapes = (
{
closed = 1;
nodes = (
(286,-60,o),
(298,-53,o),
(309,-45,cs),
(323,-36,o),
(335,-23,o),
(347,-11,cs),
(398,43,o),
(432,118,o),
(442,192,cs),
(456,298,o),
(442,409,o),
(408,511,cs),
(395,547,o),
(382,584,o),
(363,618,cs),
(343,655,o),
(317,692,o),
(282,716,cs),
(278,719,o),
(250,736,o),
(245,739,cs),
(241,742,o),
(220,748,o),
(214,749,cs),
(203,751,o),
(172,752,o),
(162,746,c),
(161,746,o),
(159,744,o),
(159,744,c),
(121,739,o),
(81,711,o),
(66,676,cs),
(55,651,o),
(42,580,o),
(53,555,cs),
(64,530,o),
(101,534,o),
(106,560,cs),
(107,564,o),
(106,568,o),
(106,572,c),
(109,589,o),
(140,632,o),
(151,645,c),
(153,640,o),
(159,613,o),
(161,609,c),
(184,537,o),
(198,463,o),
(208,388,cs),
(220,303,o),
(225,216,o),
(218,131,cs),
(214,81,o),
(198,32,o),
(196,-18,c),
(172,-19,o),
(145,-9,o),
(129,8,cs),
(124,14,o),
(120,22,o),
(112,25,cs),
(94,34,o),
(72,21,o),
(72,0,cs),
(72,-9,o),
(86,-36,o),
(91,-44,cs),
(97,-55,o),
(106,-66,o),
(116,-75,cs),
(156,-109,o),
(234,-102,o),
(275,-69,cs)
);
},
{
closed = 1;
nodes = (
(233,591,o),
(235,613,o),
(242,621,cs),
(249,630,o),
(262,630,o),
(270,623,c),
(272,622,o),
(281,620,o),
(283,620,c),
(298,612,o),
(307,590,o),
(302,574,cs),
(301,570,o),
(295,553,o),
(292,549,cs),
(290,546,o),
(281,539,o),
(277,538,cs),
(258,535,o),
(244,563,o),
(237,581,cs)
);
},
{
closed = 1;
nodes = (
(294,371,o),
(290,381,o),
(287,391,cs),
(286,397,o),
(283,403,o),
(285,408,cs),
(289,423,o),
(295,447,o),
(310,447,cs),
(324,447,o),
(339,435,o),
(344,422,cs),
(351,406,o),
(341,386,o),
(332,370,cs),
(326,359,o),
(311,358,o),
(301,365,cs)
);
},
{
closed = 1;
nodes = (
(297,232,o),
(304,245,o),
(314,253,cs),
(316,255,o),
(325,259,o),
(328,259,cs),
(344,259,o),
(361,251,o),
(362,235,cs),
(363,221,o),
(348,202,o),
(335,204,cs),
(333,204,o),
(331,206,o),
(330,205,cs),
(316,195,o),
(293,202,o),
(295,219,cs)
);
},
{
closed = 1;
nodes = (
(270,84,o),
(271,86,o),
(271,88,cs),
(271,98,o),
(278,108,o),
(289,107,cs),
(294,107,o),
(300,111,o),
(306,110,cs),
(321,108,o),
(327,92,o),
(318,80,cs),
(314,76,o),
(303,68,o),
(297,68,c),
(292,41,o),
(255,58,o),
(269,82,cs)
);
}
);
width = 513;
}
);
note = parenright;
unicode = 41;
},
{
glyphname = plus;
layers = (
{
layerId = m01;
shapes = (
{
closed = 1;
nodes = (
(340,25,o),
(344,31,o),
(350,35,cs),
(365,47,o),
(376,69,o),
(374,89,cs),
(367,149,o),
(366,210,o),
(367,271,c),
(382,270,o),
(479,268,o),
(494,268,cs),
(501,268,o),
(520,272,o),
(526,276,cs),
(538,286,o),
(536,305,o),
(521,312,cs),
(519,313,o),
(506,319,o),
(503,319,c),
(484,323,o),
(386,324,o),
(367,324,c),
(366,345,o),
(365,467,o),
(363,488,cs),
(362,510,o),
(365,532,o),
(361,554,cs),
(350,610,o),
(281,631,o),
(241,591,cs),
(230,580,o),
(222,564,o),
(219,549,cs),
(217,543,o),
(215,513,o),
(214,507,cs),
(208,447,o),
(208,386,o),
(206,326,c),
(165,325,o),
(125,323,o),
(84,320,cs),
(72,319,o),
(59,320,o),
(49,315,cs),
(33,308,o),
(32,287,o),
(45,276,cs),
(55,268,o),
(92,271,o),
(105,271,cs),
(138,272,o),
(171,273,o),
(204,273,c),
(204,242,o),
(205,102,o),
(213,72,cs),
(217,55,o),
(227,38,o),
(241,27,cs),
(256,16,o),
(275,7,o),
(294,7,cs),
(308,7,o),
(322,13,o),
(334,21,cs)
);
},
{
closed = 1;
nodes = (
(268,490,o),
(262,496,o),
(261,498,cs),
(259,501,o),
(259,505,o),
(259,509,cs),
(259,515,o),
(263,532,o),
(267,536,c),
(271,542,o),
(286,552,o),
(293,553,cs),
(313,554,o),
(324,535,o),
(320,516,cs),
(318,502,o),
(308,480,o),
(295,478,cs),
(286,477,o),
(275,482,o),
(269,489,cs)
);
},
{
closed = 1;
nodes = (
(249,391,o),
(256,407,o),
(264,418,cs),
(276,435,o),
(300,433,o),
(314,419,cs),
(325,408,o),
(327,394,o),
(321,380,cs),
(315,367,o),
(302,354,o),
(287,353,cs),
(273,352,o),
(255,364,o),
(252,378,cs)
);
},
{
closed = 1;
nodes = (
(253,216,o),
(254,247,o),
(270,268,cs),
(272,271,o),
(280,280,o),
(283,281,cs),
(289,284,o),
(303,283,o),
(308,280,cs),
(315,276,o),
(320,268,o),
(318,261,c),
(324,252,o),
(331,242,o),
(331,231,cs),
(330,214,o),
(318,200,o),
(302,196,cs),
(296,195,o),
(281,199,o),
(276,202,cs)
);
},
{
closed = 1;
nodes = (
(261,106,o),
(265,118,o),
(269,128,cs),
(278,150,o),
(313,151,o),
(325,130,cs),
(333,115,o),
(324,87,o),
(313,74,cs),
(295,54,o),
(268,69,o),
(263,95,cs)
);
}
);
width = 569;
}
);
note = plus;
unicode = 43;
},
{
glyphname = comma;
layers = (
{
layerId = m01;
shapes = (
{
closed = 1;
nodes = (
(197,-148,o),
(238,-124,o),
(266,-88,cs),
(301,-45,o),
(320,12,o),
(326,67,cs),
(330,103,o),
(329,144,o),
(310,176,c),
(309,177,o),
(306,183,o),
(305,184,c),
(299,201,o),
(288,218,o),
(273,228,cs),
(242,251,o),
(196,263,o),
(159,253,cs),
(89,235,o),
(31,163,o),
(44,92,cs),
(47,71,o),
(61,51,o),
(77,36,cs),
(85,28,o),
(96,23,o),
(106,15,cs),
(116,7,o),
(129,4,o),
(141,3,cs),
(145,3,o),
(167,0,o),
(171,0,cs),
(178,-1,o),
(185,1,o),
(191,1,c),
(178,-26,o),
(161,-52,o),
(144,-77,cs),
(139,-84,o),
(112,-118,o),
(109,-126,cs),
(94,-157,o),
(129,-191,o),
(158,-172,cs)
);
},
{
closed = 1;
nodes = (
(136,127,o),
(141,136,o),
(142,138,cs),
(147,147,o),
(148,157,o),
(153,165,cs),
(168,186,o),
(198,192,o),
(217,174,cs),
(221,171,o),
(223,166,o),
(224,162,cs),
(226,150,o),
(216,126,o),
(207,118,cs),
(204,116,o),
(194,107,o),
(191,106,cs),
(184,103,o),
(175,103,o),
(167,107,cs),
(164,108,o),
(160,105,o),
(157,104,cs),
(145,101,o),
(133,112,o),
(136,124,c)
);
}
);
width = 371;
}
);
note = comma;
unicode = 44;
},
{
glyphname = hyphen;
layers = (
{
layerId = m01;
shapes = (
{
closed = 1;
nodes = (
(141,265,o),
(144,267,o),
(147,267,c),
(167,271,o),
(271,285,o),
(292,285,cs),
(325,285,o),
(517,285,o),
(550,287,cs),
(557,287,o),
(595,281,o),
(603,281,cs),
(619,279,o),
(636,289,o),
(647,300,cs),
(659,311,o),
(661,331,o),
(660,347,cs),
(658,364,o),
(642,380,o),
(627,388,cs),
(618,393,o),
(573,407,o),
(563,409,cs),
(418,438,o),
(262,429,o),
(119,390,c),
(118,390,o),
(111,389,o),
(109,389,c),
(87,383,o),
(62,376,o),
(48,358,cs),
(21,322,o),
(37,271,o),
(81,261,cs),
(99,257,o),
(119,260,o),
(137,264,cs)
);
},
{
closed = 1;
nodes = (
(409,363,o),
(426,384,o),
(442,394,cs),
(459,404,o),
(482,397,o),
(488,377,cs),
(493,358,o),
(475,334,o),
(457,325,cs),
(439,316,o),
(415,325,o),
(415,345,c)
);
},
{
closed = 1;
nodes = (
(263,371,o),
(268,377,o),
(277,380,c),
(278,380,o),
(281,380,o),
(282,380,c),
(289,384,o),
(297,388,o),
(305,389,cs),
(315,390,o),
(329,385,o),
(332,376,cs),
(336,367,o),
(331,355,o),
(324,348,cs),
(316,338,o),
(291,321,o),
(278,322,cs),
(259,324,o),
(253,344,o),
(262,361,c)
);
},
{
closed = 1;
nodes = (
(548,343,o),
(551,350,o),
(550,352,cs),
(546,363,o),
(556,374,o),
(567,372,cs),
(580,370,o),
(589,357,o),
(596,346,cs),
(603,334,o),
(592,309,o),
(578,307,cs),
(560,306,o),
(548,323,o),
(548,341,cs)
);
},
{
closed = 1;
nodes = (
(132,304,o),
(117,311,o),
(117,321,cs),
(117,324,o),
(118,327,o),
(118,329,cs),
(116,344,o),
(131,355,o),
(143,348,cs),
(146,346,o),
(160,343,o),
(163,342,cs),
(172,338,o),
(173,327,o),
(169,319,c),
(169,305,o),
(155,298,o),
(142,302,cs)
);
}
);
width = 695;
}
);
note = hyphen;
unicode = 45;
},
{
glyphname = period;
layers = (
{
layerId = m01;
shapes = (
{
closed = 1;
nodes = (
(201,4,o),
(226,36,o),
(231,45,cs),
(233,50,o),
(241,70,o),
(241,75,cs),
(242,83,o),
(249,119,o),
(248,127,cs),
(247,138,o),
(245,149,o),
(239,159,cs),
(237,163,o),
(225,180,o),
(222,184,cs),
(210,200,o),
(192,213,o),
(172,218,cs),
(153,223,o),
(131,220,o),
(113,210,cs),
(108,207,o),
(101,205,o),
(97,200,cs),
(89,191,o),
(78,185,o),
(72,175,cs),
(53,148,o),
(40,115,o),
(40,82,cs),
(41,0,o),
(128,-54,o),
(193,-3,cs)
);
},
{
closed = 1;
nodes = (
(111,96,o),
(113,102,o),
(114,107,cs),
(117,123,o),
(130,151,o),
(146,155,cs),
(155,157,o),
(166,153,o),
(174,148,cs),
(184,142,o),
(191,127,o),
(190,115,cs),
(189,98,o),
(177,79,o),
(160,74,cs),
(157,73,o),
(154,74,o),
(151,72,cs),
(138,66,o),
(116,76,o),
(112,91,cs)
);
}
);
width = 288;
}
);
note = period;
unicode = 46;
},
{
glyphname = zero;
layers = (
{
layerId = m01;
shapes = (
{
closed = 1;
nodes = (
(490,32,o),
(547,81,o),
(581,139,cs),
(621,204,o),
(638,283,o),
(638,359,cs),
(638,431,o),
(621,505,o),
(586,567,cs),
(551,628,o),
(496,682,o),
(432,714,cs),
(428,716,o),
(404,726,o),
(400,729,cs),
(388,737,o),
(372,739,o),
(358,739,cs),
(343,738,o),
(300,730,o),
(289,720,cs),
(288,719,o),
(288,719,o),
(288,718,c),
(236,695,o),
(192,654,o),
(158,609,cs),
(116,553,o),
(80,490,o),
(66,422,cs),
(57,379,o),
(59,333,o),
(66,290,cs),
(77,224,o),
(102,158,o),
(141,105,cs),
(163,76,o),
(192,52,o),
(222,34,cs),
(259,13,o),
(301,-3,o),
(343,-5,cs),
(371,-6,o),
(400,0,o),
(427,10,cs)
);
},
{
closed = 1;
nodes = (
(326,43,o),
(330,51,o),
(330,56,cs),
(329,66,o),
(315,115,o),
(313,126,cs),
(297,190,o),
(292,258,o),
(294,324,cs),
(296,369,o),
(308,635,o),
(308,680,cs),
(308,682,o),
(310,682,o),
(312,682,cs),
(332,685,o),
(352,686,o),
(372,683,cs),
(438,671,o),
(500,620,o),
(534,563,cs),
(578,490,o),
(603,401,o),
(597,316,cs),
(591,245,o),
(565,171,o),
(517,118,cs),
(490,89,o),
(454,68,o),
(417,53,cs),
(390,42,o),
(358,36,o),
(330,42,cs)
);
},
{
closed = 1;
nodes = (
(494,275,o),
(530,325,o),
(520,370,cs),
(517,382,o),
(509,392,o),
(504,403,cs),
(491,433,o),
(457,450,o),
(426,443,cs),
(413,439,o),
(402,431,o),
(391,422,cs),
(372,409,o),
(360,384,o),
(360,361,cs),
(359,344,o),
(359,325,o),
(366,309,cs),
(375,290,o),
(396,275,o),
(417,271,cs),
(427,269,o),
(437,269,o),
(447,270,cs)
);
},
{
closed = 1;
nodes = (
(186,547,o),
(195,569,o),
(199,575,cs),
(205,582,o),
(214,588,o),
(223,587,cs),
(249,584,o),
(252,552,o),
(237,531,cs),
(234,526,o),
(229,524,o),
(224,522,c),
(222,522,o),
(220,523,o),
(219,522,cs),
(205,510,o),
(185,521,o),
(186,540,cs)
);
},
{
closed = 1;
nodes = (
(151,376,o),
(155,386,o),
(158,396,cs),
(169,429,o),
(216,416,o),
(214,381,cs),
(214,373,o),
(205,352,o),
(199,346,cs),
(183,330,o),
(159,344,o),
(153,367,cs)
);
},
{
closed = 1;
nodes = (
(163,249,o),
(173,270,o),
(191,268,cs),
(216,265,o),
(226,226,o),
(206,208,cs),
(201,204,o),
(194,202,o),
(188,203,c),
(170,197,o),
(155,214,o),
(159,232,cs)
);
},
{
closed = 1;
nodes = (
(205,103,o),
(211,134,o),
(226,148,cs),
(234,156,o),
(247,154,o),
(254,145,cs),
(260,137,o),
(259,116,o),
(257,107,cs),
(254,97,o),
(251,85,o),
(243,79,c),
(234,70,o),
(220,74,o),
(214,85,cs)
);
}
);
width = 701;
}
);
note = zero;
unicode = 48;
},
{
glyphname = one;
layers = (
{
layerId = m01;
shapes = (
{
closed = 1;
nodes = (
(160,-5,o),
(428,-9,o),
(476,2,cs),
(477,2,o),
(485,5,o),
(486,5,cs),
(509,10,o),
(513,40,o),
(491,49,cs),
(481,54,o),
(470,57,o),
(458,57,cs),
(434,57,o),
(411,56,o),
(387,55,c),
(389,76,o),
(388,97,o),
(388,117,cs),
(389,213,o),
(383,309,o),
(378,405,cs),
(374,491,o),
(369,577,o),
(363,663,cs),
(362,669,o),
(361,700,o),
(360,706,cs),
(359,709,o),
(355,719,o),
(354,721,cs),
(342,745,o),
(308,755,o),
(285,740,cs),
(281,738,o),
(272,730,o),
(267,731,cs),
(264,732,o),
(261,732,o),
(258,731,cs),
(233,725,o),
(154,670,o),
(134,655,cs),
(115,641,o),
(98,625,o),
(80,609,cs),
(75,604,o),
(52,584,o),
(49,577,cs),
(40,558,o),
(61,539,o),
(78,553,cs),
(80,555,o),
(82,558,o),
(84,561,cs),
(92,570,o),
(139,609,o),
(149,616,cs),
(160,625,o),
(172,632,o),
(183,640,c),
(181,628,o),
(178,557,o),
(177,544,cs),
(175,491,o),
(174,183,o),
(175,130,cs),
(175,119,o),
(175,67,o),
(177,56,cs),
(178,53,o),
(180,50,o),
(176,50,cs),
(144,47,o),
(110,47,o),
(79,36,cs),
(63,30,o),
(55,10,o),
(66,-4,cs),
(68,-7,o),
(76,-12,o),
(80,-12,c),
(90,-14,o),
(101,-12,o),
(111,-11,cs)
);
},
{
closed = 1;
nodes = (
(253,586,o),
(248,590,o),
(246,596,cs),
(245,602,o),
(247,609,o),
(251,614,cs),
(252,615,o),
(255,618,o),
(255,619,c),
(259,629,o),
(270,639,o),
(280,638,cs),
(289,636,o),
(296,628,o),
(302,621,cs),
(316,605,o),
(300,570,o),
(279,571,cs),
(271,571,o),
(261,575,o),
(257,582,c)
);
},
{
closed = 1;
nodes = (
(253,433,o),
(252,436,o),
(250,437,c),
(240,445,o),
(243,461,o),
(250,472,cs),
(260,490,o),
(284,501,o),
(298,486,cs),
(310,473,o),
(301,450,o),
(290,436,cs),
(281,425,o),
(266,420,o),
(255,431,cs)
);
},
{
closed = 1;
nodes = (
(247,349,o),
(255,364,o),
(267,370,cs),
(280,377,o),
(299,366,o),
(301,351,cs),
(304,336,o),
(292,313,o),
(279,306,cs),
(264,299,o),
(239,320,o),
(244,336,cs)
);
},
{
closed = 1;
nodes = (
(242,210,o),
(245,219,o),
(248,227,cs),
(251,236,o),
(264,256,o),
(273,259,cs),
(288,265,o),
(307,259,o),
(312,244,cs),
(314,237,o),
(312,230,o),
(310,224,cs),
(305,207,o),
(291,189,o),
(273,185,cs),
(262,183,o),
(248,192,o),
(245,202,cs)
);
},
{
closed = 1;
nodes = (
(248,94,o),
(261,118,o),
(273,124,cs),
(286,132,o),
(304,125,o),
(308,110,cs),
(311,100,o),
(307,89,o),
(303,79,cs),
(299,70,o),
(287,56,o),
(277,56,cs),
(263,57,o),
(248,66,o),
(248,80,cs)
);
}
);
width = 538;
}
);
note = one;
unicode = 49;
},
{
glyphname = two;
kernLeft = two;
layers = (
{
layerId = m01;
shapes = (
{
closed = 1;
nodes = (
(154,-9,o),
(156,-11,o),
(159,-12,cs),
(165,-13,o),
(172,-13,o),
(178,-11,cs),
(182,-10,o),
(185,-9,o),
(188,-8,c),
(265,-7,o),
(343,-11,o),
(420,-10,cs),
(460,-9,o),
(605,-9,o),
(640,11,cs),
(658,21,o),
(655,48,o),
(635,53,cs),
(615,58,o),
(518,53,o),
(497,53,cs),
(419,51,o),
(341,56,o),
(263,58,c),
(286,84,o),
(307,111,o),
(329,138,cs),
(384,204,o),
(444,267,o),
(490,339,cs),
(521,387,o),
(547,441,o),
(555,497,cs),
(558,525,o),
(557,553,o),
(552,581,cs),
(548,609,o),
(540,637,o),
(525,662,cs),
(522,667,o),
(506,695,o),
(501,700,cs),
(488,715,o),
(469,725,o),
(450,732,cs),
(398,749,o),
(337,741,o),
(286,721,cs),
(244,705,o),
(204,681,o),
(170,651,cs),
(159,641,o),
(137,616,o),
(138,601,cs),
(139,595,o),
(136,588,o),
(139,582,cs),
(147,566,o),
(169,572,o),
(172,590,cs),
(175,617,o),
(228,647,o),
(251,659,cs),
(289,679,o),
(330,694,o),
(373,697,cs),
(396,698,o),
(421,696,o),
(443,688,cs),
(445,687,o),
(451,685,o),
(453,684,c),
(454,682,o),
(453,678,o),
(453,676,cs),
(452,668,o),
(454,660,o),
(453,653,cs),
(448,623,o),
(434,595,o),
(418,570,cs),
(343,451,o),
(245,348,o),
(154,241,cs),
(142,227,o),
(90,164,o),
(83,147,cs),
(80,138,o),
(78,129,o),
(73,121,c),
(65,103,o),
(59,83,o),
(56,64,cs),
(55,60,o),
(47,45,o),
(46,42,cs),
(43,34,o),
(40,25,o),
(44,17,cs),
(45,14,o),
(50,0,o),
(52,-3,cs),
(58,-10,o),
(69,-12,o),
(78,-13,cs),
(87,-13,o),
(141,-10,o),
(151,-9,cs)
);
},
{
closed = 1;
nodes = (
(424,488,o),
(425,493,o),
(428,496,cs),
(432,501,o),
(439,505,o),
(446,504,cs),
(449,504,o),
(461,499,o),
(464,498,c),
(472,493,o),
(475,485,o),
(472,474,cs),
(470,465,o),
(463,458,o),
(458,450,cs),
(455,446,o),
(446,438,o),
(441,438,cs),
(415,436,o),
(404,467,o),
(421,485,cs)
);
},
{
closed = 1;
nodes = (
(326,345,o),
(332,363,o),
(348,360,cs),
(355,359,o),
(363,357,o),
(368,352,cs),
(374,345,o),
(375,334,o),
(373,325,c),
(373,322,o),
(368,313,o),
(367,311,cs),
(363,303,o),
(356,296,o),
(347,296,cs),
(332,296,o),
(326,313,o),
(326,329,cs)
);
},
{
closed = 1;
nodes = (
(235,179,o),
(227,179,o),
(221,184,cs),
(214,190,o),
(214,204,o),
(217,213,cs),
(220,219,o),
(220,227,o),
(225,231,c),
(228,232,o),
(239,239,o),
(242,240,cs),
(258,245,o),
(278,235,o),
(276,218,cs),
(275,205,o),
(268,192,o),
(259,183,cs),
(255,179,o),
(248,177,o),
(242,178,cs)
);
},
{
closed = 1;
nodes = (
(137,102,o),
(143,116,o),
(156,122,cs),
(168,128,o),
(182,119,o),
(188,106,cs),
(191,98,o),
(185,82,o),
(180,76,cs),
(167,62,o),
(146,71,o),
(141,89,cs)
);
}
);
width = 688;
}
);
note = two;
unicode = 50;
},
{
glyphname = three;
kernLeft = three;
layers = (
{
layerId = m01;
shapes = (
{
closed = 1;
nodes = (
(294,-2,o),
(324,3,o),
(333,4,cs),
(371,11,o),
(409,22,o),
(443,41,cs),
(470,56,o),
(495,79,o),
(512,105,cs),
(541,148,o),
(554,201,o),
(554,252,cs),
(555,308,o),
(537,363,o),
(502,408,cs),
(475,442,o),
(437,468,o),
(396,483,cs),
(394,484,o),
(393,484,o),
(394,486,cs),
(412,514,o),
(495,645,o),
(506,677,c),
(507,678,o),
(509,679,o),
(510,679,c),
(521,688,o),
(519,706,o),
(506,712,cs),
(487,722,o),
(406,724,o),
(385,724,cs),
(340,725,o),
(295,724,o),
(249,722,cs),
(229,721,o),
(134,715,o),
(114,719,cs),
(92,723,o),
(82,693,o),
(103,684,cs),
(113,679,o),
(159,679,o),
(170,679,cs),
(208,678,o),
(245,680,o),
(282,680,cs),
(342,681,o),
(402,679,o),
(461,675,c),
(424,614,o),
(381,556,o),
(339,497,c),
(309,501,o),
(278,500,o),
(248,507,cs),
(224,513,o),
(183,497,o),
(169,478,cs),
(160,466,o),
(158,450,o),
(157,436,cs),
(155,419,o),
(156,401,o),
(159,384,cs),
(163,362,o),
(177,342,o),
(199,346,cs),
(204,347,o),
(228,348,o),
(233,350,cs),
(239,353,o),
(267,351,o),
(274,350,cs),
(289,349,o),
(303,346,o),
(317,342,cs),
(331,339,o),
(345,335,o),
(357,327,cs),
(370,319,o),
(379,306,o),
(387,294,cs),
(396,280,o),
(403,266,o),
(407,250,cs),
(413,222,o),
(415,193,o),
(413,165,cs),
(412,151,o),
(406,137,o),
(399,125,cs),
(386,103,o),
(363,86,o),
(341,72,cs),
(335,69,o),
(307,54,o),
(302,52,cs),
(285,46,o),
(225,44,o),
(208,47,cs),
(183,51,o),
(159,66,o),
(141,84,cs),
(121,103,o),
(108,128,o),
(98,154,cs),
(93,167,o),
(90,183,o),
(91,197,cs),
(91,202,o),
(93,206,o),
(93,210,cs),
(93,226,o),
(75,235,o),
(62,225,cs),
(55,219,o),
(53,207,o),
(52,198,cs),
(50,172,o),
(57,145,o),
(66,120,cs),
(83,75,o),
(115,32,o),
(158,11,cs),
(196,-8,o),
(244,-6,o),
(286,1,c)
);
},
{
closed = 1;
nodes = (
(209,423,o),
(218,441,o),
(229,448,cs),
(242,456,o),
(259,444,o),
(260,428,cs),
(260,418,o),
(252,401,o),
(244,397,cs),
(231,390,o),
(216,397,o),
(212,410,cs)
);
},
{
closed = 1;
nodes = (
(325,389,o),
(323,397,o),
(326,406,cs),
(331,418,o),
(346,432,o),
(358,431,cs),
(386,429,o),
(386,393,o),
(363,378,cs),
(354,373,o),
(341,379,o),
(333,384,cs)
);
},
{
closed = 1;
nodes = (
(431,327,o),
(440,340,o),
(450,350,cs),
(454,354,o),
(461,356,o),
(467,354,c),
(481,359,o),
(495,349,o),
(490,336,cs),
(486,324,o),
(470,303,o),
(458,300,cs),
(447,297,o),
(435,303,o),
(433,314,cs)
);
},
{
closed = 1;
nodes = (
(451,179,o),
(453,198,o),
(464,209,cs),
(478,223,o),
(502,210,o),
(500,190,cs),
(500,186,o),
(494,173,o),
(491,169,cs),
(484,161,o),
(471,163,o),
(465,171,c)
);
}
);
width = 615;
}
);
note = three;
unicode = 51;
},
{
glyphname = four;
layers = (
{
layerId = m01;
shapes = (
{
closed = 1;
nodes = (
(455,-22,o),
(467,-14,o),
(476,-4,cs),
(480,1,o),
(487,4,o),
(493,8,cs),
(510,22,o),
(520,46,o),
(521,68,cs),
(523,105,o),
(524,141,o),
(525,178,c),
(570,179,o),
(616,176,o),
(661,181,cs),
(665,182,o),
(679,188,o),
(682,191,cs),
(693,201,o),
(691,219,o),
(678,225,cs),
(670,229,o),
(662,231,o),
(654,230,cs),
(611,229,o),
(568,226,o),
(526,224,c),
(525,301,o),
(525,377,o),
(517,454,cs),
(514,486,o),
(511,518,o),
(506,550,c),
(504,556,o),
(505,589,o),
(505,595,cs),
(504,600,o),
(502,626,o),
(501,631,cs),
(499,643,o),
(491,655,o),
(481,662,cs),
(480,663,o),
(478,664,o),
(477,666,cs),
(473,676,o),
(467,687,o),
(458,694,cs),
(445,704,o),
(430,706,o),
(413,700,cs),
(409,699,o),
(406,703,o),
(402,703,c),
(397,705,o),
(391,703,o),
(387,700,cs),
(380,695,o),
(376,687,o),
(371,680,cs),
(360,665,o),
(292,570,o),
(281,555,cs),
(228,484,o),
(171,415,o),
(122,342,cs),
(115,331,o),
(71,262,o),
(63,251,cs),
(56,241,o),
(46,230,o),
(46,217,cs),
(46,215,o),
(45,213,o),
(44,211,cs),
(35,197,o),
(49,183,o),
(65,181,cs),
(78,178,o),
(151,174,o),
(165,174,cs),
(216,171,o),
(267,173,o),
(318,174,cs),
(319,174,o),
(319,172,o),
(319,170,cs),
(320,163,o),
(326,126,o),
(326,119,cs),
(326,88,o),
(327,54,o),
(341,26,cs),
(349,7,o),
(364,-12,o),
(383,-20,cs),
(401,-29,o),
(423,-32,o),
(442,-26,cs)
);
},
{
closed = 1;
nodes = (
(384,537,o),
(382,566,o),
(398,585,cs),
(402,590,o),
(409,593,o),
(416,591,cs),
(421,590,o),
(425,588,o),
(429,587,cs),
(443,584,o),
(454,570,o),
(454,557,cs),
(454,541,o),
(439,522,o),
(424,522,c),
(418,521,o),
(412,524,o),
(406,527,cs)
);
},
{
closed = 1;
nodes = (
(109,234,o),
(169,324,o),
(179,338,cs),
(230,410,o),
(288,478,o),
(337,552,c),
(324,472,o),
(313,390,o),
(313,309,cs),
(313,280,o),
(312,250,o),
(315,221,cs),
(315,218,o),
(315,218,o),
(312,218,cs),
(241,216,o),
(169,217,o),
(98,220,c)
);
},
{
closed = 1;
nodes = (
(383,434,o),
(391,454,o),
(404,458,c),
(414,468,o),
(431,464,o),
(439,453,cs),
(449,439,o),
(444,420,o),
(430,410,cs),
(417,401,o),
(399,408,o),
(390,423,cs)
);
},
{
closed = 1;
nodes = (
(387,302,o),
(392,323,o),
(401,338,cs),
(407,350,o),
(424,351,o),
(436,343,cs),
(442,339,o),
(449,325,o),
(447,317,c),
(446,303,o),
(437,291,o),
(429,279,cs),
(420,267,o),
(401,272,o),
(394,286,cs)
);
},
{
closed = 1;
nodes = (
(381,143,o),
(384,172,o),
(397,192,cs),
(399,195,o),
(403,199,o),
(408,200,cs),
(414,202,o),
(420,206,o),
(427,205,cs),
(441,203,o),
(449,189,o),
(447,175,cs),
(444,160,o),
(431,135,o),
(416,131,c),
(411,131,o),
(407,132,o),
(402,134,cs)
);
},
{
closed = 1;
nodes = (
(392,30,o),
(388,55,o),
(399,74,cs),
(402,81,o),
(411,85,o),
(418,84,cs),
(436,83,o),
(453,72,o),
(452,54,cs),
(452,42,o),
(439,23,o),
(427,19,cs),
(422,17,o),
(416,18,o),
(411,21,cs)
);
}
);
width = 725;
}
);
note = four;
unicode = 52;
},
{
glyphname = five;
layers = (
{
layerId = m01;
shapes = (
{
closed = 1;
nodes = (
(388,26,o),
(443,43,o),
(482,77,cs),
(525,113,o),
(559,169,o),
(561,224,cs),
(562,268,o),
(538,315,o),
(506,345,cs),
(489,360,o),
(468,373,o),
(447,381,cs),
(405,397,o),
(360,407,o),
(316,406,cs),
(287,405,o),
(258,401,o),
(231,393,c),
(233,413,o),
(220,515,o),
(219,536,cs),
(215,582,o),
(214,628,o),
(208,673,c),
(242,673,o),
(453,682,o),
(487,681,cs),
(497,681,o),
(534,678,o),
(543,682,cs),
(558,689,o),
(558,710,o),
(543,717,cs),
(531,723,o),
(476,728,o),
(462,729,cs),
(403,733,o),
(344,728,o),
(285,724,cs),
(248,722,o),
(211,720,o),
(175,719,c),
(170,718,o),
(146,716,o),
(141,717,cs),
(126,721,o),
(110,715,o),
(100,703,cs),
(95,698,o),
(85,675,o),
(84,668,cs),
(82,661,o),
(80,653,o),
(78,646,cs),
(65,590,o),
(61,532,o),
(62,475,cs),
(62,462,o),
(66,404,o),
(69,391,cs),
(74,376,o),
(79,360,o),
(89,348,cs),
(100,336,o),
(113,328,o),
(128,324,cs),
(142,320,o),
(158,323,o),
(173,328,cs),
(176,329,o),
(178,332,o),
(182,333,cs),
(214,343,o),
(247,354,o),
(281,357,cs),
(326,362,o),
(372,356,o),
(415,344,cs),
(435,339,o),
(455,332,o),
(471,320,cs),
(497,300,o),
(516,269,o),
(521,238,cs),
(523,221,o),
(521,204,o),
(515,189,cs),
(501,150,o),
(471,116,o),
(437,95,cs),
(408,77,o),
(373,68,o),
(339,65,cs),
(301,61,o),
(261,66,o),
(222,70,cs),
(202,72,o),
(181,75,o),
(161,80,c),
(160,81,o),
(151,84,o),
(150,85,c),
(129,89,o),
(117,61,o),
(135,50,cs),
(152,39,o),
(173,34,o),
(193,29,cs),
(239,17,o),
(289,15,o),
(337,21,cs)
);
},
{
closed = 1;
nodes = (
(116,630,o),
(123,646,o),
(130,650,cs),
(137,654,o),
(143,660,o),
(150,661,cs),
(168,664,o),
(183,646,o),
(185,627,cs),
(187,611,o),
(170,591,o),
(153,589,cs),
(135,586,o),
(116,603,o),
(116,621,cs)
);
},
{
closed = 1;
nodes = (
(123,498,o),
(132,511,o),
(143,517,cs),
(147,519,o),
(151,522,o),
(155,521,c),
(172,520,o),
(185,501,o),
(182,485,cs),
(179,472,o),
(170,458,o),
(158,453,cs),
(137,443,o),
(115,463,o),
(120,485,cs)
);
}
);
width = 617;
}
);
note = five;
unicode = 53;
},
{
glyphname = six;
layers = (
{
layerId = m01;
shapes = (
{
closed = 1;
nodes = (
(392,4,o),
(436,22,o),
(444,31,c),
(446,32,o),
(448,34,o),
(450,36,cs),
(505,77,o),
(551,138,o),
(567,205,cs),
(582,266,o),
(583,335,o),
(560,394,cs),
(549,422,o),
(530,441,o),
(502,454,cs),
(436,483,o),
(359,478,o),
(286,474,c),
(287,524,o),
(291,573,o),
(297,622,cs),
(297,627,o),
(303,649,o),
(302,654,c),
(328,666,o),
(356,674,o),
(384,676,cs),
(394,676,o),
(405,674,o),
(415,672,cs),
(433,668,o),
(443,692,o),
(428,703,cs),
(415,712,o),
(395,713,o),
(379,712,cs),
(339,708,o),
(299,696,o),
(264,678,cs),
(256,673,o),
(245,673,o),
(240,666,cs),
(238,663,o),
(236,660,o),
(233,658,cs),
(198,634,o),
(171,598,o),
(148,562,cs),
(127,527,o),
(108,491,o),
(94,452,cs),
(75,401,o),
(58,346,o),
(61,291,cs),
(64,244,o),
(75,197,o),
(88,152,cs),
(97,122,o),
(108,91,o),
(126,66,cs),
(137,52,o),
(150,40,o),
(164,29,cs),
(201,1,o),
(245,-22,o),
(291,-23,cs),
(322,-23,o),
(353,-13,o),
(382,0,cs)
);
},
{
closed = 1;
nodes = (
(183,537,o),
(193,551,o),
(203,560,cs),
(219,574,o),
(244,567,o),
(244,546,cs),
(245,534,o),
(231,512,o),
(221,505,cs),
(205,495,o),
(181,504,o),
(183,523,cs)
);
},
{
closed = 1;
nodes = (
(302,212,o),
(287,400,o),
(287,434,c),
(313,434,o),
(339,433,o),
(365,432,cs),
(401,429,o),
(437,427,o),
(470,414,cs),
(486,408,o),
(504,398,o),
(511,383,cs),
(524,358,o),
(528,329,o),
(529,301,cs),
(531,258,o),
(523,213,o),
(507,173,cs),
(493,139,o),
(468,110,o),
(441,85,cs),
(438,82,o),
(421,69,o),
(418,66,c),
(404,58,o),
(341,53,o),
(325,52,c),
(323,51,o),
(322,52,o),
(322,54,c),
(317,71,o),
(306,160,o),
(305,177,cs)
);
},
{
closed = 1;
nodes = (
(161,336,o),
(154,335,o),
(151,338,cs),
(146,342,o),
(144,349,o),
(143,356,cs),
(141,368,o),
(153,388,o),
(162,396,c),
(165,397,o),
(178,403,o),
(180,404,cs),
(194,412,o),
(208,398,o),
(208,383,c),
(207,379,o),
(202,366,o),
(201,362,cs),
(195,346,o),
(181,329,o),
(165,334,c)
);
},
{
closed = 1;
nodes = (
(171,192,o),
(167,197,o),
(163,200,c),
(159,205,o),
(160,212,o),
(159,217,cs),
(158,221,o),
(157,224,o),
(157,227,c),
(160,241,o),
(171,253,o),
(183,259,cs),
(200,268,o),
(219,252,o),
(217,233,cs),
(217,224,o),
(204,202,o),
(197,196,cs),
(192,191,o),
(183,189,o),
(176,191,cs)
);
},
{
closed = 1;
nodes = (
(193,107,o),
(198,125,o),
(207,136,cs),
(225,160,o),
(259,139,o),
(251,110,cs),
(249,101,o),
(238,82,o),
(230,78,cs),
(217,72,o),
(204,80,o),
(199,93,cs)
);
}
);
width = 633;
}
);
note = six;
unicode = 54;
},
{
glyphname = seven;
layers = (
{
layerId = m01;
shapes = (
{
closed = 1;
nodes = (
(186,-28,o),
(209,-17,o),
(212,-14,cs),
(227,0,o),
(234,21,o),
(244,39,cs),
(249,48,o),
(255,57,o),
(259,67,cs),
(260,70,o),
(266,90,o),
(268,94,cs),
(285,132,o),
(400,365,o),
(418,403,cs),
(429,428,o),
(491,571,o),
(504,595,cs),
(511,607,o),
(527,641,o),
(524,655,c),
(523,657,o),
(523,658,o),
(523,660,cs),
(523,686,o),
(482,689,o),
(456,692,cs),
(382,700,o),
(307,699,o),
(233,698,cs),
(218,697,o),
(128,695,o),
(113,695,cs),
(103,694,o),
(92,696,o),
(83,691,cs),
(66,683,o),
(66,658,o),
(84,650,cs),
(97,644,o),
(112,645,o),
(125,645,cs),
(200,645,o),
(275,646,o),
(349,646,c),
(334,625,o),
(255,510,o),
(242,488,cs),
(167,369,o),
(107,240,o),
(67,106,cs),
(63,92,o),
(59,79,o),
(57,66,cs),
(55,46,o),
(51,26,o),
(54,7,cs),
(60,-19,o),
(87,-39,o),
(114,-36,c),
(132,-49,o),
(162,-42,o),
(181,-31,cs)
);
},
{
closed = 1;
nodes = (
(378,545,o),
(369,551,o),
(368,553,c),
(356,567,o),
(368,586,o),
(383,595,cs),
(394,602,o),
(408,595,o),
(412,583,cs),
(416,573,o),
(414,560,o),
(408,552,cs),
(401,544,o),
(389,538,o),
(380,544,cs)
);
},
{
closed = 1;
nodes = (
(305,425,o),
(302,429,o),
(301,435,cs),
(301,441,o),
(302,448,o),
(306,453,cs),
(309,457,o),
(326,473,o),
(330,476,cs),
(336,480,o),
(344,478,o),
(349,476,cs),
(366,467,o),
(362,445,o),
(352,430,cs),
(346,422,o),
(331,408,o),
(321,410,cs),
(315,411,o),
(310,415,o),
(308,421,c)
);
},
{
closed = 1;
nodes = (
(232,291,o),
(231,299,o),
(229,306,cs),
(228,310,o),
(229,315,o),
(231,319,cs),
(239,332,o),
(260,342,o),
(275,338,c),
(287,333,o),
(294,318,o),
(288,306,cs),
(287,303,o),
(277,294,o),
(275,292,cs),
(264,283,o),
(247,277,o),
(237,286,cs)
);
},
{
closed = 1;
nodes = (
(176,186,o),
(177,193,o),
(179,200,cs),
(182,211,o),
(201,229,o),
(212,232,cs),
(228,236,o),
(238,218,o),
(232,203,cs),
(229,197,o),
(224,192,o),
(218,187,cs),
(214,183,o),
(207,182,o),
(204,177,cs),
(198,167,o),
(183,169,o),
(178,180,cs)
);
},
{
closed = 1;
nodes = (
(125,70,o),
(128,74,o),
(129,79,c),
(137,99,o),
(158,118,o),
(174,102,c),
(174,102,o),
(175,98,o),
(176,98,c),
(179,95,o),
(183,92,o),
(184,89,cs),
(187,83,o),
(185,75,o),
(181,70,cs),
(175,62,o),
(156,45,o),
(147,44,cs),
(135,42,o),
(124,53,o),
(124,66,c)
);
}
);
width = 565;
}
);
note = seven;
unicode = 55;
},
{
glyphname = eight;
layers = (
{
layerId = m01;
shapes = (
{
closed = 1;
nodes = (
(448,-3,o),
(489,23,o),
(515,61,cs),
(530,83,o),
(539,108,o),
(544,134,cs),
(554,181,o),
(553,233,o),
(537,278,cs),
(523,314,o),
(494,348,o),
(459,364,cs),
(435,375,o),
(409,380,o),
(383,384,c),
(413,400,o),
(441,425,o),
(459,455,cs),
(470,473,o),
(476,495,o),
(478,516,cs),
(486,585,o),
(459,691,o),
(395,718,cs),
(363,731,o),
(324,728,o),
(290,722,cs),
(258,716,o),
(226,706,o),
(200,688,cs),
(188,680,o),
(175,674,o),
(164,665,cs),
(144,648,o),
(126,628,o),
(117,604,cs),
(83,518,o),
(107,408,o),
(192,370,c),
(160,348,o),
(128,326,o),
(106,296,cs),
(88,273,o),
(74,246,o),
(68,218,cs),
(59,180,o),
(62,138,o),
(72,100,cs),
(82,64,o),
(103,30,o),
(131,5,cs),
(149,-11,o),
(171,-24,o),
(195,-28,cs),
(196,-28,o),
(200,-28,o),
(200,-29,c),
(201,-29,o),
(202,-32,o),
(203,-32,c),
(212,-45,o),
(231,-46,o),
(247,-47,cs),
(301,-52,o),
(358,-46,o),
(407,-23,cs)
);
},
{
closed = 1;
nodes = (
(272,431,o),
(270,440,o),
(269,448,cs),
(263,486,o),
(258,523,o),
(256,561,cs),
(253,594,o),
(253,628,o),
(253,661,cs),
(253,665,o),
(253,670,o),
(251,673,c),
(257,676,o),
(286,684,o),
(292,685,c),
(303,685,o),
(316,682,o),
(323,689,c),
(340,690,o),
(358,690,o),
(375,685,cs),
(385,681,o),
(394,675,o),
(401,667,cs),
(418,648,o),
(427,622,o),
(432,597,cs),
(441,558,o),
(441,514,o),
(423,480,cs),
(404,443,o),
(363,415,o),
(323,405,c),
(315,404,o),
(310,396,o),
(302,394,cs),
(285,391,o),
(270,405,o),
(271,423,cs)
);
},
{
closed = 1;
nodes = (
(178,614,o),
(178,621,o),
(183,626,cs),
(195,640,o),
(219,622,o),
(210,607,cs),
(209,605,o),
(210,600,o),
(210,599,cs),
(209,593,o),
(206,588,o),
(201,584,cs),
(180,566,o),
(156,588,o),
(174,609,cs)
);
},
{
closed = 1;
nodes = (
(163,490,o),
(169,508,o),
(177,515,cs),
(187,523,o),
(201,520,o),
(207,509,c),
(218,500,o),
(218,480,o),
(211,468,cs),
(200,449,o),
(172,458,o),
(166,480,cs)
);
},
{
closed = 1;
nodes = (
(266,45,o),
(262,43,o),
(260,42,c),
(254,94,o),
(247,147,o),
(244,199,cs),
(241,245,o),
(237,292,o),
(244,337,c),
(245,339,o),
(250,342,o),
(251,343,cs),
(255,347,o),
(269,347,o),
(274,347,cs),
(309,348,o),
(344,346,o),
(378,341,cs),
(397,338,o),
(416,334,o),
(434,327,cs),
(454,320,o),
(471,305,o),
(483,287,cs),
(492,273,o),
(498,256,o),
(502,239,cs),
(510,201,o),
(507,160,o),
(496,122,cs),
(491,105,o),
(481,88,o),
(469,75,cs),
(453,57,o),
(433,44,o),
(412,33,cs),
(395,23,o),
(378,15,o),
(359,10,cs),
(330,1,o),
(300,-2,o),
(270,-3,c),
(269,2,o),
(266,38,o),
(266,43,cs)
);
},
{
closed = 1;
nodes = (
(151,209,o),
(136,221,o),
(138,238,cs),
(139,250,o),
(150,270,o),
(161,275,cs),
(178,282,o),
(196,266,o),
(199,247,cs),
(200,234,o),
(192,214,o),
(180,209,cs),
(176,208,o),
(172,209,o),
(168,209,cs)
);
},
{
closed = 1;
nodes = (
(134,79,o),
(131,90,o),
(131,100,cs),
(132,111,o),
(139,127,o),
(150,129,cs),
(153,130,o),
(156,128,o),
(159,128,cs),
(164,128,o),
(169,129,o),
(174,126,cs),
(184,120,o),
(190,107,o),
(190,96,cs),
(190,86,o),
(181,66,o),
(172,61,cs),
(162,54,o),
(147,61,o),
(140,71,cs)
);
}
);
width = 609;
}
);
note = eight;
unicode = 56;
},
{
glyphname = nine;
layers = (
{
layerId = m01;
shapes = (
{
closed = 1;
nodes = (
(368,7,o),
(388,11,o),
(392,12,cs),
(403,15,o),
(450,40,o),
(460,46,cs),
(466,49,o),
(494,68,o),
(499,71,c),
(501,73,o),
(504,75,o),
(506,77,cs),
(531,110,o),
(548,149,o),
(562,187,cs),
(580,236,o),
(592,287,o),
(597,338,cs),
(601,375,o),
(597,412,o),
(593,449,cs),
(592,456,o),
(589,501,o),
(589,508,cs),
(585,553,o),
(575,598,o),
(552,636,cs),
(532,669,o),
(470,723,o),
(430,723,cs),
(429,723,o),
(426,722,o),
(425,724,c),
(422,726,o),
(419,727,o),
(416,728,c),
(407,729,o),
(368,729,o),
(360,728,cs),
(307,725,o),
(254,714,o),
(204,696,cs),
(186,689,o),
(169,681,o),
(154,671,cs),
(125,652,o),
(101,622,o),
(87,590,cs),
(64,536,o),
(54,472,o),
(64,414,cs),
(70,378,o),
(85,343,o),
(109,315,cs),
(150,267,o),
(208,231,o),
(269,214,cs),
(307,204,o),
(347,201,o),
(386,207,c),
(385,197,o),
(375,138,o),
(374,128,cs),
(372,114,o),
(369,99,o),
(373,85,c),
(344,66,o),
(303,58,o),
(270,68,cs),
(255,73,o),
(242,82,o),
(229,92,cs),
(211,106,o),
(195,123,o),
(179,140,cs),
(177,142,o),
(166,154,o),
(164,156,c),
(154,162,o),
(139,161,o),
(130,155,c),
(132,138,o),
(136,121,o),
(142,104,cs),
(147,91,o),
(179,55,o),
(190,46,cs),
(194,43,o),
(213,36,o),
(218,35,c),
(250,23,o),
(283,12,o),
(317,6,cs),
(324,4,o),
(357,6,o),
(364,6,c)
);
},
{
closed = 1;
nodes = (
(216,282,o),
(168,314,o),
(137,358,cs),
(121,381,o),
(112,409,o),
(110,437,cs),
(105,484,o),
(110,535,o),
(129,578,cs),
(140,603,o),
(158,626,o),
(180,641,cs),
(213,663,o),
(253,673,o),
(292,681,c),
(295,671,o),
(307,666,o),
(313,657,cs),
(339,619,o),
(350,573,o),
(360,528,cs),
(368,493,o),
(376,458,o),
(383,422,cs),
(393,364,o),
(395,304,o),
(390,245,c),
(349,239,o),
(305,245,o),
(266,261,cs)
);
},
{
closed = 1;
nodes = (
(412,605,o),
(411,608,o),
(409,609,cs),
(383,617,o),
(391,653,o),
(416,664,cs),
(426,668,o),
(442,661,o),
(449,654,cs),
(453,651,o),
(462,639,o),
(463,633,cs),
(463,631,o),
(460,621,o),
(459,619,c),
(454,598,o),
(431,590,o),
(414,604,c)
);
},
{
closed = 1;
nodes = (
(440,492,o),
(442,500,o),
(442,508,cs),
(442,525,o),
(450,546,o),
(468,546,cs),
(479,547,o),
(491,542,o),
(498,534,cs),
(512,514,o),
(504,488,o),
(484,475,cs),
(470,465,o),
(450,468,o),
(443,484,cs)
);
},
{
closed = 1;
nodes = (
(463,354,o),
(466,370,o),
(468,376,cs),
(471,388,o),
(484,408,o),
(497,409,cs),
(515,410,o),
(534,398,o),
(532,380,cs),
(530,363,o),
(524,343,o),
(510,334,cs),
(494,325,o),
(475,332,o),
(466,348,cs)
);
},
{
closed = 1;
nodes = (
(460,245,o),
(474,268,o),
(488,275,cs),
(493,278,o),
(500,276,o),
(506,274,cs),
(534,264,o),
(526,211,o),
(496,210,cs),
(482,209,o),
(465,215,o),
(463,229,cs)
);
},
{
closed = 1;
nodes = (
(421,92,o),
(423,114,o),
(430,128,cs),
(432,132,o),
(443,140,o),
(448,141,cs),
(461,145,o),
(475,136,o),
(477,122,cs),
(478,116,o),
(472,97,o),
(468,91,cs),
(460,79,o),
(445,73,o),
(433,82,cs)
);
}
);
width = 664;
}
);
note = nine;
unicode = 57;
},
{
glyphname = colon;
layers = (
{
layerId = m01;
shapes = (
{
closed = 1;
nodes = (
(207,381,o),
(225,397,o),
(235,416,cs),
(248,441,o),
(244,472,o),
(227,493,cs),
(218,505,o),
(204,512,o),
(193,520,cs),
(181,529,o),
(166,534,o),
(152,535,cs),
(90,542,o),
(41,486,o),
(53,424,cs),
(64,363,o),
(135,340,o),
(188,371,cs)
);
},
{
closed = 1;
nodes = (
(120,431,o),
(117,445,o),
(116,448,cs),
(111,463,o),
(121,480,o),
(137,477,cs),
(148,474,o),
(156,464,o),
(162,454,cs),
(165,449,o),
(171,434,o),
(170,428,c),
(169,426,o),
(166,418,o),
(166,417,c),
(159,397,o),
(131,410,o),
(121,428,c)
);
},
{
closed = 1;
nodes = (
(227,8,o),
(246,26,o),
(259,50,cs),
(266,62,o),
(269,76,o),
(269,90,cs),
(269,152,o),
(205,188,o),
(144,178,cs),
(123,174,o),
(104,161,o),
(89,146,cs),
(77,133,o),
(70,116,o),
(64,98,cs),
(48,43,o),
(83,-18,o),
(140,-16,cs),
(151,-16,o),
(192,-9,o),
(202,-4,cs)
);
},
{
closed = 1;
nodes = (
(127,79,o),
(135,92,o),
(144,99,cs),
(148,103,o),
(153,105,o),
(157,105,cs),
(171,105,o),
(185,96,o),
(183,82,cs),
(182,72,o),
(173,50,o),
(163,45,cs),
(148,37,o),
(130,50,o),
(128,67,cs)
);
}
);
width = 317;
}
);
note = colon;
unicode = 58;
},
{
glyphname = semicolon;
layers = (
{
layerId = m01;
shapes = (
{
closed = 1;
nodes = (
(249,372,o),
(272,442,o),
(244,493,cs),
(237,505,o),
(228,516,o),
(218,525,c),
(216,526,o),
(206,537,o),
(204,539,c),
(189,549,o),
(170,557,o),
(152,557,cs),
(134,557,o),
(115,550,o),
(100,539,cs),
(57,508,o),
(43,436,o),
(68,389,cs),
(93,344,o),
(150,323,o),
(197,346,cs)
);
},
{
closed = 1;
nodes = (
(145,448,o),
(153,458,o),
(151,468,cs),
(149,485,o),
(159,503,o),
(176,501,cs),
(198,498,o),
(212,481,o),
(211,459,cs),
(211,451,o),
(203,430,o),
(198,424,cs),
(195,421,o),
(184,413,o),
(180,412,cs),
(166,410,o),
(152,425,o),
(148,439,cs)
);
},
{
closed = 1;
nodes = (
(177,-80,o),
(204,-60,o),
(222,-34,cs),
(236,-15,o),
(244,7,o),
(251,30,cs),
(258,57,o),
(262,86,o),
(258,113,cs),
(256,128,o),
(249,146,o),
(239,158,c),
(232,180,o),
(218,193,o),
(196,199,cs),
(181,203,o),
(165,210,o),
(150,209,cs),
(139,209,o),
(128,207,o),
(118,202,cs),
(79,184,o),
(51,130,o),
(62,89,cs),
(66,77,o),
(73,66,o),
(79,55,cs),
(90,31,o),
(122,14,o),
(149,17,c),
(137,-7,o),
(125,-30,o),
(111,-51,cs),
(106,-58,o),
(101,-67,o),
(102,-75,cs),
(103,-100,o),
(130,-112,o),
(151,-98,cs)
);
},
{
closed = 1;
nodes = (
(149,119,o),
(147,138,o),
(161,143,c),
(162,144,o),
(169,149,o),
(170,149,c),
(178,152,o),
(188,147,o),
(190,138,cs),
(191,134,o),
(188,129,o),
(186,125,c),
(185,124,o),
(183,115,o),
(182,114,cs),
(177,106,o),
(167,104,o),
(160,110,cs)
);
}
);
width = 316;
}
);
note = semicolon;
unicode = 59;
},
{
glyphname = less;
layers = (
{
layerId = m01;
shapes = (
{
closed = 1;
nodes = (
(560,-44,o),
(569,-39,o),
(575,-31,cs),
(579,-27,o),
(585,-27,o),
(589,-23,cs),
(613,-4,o),
(615,31,o),
(594,54,cs),
(570,81,o),
(539,100,o),
(510,121,cs),
(460,157,o),
(409,192,o),
(359,228,cs),
(334,246,o),
(197,346,o),
(172,362,c),
(270,425,o),
(372,483,o),
(471,544,cs),
(479,549,o),
(514,569,o),
(520,576,cs),
(529,587,o),
(545,591,o),
(556,600,cs),
(569,612,o),
(561,634,o),
(544,634,cs),
(536,634,o),
(513,620,o),
(506,616,cs),
(501,614,o),
(495,614,o),
(491,612,cs),
(484,608,o),
(447,587,o),
(440,583,cs),
(325,516,o),
(206,451,o),
(100,370,cs),
(94,366,o),
(87,365,o),
(81,363,cs),
(65,358,o),
(46,333,o),
(44,316,cs),
(43,306,o),
(42,296,o),
(45,286,cs),
(49,272,o),
(55,259,o),
(65,248,cs),
(77,235,o),
(144,174,o),
(158,163,cs),
(246,90,o),
(341,26,o),
(439,-31,cs),
(458,-41,o),
(482,-46,o),
(503,-40,c),
(518,-45,o),
(536,-50,o),
(551,-46,cs)
);
},
{
closed = 1;
nodes = (
(125,282,o),
(130,307,o),
(144,315,cs),
(154,321,o),
(172,314,o),
(178,304,cs),
(184,295,o),
(184,282,o),
(180,273,cs),
(176,265,o),
(169,260,o),
(162,254,cs),
(151,245,o),
(133,252,o),
(129,266,cs)
);
},
{
closed = 1;
nodes = (
(239,169,o),
(231,175,o),
(231,184,cs),
(230,201,o),
(241,226,o),
(258,232,cs),
(265,234,o),
(278,229,o),
(283,224,cs),
(286,221,o),
(288,216,o),
(289,212,cs),
(291,206,o),
(285,190,o),
(283,185,cs),
(282,182,o),
(283,179,o),
(282,177,c),
(281,172,o),
(276,167,o),
(271,166,cs),
(269,166,o),
(268,163,o),
(266,163,c),
(260,160,o),
(251,160,o),
(246,164,cs)
);
},
{
closed = 1;
nodes = (
(371,69,o),
(370,71,o),
(369,71,cs),
(354,75,o),
(349,82,o),
(349,97,cs),
(348,110,o),
(351,130,o),
(364,134,c),
(369,141,o),
(378,149,o),
(387,149,cs),
(399,148,o),
(413,138,o),
(414,126,cs),
(416,111,o),
(407,94,o),
(396,83,c),
(400,67,o),
(383,57,o),
(372,68,cs)
);
},
{
closed = 1;
nodes = (
(472,3,o),
(470,10,o),
(469,12,c),
(468,17,o),
(471,22,o),
(471,27,c),
(472,30,o),
(471,34,o),
(472,37,cs),
(474,47,o),
(478,57,o),
(485,63,cs),
(501,78,o),
(526,70,o),
(534,49,cs),
(537,40,o),
(526,19,o),
(521,10,c),
(508,-8,o),
(483,-17,o),
(473,2,c)
);
}
);
width = 647;
}
);
note = less;
unicode = 60;
},
{
glyphname = equal;
layers = (
{
layerId = m01;
shapes = (
{
closed = 1;
nodes = (
(636,365,o),
(637,447,o),
(580,473,cs),
(575,475,o),
(554,481,o),
(549,482,cs),
(460,495,o),
(369,489,o),
(280,485,cs),
(261,484,o),
(168,480,o),
(150,482,c),
(147,483,o),
(134,481,o),
(132,481,cs),
(111,479,o),
(89,471,o),
(76,454,cs),
(57,431,o),
(57,397,o),
(76,374,cs),
(89,357,o),
(112,348,o),
(132,345,cs),
(135,345,o),
(151,344,o),
(154,343,c),
(278,324,o),
(406,342,o),
(531,331,cs),
(548,329,o),
(565,331,o),
(580,338,cs)
);
},
{
closed = 1;
nodes = (
(503,390,o),
(498,396,o),
(498,402,c),
(496,413,o),
(502,423,o),
(509,431,cs),
(515,440,o),
(525,447,o),
(535,448,cs),
(549,449,o),
(560,434,o),
(562,420,cs),
(567,388,o),
(531,364,o),
(508,386,cs)
);
},
{
closed = 1;
nodes = (
(143,387,o),
(133,397,o),
(134,406,cs),
(134,411,o),
(144,426,o),
(146,431,cs),
(149,436,o),
(154,442,o),
(160,445,cs),
(175,453,o),
(199,440,o),
(202,423,cs),
(205,409,o),
(191,392,o),
(177,388,cs),
(169,385,o),
(160,383,o),
(152,385,cs)
);
},
{
closed = 1;
nodes = (
(384,395,o),
(379,400,o),
(378,406,cs),
(376,413,o),
(381,421,o),
(385,427,cs),
(389,433,o),
(394,439,o),
(401,442,cs),
(412,446,o),
(427,441,o),
(433,431,cs),
(436,424,o),
(441,418,o),
(440,411,cs),
(439,399,o),
(429,381,o),
(418,377,cs),
(408,373,o),
(392,380,o),
(387,390,cs)
);
},
{
closed = 1;
nodes = (
(256,389,o),
(253,397,o),
(254,400,cs),
(258,415,o),
(270,430,o),
(285,437,cs),
(294,441,o),
(307,442,o),
(315,436,cs),
(323,431,o),
(330,422,o),
(329,413,cs),
(328,401,o),
(314,384,o),
(302,381,cs),
(298,380,o),
(283,375,o),
(279,375,cs),
(272,375,o),
(261,381,o),
(257,387,cs)
);
},
{
closed = 1;
nodes = (
(595,124,o),
(610,168,o),
(593,200,cs),
(582,220,o),
(561,234,o),
(539,241,cs),
(522,246,o),
(442,252,o),
(425,253,cs),
(333,257,o),
(241,253,o),
(150,243,cs),
(139,242,o),
(95,236,o),
(86,230,cs),
(73,222,o),
(60,212,o),
(53,198,cs),
(37,166,o),
(54,129,o),
(86,113,cs),
(95,109,o),
(105,108,o),
(115,106,c),
(119,106,o),
(142,106,o),
(147,106,cs),
(264,106,o),
(382,109,o),
(498,100,cs),
(520,98,o),
(543,99,o),
(562,108,cs)
);
},
{
closed = 1;
nodes = (
(226,163,o),
(223,165,o),
(222,169,cs),
(218,185,o),
(238,202,o),
(252,209,cs),
(257,212,o),
(270,216,o),
(275,214,cs),
(281,211,o),
(288,209,o),
(292,203,cs),
(308,183,o),
(286,158,o),
(263,147,cs),
(249,141,o),
(231,144,o),
(227,159,cs)
);
},
{
closed = 1;
nodes = (
(364,154,o),
(355,165,o),
(356,178,cs),
(357,185,o),
(367,203,o),
(372,209,cs),
(374,212,o),
(386,213,o),
(391,213,cs),
(399,213,o),
(407,207,o),
(411,200,c),
(421,176,o),
(400,146,o),
(376,152,cs)
);
},
{
closed = 1;
nodes = (
(462,155,o),
(462,160,o),
(461,164,cs),
(457,184,o),
(478,199,o),
(497,206,cs),
(514,211,o),
(534,207,o),
(539,190,cs),
(541,182,o),
(533,167,o),
(527,161,cs),
(509,144,o),
(480,130,o),
(465,150,cs)
);
},
{
closed = 1;
nodes = (
(92,147,o),
(100,169,o),
(113,185,cs),
(116,189,o),
(127,201,o),
(132,202,c),
(142,206,o),
(155,198,o),
(161,190,cs),
(178,170,o),
(162,141,o),
(138,132,cs),
(129,129,o),
(118,132,o),
(110,137,cs)
);
}
);
width = 669;
}
);
note = equal;
unicode = 61;
},
{
glyphname = greater;
layers = (
{
layerId = m01;
shapes = (
{
closed = 1;
nodes = (
(224,25,o),
(401,114,o),
(434,130,cs),
(502,162,o),
(573,190,o),
(637,230,cs),
(645,235,o),
(652,242,o),
(657,250,c),
(657,251,o),
(658,255,o),
(658,255,c),
(659,257,o),
(667,264,o),
(668,265,cs),
(678,277,o),
(684,294,o),
(684,310,cs),
(683,327,o),
(675,345,o),
(665,359,cs),
(655,373,o),
(639,381,o),
(624,387,cs),
(494,437,o),
(382,528,o),
(251,574,cs),
(236,580,o),
(221,584,o),
(208,591,cs),
(193,598,o),
(121,622,o),
(105,625,cs),
(61,635,o),
(25,590,o),
(44,549,cs),
(48,541,o),
(68,519,o),
(74,514,cs),
(76,512,o),
(80,511,o),
(80,507,cs),
(79,495,o),
(94,479,o),
(105,474,cs),
(110,472,o),
(134,452,o),
(139,449,cs),
(180,420,o),
(222,394,o),
(264,366,cs),
(338,317,o),
(414,271,o),
(494,232,cs),
(498,230,o),
(506,229,o),
(501,227,cs),
(409,186,o),
(318,146,o),
(228,101,cs),
(204,88,o),
(180,74,o),
(155,62,cs),
(144,57,o),
(134,41,o),
(137,30,cs),
(142,8,o),
(168,6,o),
(189,13,cs)
);
},
{
closed = 1;
nodes = (
(120,537,o),
(114,567,o),
(123,578,cs),
(131,587,o),
(150,584,o),
(161,579,cs),
(178,572,o),
(181,544,o),
(178,526,cs),
(173,497,o),
(135,497,o),
(125,524,cs)
);
},
{
closed = 1;
nodes = (
(237,457,o),
(230,480,o),
(237,497,cs),
(246,519,o),
(273,515,o),
(286,495,cs),
(293,485,o),
(293,463,o),
(286,453,cs),
(279,444,o),
(262,442,o),
(253,448,cs)
);
},
{
closed = 1;
nodes = (
(360,381,o),
(357,411,o),
(359,424,cs),
(362,435,o),
(367,440,o),
(378,441,cs),
(380,441,o),
(382,440,o),
(385,441,c),
(385,441,o),
(389,443,o),
(390,444,c),
(401,449,o),
(418,446,o),
(425,436,c),
(428,429,o),
(429,421,o),
(429,413,cs),
(429,412,o),
(431,408,o),
(431,407,cs),
(431,400,o),
(426,393,o),
(423,386,cs),
(414,365,o),
(387,356,o),
(371,371,cs)
);
},
{
closed = 1;
nodes = (
(515,301,o),
(513,314,o),
(512,319,cs),
(511,334,o),
(515,351,o),
(526,361,cs),
(533,367,o),
(549,369,o),
(557,366,cs),
(564,362,o),
(570,356,o),
(572,349,cs),
(574,342,o),
(574,335,o),
(574,329,cs),
(573,314,o),
(565,292,o),
(551,289,cs),
(547,288,o),
(544,287,o),
(540,287,cs),
(532,286,o),
(523,291,o),
(518,297,cs)
);
}
);
width = 728;
}
);
note = greater;
unicode = 62;
},
{
glyphname = question;
kernLeft = question;
layers = (
{
layerId = m01;
shapes = (
{
closed = 1;
nodes = (
(243,159,o),
(266,194,o),
(272,205,cs),
(293,241,o),
(300,284,o),
(306,325,c),
(306,331,o),
(318,357,o),
(320,363,cs),
(334,397,o),
(352,430,o),
(368,464,cs),
(375,477,o),
(418,550,o),
(424,563,cs),
(427,570,o),
(442,606,o),
(444,613,cs),
(446,622,o),
(445,634,o),
(440,643,cs),
(435,653,o),
(436,665,o),
(434,676,cs),
(431,691,o),
(420,708,o),
(406,715,c),
(401,716,o),
(397,717,o),
(393,720,cs),
(360,744,o),
(319,757,o),
(278,764,cs),
(208,774,o),
(134,761,o),
(68,736,c),
(66,736,o),
(64,735,o),
(62,735,cs),
(56,736,o),
(51,732,o),
(46,729,cs),
(28,721,o),
(37,693,o),
(56,696,c),
(59,697,o),
(62,698,o),
(64,698,c),
(119,715,o),
(175,728,o),
(232,727,cs),
(271,726,o),
(310,717,o),
(345,701,c),
(339,696,o),
(334,691,o),
(330,685,cs),
(321,672,o),
(309,661,o),
(298,648,cs),
(237,575,o),
(173,499,o),
(138,409,cs),
(135,402,o),
(121,364,o),
(120,356,cs),
(114,326,o),
(114,294,o),
(123,265,cs),
(127,252,o),
(143,189,o),
(149,178,cs),
(158,159,o),
(181,151,o),
(200,160,c),
(209,151,o),
(221,149,o),
(232,154,cs)
);
},
{
closed = 1;
nodes = (
(317,552,o),
(319,566,o),
(325,578,cs),
(327,583,o),
(338,600,o),
(343,603,cs),
(357,614,o),
(378,607,o),
(382,590,cs),
(385,580,o),
(375,559,o),
(368,552,cs),
(364,547,o),
(357,542,o),
(351,543,cs),
(348,544,o),
(332,546,o),
(329,548,c)
);
},
{
closed = 1;
nodes = (
(221,428,o),
(219,455,o),
(233,465,cs),
(240,471,o),
(255,466,o),
(263,460,cs),
(268,456,o),
(276,441,o),
(277,435,cs),
(277,429,o),
(272,413,o),
(269,408,c),
(264,403,o),
(259,395,o),
(252,394,cs),
(242,392,o),
(231,402,o),
(227,412,cs)
);
},
{
closed = 1;
nodes = (
(187,254,o),
(188,257,o),
(188,260,c),
(186,267,o),
(188,281,o),
(194,286,cs),
(203,293,o),
(217,288,o),
(219,276,c),
(221,273,o),
(224,270,o),
(225,266,c),
(225,260,o),
(222,254,o),
(218,249,c),
(215,226,o),
(183,229,o),
(187,251,c)
);
},
{
closed = 1;
nodes = (
(262,-29,o),
(270,-20,o),
(275,-9,cs),
(293,26,o),
(275,67,o),
(239,85,cs),
(171,119,o),
(97,56,o),
(112,-18,cs),
(113,-22,o),
(117,-34,o),
(119,-37,cs),
(130,-55,o),
(145,-72,o),
(164,-81,cs),
(201,-100,o),
(249,-82,o),
(259,-41,cs)
);
},
{
closed = 1;
nodes = (
(195,-13,o),
(192,-14,o),
(191,-14,cs),
(179,-14,o),
(172,-1,o),
(178,9,cs),
(181,14,o),
(193,22,o),
(199,24,cs),
(216,29,o),
(232,13,o),
(223,-2,cs),
(217,-12,o),
(206,-18,o),
(195,-13,c)
);
}
);
width = 487;
}
);
note = question;
unicode = 63;
},
{
glyphname = at;
layers = (
{
layerId = m01;
shapes = (
{
closed = 1;
nodes = (
(826,100,o),
(862,128,o),
(883,163,cs),
(917,218,o),
(939,281,o),
(944,345,cs),
(948,401,o),
(938,460,o),
(920,514,cs),
(901,571,o),
(872,626,o),
(833,672,cs),
(806,705,o),
(765,728,o),
(725,741,cs),
(686,755,o),
(645,763,o),
(604,764,cs),
(546,765,o),
(488,754,o),
(432,739,cs),
(423,737,o),
(414,735,o),
(405,731,cs),
(399,728,o),
(371,714,o),
(366,710,cs),
(350,697,o),
(365,673,o),
(384,681,cs),
(388,683,o),
(414,698,o),
(419,699,c),
(428,703,o),
(472,711,o),
(481,713,cs),
(565,726,o),
(659,714,o),
(733,671,cs),
(756,658,o),
(776,638,o),
(794,619,cs),
(814,596,o),
(829,570,o),
(843,543,cs),
(854,522,o),
(864,500,o),
(871,477,cs),
(880,446,o),
(884,413,o),
(886,381,cs),
(888,330,o),
(877,276,o),
(855,230,cs),
(844,207,o),
(831,185,o),
(814,165,cs),
(801,150,o),
(782,139,o),
(763,132,cs),
(755,129,o),
(733,124,o),
(726,127,cs),
(710,134,o),
(712,169,o),
(712,186,cs),
(712,187,o),
(713,189,o),
(713,190,cs),
(714,193,o),
(712,204,o),
(712,206,cs),
(707,244,o),
(710,283,o),
(710,321,cs),
(709,366,o),
(702,411,o),
(700,456,cs),
(699,488,o),
(702,521,o),
(704,553,c),
(709,563,o),
(707,574,o),
(700,584,cs),
(683,608,o),
(649,586,o),
(656,557,c),
(655,549,o),
(652,506,o),
(652,498,c),
(642,509,o),
(628,515,o),
(614,520,cs),
(612,521,o),
(610,524,o),
(608,526,c),
(607,526,o),
(598,529,o),
(597,530,c),
(596,530,o),
(592,535,o),
(590,535,c),
(535,551,o),
(477,554,o),
(420,555,c),
(415,552,o),
(386,540,o),
(381,537,cs),
(371,531,o),
(338,502,o),
(332,493,c),
(328,489,o),
(315,472,o),
(313,467,cs),
(297,421,o),
(291,370,o),
(298,321,cs),
(300,309,o),
(301,297,o),
(303,286,cs),
(307,261,o),
(315,236,o),
(323,212,cs),
(332,187,o),
(342,162,o),
(358,141,cs),
(377,117,o),
(405,98,o),
(434,92,cs),
(476,83,o),
(520,99,o),
(560,114,cs),
(595,126,o),
(629,139,o),
(661,156,c),
(663,136,o),
(668,115,o),
(681,100,cs),
(691,87,o),
(705,79,o),
(720,77,cs),
(743,73,o),
(766,79,o),
(788,87,cs)
);
},
{
closed = 1;
nodes = (
(521,169,o),
(522,170,o),
(521,171,c),
(505,179,o),
(497,198,o),
(491,216,cs),
(484,237,o),
(470,339,o),
(469,362,cs),
(469,368,o),
(471,409,o),
(470,416,c),
(470,433,o),
(468,450,o),
(468,468,c),
(467,475,o),
(467,494,o),
(472,499,cs),
(485,512,o),
(513,508,o),
(530,498,c),
(530,498,o),
(530,500,o),
(532,500,cs),
(562,495,o),
(593,492,o),
(620,478,cs),
(630,473,o),
(635,462,o),
(640,452,cs),
(642,448,o),
(652,426,o),
(653,421,cs),
(657,403,o),
(652,314,o),
(652,295,cs),
(652,273,o),
(654,251,o),
(656,229,cs),
(656,228,o),
(656,226,o),
(657,225,cs),
(660,221,o),
(661,215,o),
(660,211,cs),
(659,209,o),
(658,208,o),
(658,206,cs),
(658,203,o),
(660,199,o),
(657,198,cs),
(644,194,o),
(631,192,o),
(619,186,cs),
(611,182,o),
(563,164,o),
(554,160,cs),
(542,156,o),
(526,156,o),
(522,168,c)
);
},
{
closed = 1;
nodes = (
(360,400,o),
(355,412,o),
(354,416,c),
(354,423,o),
(362,441,o),
(366,447,cs),
(372,454,o),
(383,465,o),
(390,462,c),
(392,462,o),
(399,460,o),
(401,459,cs),
(409,454,o),
(423,442,o),
(422,432,cs),
(420,421,o),
(412,394,o),
(404,388,cs),
(389,377,o),
(368,380,o),
(361,397,cs)
);
},
{
closed = 1;
nodes = (
(359,275,o),
(354,285,o),
(354,290,cs),
(354,309,o),
(373,329,o),
(391,327,cs),
(404,325,o),
(424,309,o),
(430,298,cs),
(433,291,o),
(429,279,o),
(424,274,cs),
(409,255,o),
(381,256,o),
(362,272,cs)
);
},
{
closed = 1;
nodes = (
(407,176,o),
(404,184,o),
(405,191,cs),
(407,201,o),
(414,212,o),
(424,211,cs),
(427,211,o),
(430,214,o),
(432,215,cs),
(442,219,o),
(454,211,o),
(455,201,cs),
(455,195,o),
(450,190,o),
(452,184,c),
(453,176,o),
(444,163,o),
(438,158,cs),
(427,150,o),
(415,157,o),
(410,169,cs)
);
},
{
closed = 1;
nodes = (
(485,-67,o),
(678,-39,o),
(719,-19,cs),
(737,-10,o),
(726,17,o),
(707,11,cs),
(670,0,o),
(633,-7,o),
(595,-12,cs),
(560,-17,o),
(524,-21,o),
(490,-14,cs),
(451,-7,o),
(415,11,o),
(384,35,cs),
(372,44,o),
(312,90,o),
(302,101,cs),
(277,127,o),
(257,160,o),
(246,195,cs),
(231,246,o),
(225,299,o),
(226,352,cs),
(227,395,o),
(238,437,o),
(246,480,cs),
(250,502,o),
(255,525,o),
(261,547,cs),
(262,553,o),
(269,587,o),
(271,593,cs),
(274,600,o),
(285,643,o),
(287,651,cs),
(287,652,o),
(288,661,o),
(288,663,c),
(293,680,o),
(278,696,o),
(260,693,cs),
(244,690,o),
(228,684,o),
(214,674,cs),
(181,652,o),
(144,629,o),
(127,593,cs),
(90,514,o),
(65,426,o),
(66,339,cs),
(67,279,o),
(74,219,o),
(90,161,cs),
(108,92,o),
(147,23,o),
(202,-22,cs),
(224,-40,o),
(250,-54,o),
(276,-65,cs),
(327,-84,o),
(385,-79,o),
(439,-72,cs)
);
},
{
closed = 1;
nodes = (
(152,516,o),
(154,524,o),
(154,526,cs),
(152,536,o),
(153,552,o),
(163,555,c),
(167,557,o),
(170,562,o),
(174,565,cs),
(180,569,o),
(187,572,o),
(195,572,cs),
(201,572,o),
(209,565,o),
(210,559,c),
(211,558,o),
(211,553,o),
(211,552,c),
(215,546,o),
(218,539,o),
(217,532,cs),
(216,516,o),
(200,491,o),
(186,486,cs),
(168,480,o),
(150,495,o),
(151,514,c)
);
},
{
closed = 1;
nodes = (
(111,348,o),
(114,355,o),
(117,362,cs),
(125,386,o),
(153,399,o),
(170,381,cs),
(176,375,o),
(179,367,o),
(179,359,cs),
(180,352,o),
(177,345,o),
(174,339,cs),
(169,328,o),
(160,318,o),
(149,315,cs),
(134,310,o),
(114,324,o),
(112,341,cs)
);
},
{
closed = 1;
nodes = (
(135,147,o),
(147,173,o),
(156,181,cs),
(165,190,o),
(178,190,o),
(187,182,cs),
(188,181,o),
(195,178,o),
(196,177,cs),
(210,168,o),
(204,150,o),
(194,136,cs),
(188,127,o),
(179,119,o),
(169,115,cs),
(157,111,o),
(139,122,o),
(137,135,cs)
);
},
{
closed = 1;
nodes = (
(253,-1,o),
(259,25,o),
(275,39,cs),
(279,43,o),
(284,47,o),
(290,47,cs),
(299,47,o),
(309,41,o),
(314,33,cs),
(321,21,o),
(313,0,o),
(303,-10,c),
(300,-12,o),
(297,-15,o),
(294,-16,c),
(289,-20,o),
(276,-16,o),
(271,-12,cs)
);
}
);
width = 1005;
}
);
note = at;
unicode = 64;
},
{
glyphname = A;
layers = (
{
layerId = m01;
shapes = (
{
closed = 1;
nodes = (
(215,-15,o),
(234,-3,o),
(245,13,cs),
(258,34,o),
(261,60,o),
(263,84,cs),
(268,131,o),
(269,179,o),
(270,227,c),
(361,229,o),
(451,232,o),
(541,239,cs),
(545,239,o),
(543,233,o),
(543,229,cs),
(542,207,o),
(538,74,o),
(538,51,cs),
(538,39,o),
(540,26,o),
(540,14,cs),
(541,-1,o),
(555,-16,o),
(570,-16,cs),
(585,-16,o),
(598,-2,o),
(599,13,cs),
(599,15,o),
(599,29,o),
(599,31,c),
(605,58,o),
(596,191,o),
(595,219,cs),
(594,296,o),
(600,372,o),
(596,449,cs),
(592,503,o),
(582,558,o),
(559,607,cs),
(544,638,o),
(521,666,o),
(492,683,cs),
(463,700,o),
(427,711,o),
(393,710,cs),
(358,710,o),
(325,699,o),
(293,686,cs),
(290,685,o),
(286,686,o),
(283,684,c),
(236,666,o),
(189,646,o),
(148,617,c),
(124,581,o),
(108,539,o),
(98,497,cs),
(98,496,o),
(98,496,o),
(97,496,c),
(76,443,o),
(61,387,o),
(56,331,cs),
(51,283,o),
(55,234,o),
(61,186,cs),
(66,153,o),
(70,121,o),
(79,90,cs),
(89,58,o),
(103,24,o),
(128,2,cs),
(129,1,o),
(130,0,o),
(131,-1,cs),
(139,-13,o),
(156,-21,o),
(171,-20,cs),
(174,-20,o),
(193,-18,o),
(196,-17,c)
);
},
{
closed = 1;
nodes = (
(284,511,o),
(288,543,o),
(297,573,cs),
(298,575,o),
(296,577,o),
(296,579,cs),
(298,590,o),
(304,600,o),
(310,609,cs),
(311,610,o),
(311,608,o),
(311,609,c),
(312,610,o),
(313,615,o),
(314,616,cs),
(334,634,o),
(358,646,o),
(382,658,c),
(411,659,o),
(443,652,o),
(467,635,cs),
(490,620,o),
(505,595,o),
(516,571,cs),
(533,532,o),
(542,490,o),
(546,448,cs),
(551,395,o),
(547,342,o),
(545,289,cs),
(545,287,o),
(543,288,o),
(541,288,cs),
(452,285,o),
(363,282,o),
(275,278,cs),
(272,278,o),
(272,278,o),
(272,281,cs),
(274,347,o),
(277,414,o),
(282,480,cs)
);
},
{
closed = 1;
nodes = (
(514,571,o),
(514,572,o),
(515,572,c),
(514,572,o),
(514,572,o),
(514,571,c)
);
},
{
closed = 1;
nodes = (
(167,531,o),
(168,539,o),
(170,546,cs),
(176,567,o),
(199,578,o),
(217,565,c),
(221,563,o),
(226,559,o),
(228,554,cs),
(232,545,o),
(228,533,o),
(223,525,cs),
(211,502,o),
(177,500,o),
(169,524,cs)
);
},
{
closed = 1;
nodes = (
(132,418,o),
(139,436,o),
(144,445,cs),
(151,456,o),
(170,455,o),
(182,449,cs),
(204,439,o),
(203,405,o),
(181,394,cs),
(165,386,o),
(145,393,o),
(137,409,cs)
);
},
{
closed = 1;
nodes = (
(108,297,o),
(116,323,o),
(133,333,cs),
(144,340,o),
(160,332,o),
(173,328,c),
(176,326,o),
(183,320,o),
(185,317,c),
(187,310,o),
(185,303,o),
(184,296,cs),
(181,281,o),
(170,269,o),
(156,267,cs),
(145,265,o),
(125,271,o),
(119,281,cs)
);
},
{
closed = 1;
nodes = (
(121,159,o),
(128,199,o),
(153,204,cs),
(162,206,o),
(179,203,o),
(185,196,cs),
(190,190,o),
(191,181,o),
(188,174,cs),
(181,154,o),
(161,138,o),
(143,148,cs)
);
},
{
closed = 1;
nodes = (
(173,34,o),
(162,38,o),
(160,38,c),
(152,40,o),
(148,44,o),
(145,51,cs),
(138,70,o),
(149,89,o),
(168,93,cs),
(184,97,o),
(201,90,o),
(203,73,cs),
(205,64,o),
(203,45,o),
(196,39,cs),
(190,35,o),
(182,33,o),
(176,34,cs)
);
}
);
width = 668;
}
);
note = A;
unicode = (65,192,193,194,195,196,197);
},
{
glyphname = B;
kernLeft = B;
layers = (
{
layerId = m01;
shapes = (
{
closed = 1;
nodes = (
(375,8,o),
(425,24,o),
(467,50,cs),
(491,66,o),
(514,85,o),
(531,108,cs),
(547,131,o),
(559,158,o),
(565,186,cs),
(572,213,o),
(571,244,o),
(562,271,cs),
(553,299,o),
(535,325,o),
(512,343,cs),
(490,361,o),
(462,370,o),
(435,381,c),
(458,398,o),
(478,418,o),
(493,442,cs),
(507,465,o),
(516,491,o),
(520,518,cs),
(524,551,o),
(519,586,o),
(504,615,cs),
(492,638,o),
(473,658,o),
(451,671,cs),
(402,699,o),
(343,707,o),
(287,710,cs),
(270,711,o),
(253,710,o),
(237,711,cs),
(211,712,o),
(142,717,o),
(124,698,c),
(123,698,o),
(123,697,o),
(123,697,c),
(111,704,o),
(97,696,o),
(93,683,cs),
(92,677,o),
(90,645,o),
(89,639,cs),
(82,576,o),
(75,513,o),
(73,450,cs),
(70,370,o),
(68,289,o),
(75,210,cs),
(78,172,o),
(83,134,o),
(88,96,cs),
(91,74,o),
(103,15,o),
(119,1,cs),
(129,-8,o),
(145,-8,o),
(155,1,c),
(211,-11,o),
(270,-10,o),
(326,0,cs)
);
},
{
closed = 1;
nodes = (
(280,655,o),
(390,637,o),
(413,625,cs),
(443,610,o),
(473,555,o),
(473,522,cs),
(473,503,o),
(463,484,o),
(452,470,cs),
(428,439,o),
(394,417,o),
(362,396,cs),
(360,395,o),
(357,395,o),
(354,395,cs),
(350,394,o),
(346,391,o),
(343,388,c),
(342,386,o),
(341,384,o),
(340,383,cs),
(328,373,o),
(273,359,o),
(258,356,c),
(259,457,o),
(260,558,o),
(254,658,c)
);
},
{
closed = 1;
nodes = (
(146,551,o),
(139,567,o),
(140,576,cs),
(140,581,o),
(143,586,o),
(145,590,c),
(146,591,o),
(151,595,o),
(152,595,c),
(154,600,o),
(154,606,o),
(156,610,cs),
(159,617,o),
(164,625,o),
(172,627,cs),
(186,630,o),
(196,622,o),
(196,608,c),
(213,591,o),
(207,563,o),
(189,548,cs),
(181,541,o),
(163,541,o),
(154,546,cs)
);
},
{
closed = 1;
nodes = (
(147,391,o),
(143,394,o),
(141,398,cs),
(138,404,o),
(139,425,o),
(141,431,c),
(141,435,o),
(147,445,o),
(149,447,cs),
(151,449,o),
(157,454,o),
(157,455,c),
(163,472,o),
(184,476,o),
(196,463,c),
(198,462,o),
(204,451,o),
(205,450,cs),
(212,443,o),
(212,430,o),
(208,422,cs),
(197,398,o),
(174,376,o),
(151,389,cs)
);
},
{
closed = 1;
nodes = (
(262,296,o),
(265,301,o),
(269,302,c),
(275,305,o),
(309,323,o),
(316,325,cs),
(320,327,o),
(347,336,o),
(352,337,c),
(365,342,o),
(409,344,o),
(423,340,cs),
(449,332,o),
(473,316,o),
(492,297,cs),
(505,285,o),
(516,267,o),
(516,248,cs),
(516,221,o),
(511,194,o),
(503,168,cs),
(497,147,o),
(485,127,o),
(468,113,cs),
(437,89,o),
(399,73,o),
(361,63,cs),
(325,55,o),
(288,53,o),
(251,52,c),
(253,132,o),
(256,213,o),
(258,294,c)
);
},
{
closed = 1;
nodes = (
(143,270,o),
(149,296,o),
(159,309,cs),
(168,322,o),
(186,322,o),
(198,312,c),
(200,311,o),
(206,302,o),
(208,300,c),
(211,295,o),
(212,289,o),
(211,283,cs),
(210,268,o),
(201,256,o),
(189,249,cs),
(178,243,o),
(161,248,o),
(153,257,cs)
);
},
{
closed = 1;
nodes = (
(175,136,o),
(168,135,o),
(163,138,cs),
(157,142,o),
(156,150,o),
(153,156,cs),
(148,167,o),
(152,185,o),
(163,191,cs),
(176,197,o),
(200,190,o),
(205,177,cs),
(207,170,o),
(206,163,o),
(203,157,c),
(204,147,o),
(201,137,o),
(192,136,cs),
(188,135,o),
(185,137,o),
(181,136,c)
);
},
{
closed = 1;
nodes = (
(155,62,o),
(156,79,o),
(158,83,cs),
(162,92,o),
(175,97,o),
(185,96,cs),
(200,94,o),
(209,78,o),
(204,63,c),
(203,62,o),
(200,56,o),
(200,55,c),
(199,53,o),
(199,50,o),
(196,50,cs),
(191,50,o),
(163,50,o),
(158,49,cs),
(154,49,o),
(154,54,o),
(155,58,cs)
);
}
);
width = 614;
}
);
note = B;
unicode = 66;
},
{
glyphname = C;
layers = (
{
layerId = m01;
shapes = (
{
closed = 1;
nodes = (
(287,5,o),
(291,6,o),
(294,6,cs),
(328,2,o),
(364,3,o),
(397,12,cs),
(453,26,o),
(510,49,o),
(554,87,cs),
(560,92,o),
(586,115,o),
(591,122,cs),
(602,138,o),
(587,159,o),
(568,155,c),
(564,155,o),
(548,145,o),
(545,144,cs),
(499,122,o),
(454,98,o),
(407,82,cs),
(378,72,o),
(348,66,o),
(318,64,c),
(315,71,o),
(310,77,o),
(307,84,cs),
(295,107,o),
(282,212,o),
(279,238,cs),
(275,282,o),
(275,327,o),
(276,372,cs),
(276,388,o),
(280,483,o),
(281,499,cs),
(285,551,o),
(295,601,o),
(303,652,c),
(316,656,o),
(330,659,o),
(344,659,cs),
(357,659,o),
(369,656,o),
(382,652,cs),
(423,642,o),
(463,624,o),
(501,604,cs),
(515,597,o),
(565,568,o),
(581,568,cs),
(600,568,o),
(612,588,o),
(604,604,c),
(602,610,o),
(583,630,o),
(578,634,cs),
(549,662,o),
(513,682,o),
(476,696,cs),
(453,706,o),
(428,714,o),
(403,718,cs),
(402,718,o),
(394,724,o),
(392,725,c),
(363,732,o),
(332,734,o),
(302,734,cs),
(292,734,o),
(280,734,o),
(273,727,c),
(270,726,o),
(256,719,o),
(254,718,c),
(248,717,o),
(224,708,o),
(219,705,cs),
(191,691,o),
(166,671,o),
(145,648,cs),
(125,628,o),
(107,607,o),
(93,582,cs),
(83,564,o),
(77,544,o),
(73,524,cs),
(66,494,o),
(62,462,o),
(59,431,cs),
(53,365,o),
(56,297,o),
(71,232,cs),
(75,216,o),
(76,198,o),
(80,181,cs),
(85,154,o),
(94,127,o),
(106,102,cs),
(120,75,o),
(137,49,o),
(160,32,cs),
(179,17,o),
(198,11,o),
(222,14,cs),
(224,14,o),
(229,12,o),
(230,11,c),
(233,10,o),
(249,5,o),
(253,4,cs),
(257,4,o),
(261,5,o),
(265,5,c),
(271,3,o),
(278,3,o),
(284,4,cs)
);
},
{
closed = 1;
nodes = (
(169,567,o),
(163,571,o),
(161,576,cs),
(159,583,o),
(161,591,o),
(163,598,cs),
(165,607,o),
(168,618,o),
(176,624,cs),
(181,628,o),
(189,627,o),
(197,628,cs),
(203,629,o),
(216,625,o),
(221,620,cs),
(223,618,o),
(225,614,o),
(225,610,cs),
(225,608,o),
(223,605,o),
(224,602,c),
(226,599,o),
(226,595,o),
(226,592,cs),
(226,590,o),
(228,588,o),
(229,587,c),
(231,581,o),
(229,572,o),
(224,568,cs),
(223,567,o),
(221,565,o),
(220,563,cs),
(218,560,o),
(210,557,o),
(207,556,c),
(196,555,o),
(185,563,o),
(175,565,cs)
);
},
{
closed = 1;
nodes = (
(118,433,o),
(120,455,o),
(127,463,cs),
(129,465,o),
(138,472,o),
(140,473,c),
(142,475,o),
(146,474,o),
(149,475,c),
(150,476,o),
(154,479,o),
(155,480,c),
(167,486,o),
(181,474,o),
(189,464,cs),
(194,458,o),
(201,451,o),
(202,443,cs),
(203,438,o),
(200,415,o),
(199,410,cs),
(198,399,o),
(192,386,o),
(181,386,cs),
(158,386,o),
(130,401,o),
(122,423,cs)
);
},
{
closed = 1;
nodes = (
(122,258,o),
(116,289,o),
(131,310,cs),
(135,316,o),
(136,323,o),
(142,327,cs),
(151,333,o),
(170,329,o),
(178,323,cs),
(185,318,o),
(193,313,o),
(195,306,cs),
(204,283,o),
(195,256,o),
(171,252,cs),
(167,251,o),
(151,252,o),
(147,253,cs)
);
},
{
closed = 1;
nodes = (
(171,128,o),
(161,136,o),
(158,145,c),
(158,146,o),
(157,152,o),
(156,153,c),
(156,154,o),
(152,161,o),
(151,162,c),
(148,172,o),
(153,194,o),
(159,202,cs),
(166,210,o),
(183,212,o),
(192,206,cs),
(195,204,o),
(197,200,o),
(201,198,cs),
(218,189,o),
(220,164,o),
(211,146,cs),
(208,139,o),
(203,133,o),
(197,129,cs),
(192,126,o),
(186,126,o),
(180,127,cs)
);
},
{
closed = 1;
nodes = (
(200,53,o),
(197,66,o),
(204,75,cs),
(206,77,o),
(218,84,o),
(221,85,c),
(230,90,o),
(241,88,o),
(252,87,cs),
(274,85,o),
(271,56,o),
(250,47,c),
(245,44,o),
(242,38,o),
(237,38,c),
(230,36,o),
(214,43,o),
(209,46,cs)
);
}
);
width = 639;
}
);
note = C;
unicode = (67,199);
},
{
glyphname = D;
kernLeft = B;
layers = (
{
layerId = m01;
shapes = (
{
closed = 1;
nodes = (
(260,11,o),
(262,15,o),
(264,14,cs),
(281,2,o),
(304,7,o),
(315,25,c),
(377,41,o),
(439,66,o),
(486,109,cs),
(523,143,o),
(552,185,o),
(573,231,cs),
(616,323,o),
(623,430,o),
(592,527,cs),
(580,564,o),
(559,600,o),
(532,627,cs),
(509,650,o),
(480,668,o),
(450,680,cs),
(395,702,o),
(335,710,o),
(277,708,cs),
(258,707,o),
(163,704,o),
(145,700,cs),
(140,699,o),
(135,696,o),
(133,691,c),
(132,690,o),
(130,691,o),
(128,691,cs),
(117,691,o),
(106,681,o),
(101,671,cs),
(93,652,o),
(85,561,o),
(83,541,cs),
(75,467,o),
(69,393,o),
(69,319,cs),
(69,244,o),
(75,169,o),
(84,94,cs),
(86,75,o),
(87,55,o),
(94,38,cs),
(100,25,o),
(113,13,o),
(127,11,cs),
(135,9,o),
(141,3,o),
(148,1,c),
(157,0,o),
(167,4,o),
(176,4,cs),
(182,4,o),
(187,-1,o),
(193,-3,cs),
(216,-13,o),
(242,-7,o),
(259,10,cs)
);
},
{
closed = 1;
nodes = (
(334,301,o),
(335,399,o),
(329,496,cs),
(325,549,o),
(318,602,o),
(311,655,c),
(361,651,o),
(412,644,o),
(458,623,cs),
(476,614,o),
(494,602,o),
(508,587,cs),
(537,558,o),
(555,517,o),
(564,477,cs),
(584,389,o),
(572,300,o),
(529,221,cs),
(510,186,o),
(484,154,o),
(454,129,cs),
(416,99,o),
(370,79,o),
(324,68,c),
(325,85,o),
(329,187,o),
(330,204,cs)
);
},
{
closed = 1;
nodes = (
(161,550,o),
(161,561,o),
(162,565,cs),
(162,566,o),
(163,573,o),
(163,574,cs),
(160,592,o),
(167,614,o),
(181,624,cs),
(189,629,o),
(200,627,o),
(209,626,cs),
(222,626,o),
(240,617,o),
(243,603,cs),
(245,590,o),
(247,576,o),
(243,564,cs),
(241,556,o),
(231,550,o),
(230,542,cs),
(229,537,o),
(220,532,o),
(215,529,cs),
(209,526,o),
(201,527,o),
(194,527,cs),
(181,527,o),
(167,535,o),
(163,547,c)
);
},
{
closed = 1;
nodes = (
(172,407,o),
(168,412,o),
(166,417,cs),
(165,419,o),
(166,423,o),
(164,425,cs),
(152,437,o),
(159,460,o),
(175,462,cs),
(179,463,o),
(187,473,o),
(191,476,cs),
(200,482,o),
(213,480,o),
(224,478,cs),
(231,477,o),
(238,473,o),
(241,466,c),
(241,465,o),
(242,459,o),
(242,458,c),
(243,457,o),
(248,453,o),
(250,452,c),
(254,448,o),
(254,436,o),
(252,431,cs),
(250,423,o),
(242,418,o),
(236,414,c),
(233,404,o),
(218,400,o),
(207,400,cs),
(197,400,o),
(185,399,o),
(176,405,cs)
);
},
{
closed = 1;
nodes = (
(174,288,o),
(163,299,o),
(163,307,cs),
(163,333,o),
(178,360,o),
(205,360,cs),
(207,360,o),
(221,360,o),
(223,360,cs),
(231,359,o),
(245,352,o),
(248,345,c),
(248,343,o),
(249,333,o),
(250,331,c),
(250,330,o),
(254,324,o),
(255,323,c),
(257,316,o),
(255,308,o),
(254,301,cs),
(252,291,o),
(242,283,o),
(233,279,cs),
(221,273,o),
(192,277,o),
(180,284,cs)
);
},
{
closed = 1;
nodes = (
(164,183,o),
(167,195,o),
(172,203,cs),
(178,211,o),
(180,223,o),
(188,228,cs),
(199,234,o),
(215,232,o),
(225,226,cs),
(240,216,o),
(248,201,o),
(248,184,cs),
(248,175,o),
(243,164,o),
(234,163,cs),
(227,162,o),
(219,164,o),
(211,164,cs),
(210,164,o),
(209,162,o),
(208,161,cs),
(206,159,o),
(203,157,o),
(199,156,cs),
(188,155,o),
(172,164,o),
(167,175,cs)
);
},
{
closed = 1;
nodes = (
(177,72,o),
(179,85,o),
(186,94,cs),
(190,98,o),
(200,105,o),
(206,106,cs),
(218,107,o),
(237,105,o),
(241,93,cs),
(242,91,o),
(246,90,o),
(247,87,c),
(257,70,o),
(242,47,o),
(221,45,cs),
(206,44,o),
(184,47,o),
(180,62,cs)
);
}
);
width = 657;
}
);
note = D;
unicode = 68;
},
{
glyphname = E;
kernLeft = B;
layers = (
{
layerId = m01;
shapes = (
{
closed = 1;
nodes = (
(454,-7,o),
(465,-5,o),
(475,0,cs),
(499,10,o),
(495,42,o),
(468,43,cs),
(462,43,o),
(425,40,o),
(418,39,cs),
(372,35,o),
(325,32,o),
(279,31,cs),
(276,31,o),
(276,31,o),
(277,34,cs),
(281,44,o),
(283,54,o),
(285,64,cs),
(297,152,o),
(293,242,o),
(288,331,c),
(308,330,o),
(431,326,o),
(451,325,cs),
(455,325,o),
(472,324,o),
(475,324,cs),
(508,326,o),
(507,374,o),
(474,374,cs),
(451,374,o),
(311,381,o),
(288,381,cs),
(285,381,o),
(285,382,o),
(285,384,cs),
(283,416,o),
(280,447,o),
(275,479,cs),
(273,491,o),
(260,565,o),
(258,577,cs),
(254,604,o),
(249,630,o),
(239,655,c),
(276,658,o),
(314,659,o),
(351,658,cs),
(365,658,o),
(446,653,o),
(459,654,cs),
(470,654,o),
(482,653,o),
(491,659,cs),
(502,666,o),
(502,682,o),
(492,690,cs),
(484,696,o),
(473,697,o),
(463,698,cs),
(359,710,o),
(252,706,o),
(148,691,cs),
(146,691,o),
(143,691,o),
(140,692,cs),
(116,702,o),
(104,669,o),
(99,643,cs),
(92,604,o),
(80,565,o),
(76,525,cs),
(64,424,o),
(63,321,o),
(72,220,cs),
(74,194,o),
(85,86,o),
(96,62,cs),
(101,52,o),
(110,42,o),
(120,36,c),
(120,22,o),
(126,11,o),
(139,2,cs),
(146,-3,o),
(154,-6,o),
(161,-9,cs),
(198,-23,o),
(239,-23,o),
(279,-23,cs),
(334,-23,o),
(389,-20,o),
(443,-9,cs)
);
},
{
closed = 1;
nodes = (
(141,603,o),
(145,609,o),
(147,616,cs),
(150,623,o),
(154,631,o),
(161,634,c),
(162,634,o),
(164,636,o),
(165,637,cs),
(181,648,o),
(202,634,o),
(205,614,cs),
(206,610,o),
(203,598,o),
(201,595,cs),
(197,586,o),
(193,576,o),
(185,571,cs),
(166,562,o),
(140,577,o),
(141,596,cs)
);
},
{
closed = 1;
nodes = (
(125,440,o),
(138,479,o),
(170,485,cs),
(184,487,o),
(201,478,o),
(205,465,cs),
(208,457,o),
(201,448,o),
(202,440,cs),
(202,434,o),
(197,421,o),
(194,417,cs),
(182,403,o),
(159,402,o),
(147,416,cs)
);
},
{
closed = 1;
nodes = (
(139,335,o),
(153,359,o),
(171,362,cs),
(183,364,o),
(199,353,o),
(204,342,cs),
(207,335,o),
(206,325,o),
(204,317,cs),
(202,308,o),
(195,299,o),
(187,293,cs),
(167,280,o),
(138,292,o),
(138,316,cs)
);
},
{
closed = 1;
nodes = (
(149,192,o),
(147,198,o),
(148,203,c),
(149,222,o),
(162,242,o),
(181,239,cs),
(195,238,o),
(211,227,o),
(211,214,cs),
(211,198,o),
(195,182,o),
(180,177,cs),
(172,174,o),
(158,182,o),
(152,189,cs)
);
},
{
closed = 1;
nodes = (
(176,63,o),
(165,65,o),
(160,73,cs),
(152,84,o),
(156,104,o),
(165,115,cs),
(169,119,o),
(180,126,o),
(186,126,cs),
(198,127,o),
(216,118,o),
(220,107,cs),
(226,92,o),
(216,71,o),
(203,63,cs),
(197,60,o),
(191,62,o),
(185,62,cs)
);
}
);
width = 538;
}
);
note = E;
unicode = (69,200,201,202,203);
},
{
glyphname = F;
kernLeft = F;
layers = (
{
layerId = m01;
shapes = (
{
closed = 1;
nodes = (
(233,28,o),
(240,46,o),
(246,63,cs),
(260,106,o),
(267,151,o),
(274,196,cs),
(282,250,o),
(288,303,o),
(292,357,c),
(347,359,o),
(402,359,o),
(457,361,cs),
(465,361,o),
(498,362,o),
(505,364,cs),
(542,374,o),
(531,423,o),
(493,422,cs),
(427,419,o),
(361,415,o),
(294,411,c),
(296,469,o),
(290,528,o),
(273,584,cs),
(265,609,o),
(256,635,o),
(242,658,c),
(331,660,o),
(421,659,o),
(509,670,cs),
(512,670,o),
(522,677,o),
(525,677,cs),
(538,677,o),
(544,694,o),
(534,703,c),
(532,704,o),
(525,708,o),
(524,709,cs),
(519,715,o),
(511,718,o),
(504,718,cs),
(465,718,o),
(250,703,o),
(211,699,c),
(195,713,o),
(175,714,o),
(157,702,cs),
(155,701,o),
(148,704,o),
(146,704,cs),
(134,704,o),
(123,693,o),
(117,682,cs),
(93,631,o),
(82,574,o),
(75,518,cs),
(62,410,o),
(59,300,o),
(73,192,cs),
(78,149,o),
(90,105,o),
(113,68,cs),
(126,47,o),
(142,27,o),
(163,14,cs),
(180,3,o),
(203,5,o),
(219,17,cs)
);
},
{
closed = 1;
nodes = (
(145,517,o),
(144,528,o),
(143,536,cs),
(142,546,o),
(143,564,o),
(152,568,cs),
(154,569,o),
(157,569,o),
(158,571,c),
(169,585,o),
(191,588,o),
(201,574,cs),
(208,564,o),
(205,541,o),
(201,531,cs),
(199,527,o),
(192,516,o),
(188,513,cs),
(186,512,o),
(174,508,o),
(171,507,cs),
(165,505,o),
(158,510,o),
(152,513,cs)
);
},
{
closed = 1;
nodes = (
(140,394,o),
(141,407,o),
(142,417,cs),
(143,427,o),
(152,440,o),
(162,443,cs),
(173,445,o),
(191,441,o),
(197,431,cs),
(200,425,o),
(198,407,o),
(197,401,cs),
(193,379,o),
(162,370,o),
(147,386,cs)
);
},
{
closed = 1;
nodes = (
(131,279,o),
(133,287,o),
(134,294,cs),
(136,307,o),
(146,321,o),
(159,321,cs),
(167,321,o),
(175,322,o),
(183,318,cs),
(208,306,o),
(205,273,o),
(183,256,cs),
(178,252,o),
(171,252,o),
(166,252,cs),
(153,252,o),
(136,261,o),
(133,272,cs)
);
},
{
closed = 1;
nodes = (
(137,160,o),
(136,177,o),
(141,187,cs),
(143,191,o),
(148,196,o),
(153,196,c),
(156,197,o),
(162,206,o),
(165,208,cs),
(176,214,o),
(192,209,o),
(196,198,cs),
(201,184,o),
(192,162,o),
(179,154,c),
(171,151,o),
(154,150,o),
(147,154,cs)
);
},
{
closed = 1;
nodes = (
(155,71,o),
(154,83,o),
(156,88,cs),
(157,91,o),
(158,92,o),
(159,95,cs),
(164,108,o),
(181,113,o),
(190,102,cs),
(197,93,o),
(194,77,o),
(188,68,cs),
(181,59,o),
(166,58,o),
(159,66,cs)
);
}
);
width = 564;
}
);
note = F;
unicode = 70;
},
{
glyphname = G;
layers = (
{
layerId = m01;
shapes = (
{
closed = 1;
nodes = (
(483,35,o),
(510,69,o),
(532,104,cs),
(555,140,o),
(576,178,o),
(588,219,cs),
(597,247,o),
(600,277,o),
(595,306,cs),
(595,307,o),
(595,309,o),
(596,310,cs),
(619,339,o),
(572,362,o),
(536,359,cs),
(479,355,o),
(422,357,o),
(365,354,cs),
(351,353,o),
(337,357,o),
(325,352,cs),
(311,346,o),
(314,326,o),
(328,321,cs),
(357,310,o),
(506,301,o),
(536,297,c),
(534,258,o),
(517,221,o),
(499,186,cs),
(481,150,o),
(460,114,o),
(432,85,cs),
(409,60,o),
(377,42,o),
(345,35,c),
(335,64,o),
(323,92,o),
(315,121,cs),
(271,273,o),
(267,444,o),
(312,595,cs),
(319,618,o),
(327,641,o),
(335,664,c),
(364,668,o),
(396,667,o),
(421,654,cs),
(446,641,o),
(470,625,o),
(485,603,cs),
(504,575,o),
(515,542,o),
(535,515,cs),
(545,502,o),
(565,507,o),
(568,522,cs),
(569,527,o),
(565,547,o),
(565,552,cs),
(562,576,o),
(521,653,o),
(508,672,cs),
(495,691,o),
(472,704,o),
(450,707,cs),
(427,710,o),
(403,710,o),
(380,709,c),
(375,708,o),
(383,714,o),
(384,718,cs),
(385,720,o),
(383,720,o),
(381,719,c),
(337,715,o),
(293,712,o),
(251,698,cs),
(237,693,o),
(221,685,o),
(207,690,c),
(171,674,o),
(135,652,o),
(112,620,cs),
(79,574,o),
(66,516,o),
(55,461,cs),
(53,451,o),
(51,401,o),
(51,391,cs),
(52,371,o),
(63,273,o),
(67,254,cs),
(68,248,o),
(80,218,o),
(82,212,cs),
(93,181,o),
(109,151,o),
(128,124,cs),
(142,103,o),
(153,78,o),
(170,59,cs),
(196,30,o),
(230,9,o),
(266,-7,cs),
(271,-9,o),
(298,-19,o),
(304,-21,cs),
(310,-22,o),
(317,-19,o),
(320,-12,c),
(353,-35,o),
(417,-13,o),
(450,10,cs)
);
},
{
closed = 1;
nodes = (
(181,553,o),
(180,563,o),
(180,566,c),
(181,568,o),
(178,569,o),
(178,571,cs),
(176,582,o),
(182,592,o),
(192,596,c),
(193,596,o),
(193,598,o),
(194,599,cs),
(200,605,o),
(210,606,o),
(218,605,cs),
(224,604,o),
(229,600,o),
(231,594,cs),
(232,591,o),
(231,588,o),
(231,586,cs),
(231,585,o),
(233,583,o),
(233,582,c),
(235,576,o),
(237,568,o),
(234,562,c),
(231,552,o),
(215,538,o),
(205,535,cs),
(196,533,o),
(185,542,o),
(181,551,c)
);
},
{
closed = 1;
nodes = (
(151,407,o),
(136,418,o),
(140,430,cs),
(142,435,o),
(147,439,o),
(151,444,cs),
(152,446,o),
(152,449,o),
(153,451,cs),
(157,460,o),
(168,469,o),
(178,468,c),
(179,467,o),
(181,466,o),
(182,467,c),
(199,475,o),
(219,469,o),
(225,452,c),
(227,449,o),
(228,438,o),
(226,434,cs),
(224,429,o),
(211,415,o),
(207,411,c),
(196,403,o),
(174,393,o),
(162,400,cs)
);
},
{
closed = 1;
nodes = (
(142,277,o),
(139,284,o),
(138,285,c),
(135,291,o),
(138,300,o),
(141,306,cs),
(142,308,o),
(143,310,o),
(143,312,cs),
(143,323,o),
(156,338,o),
(166,342,cs),
(174,345,o),
(183,347,o),
(191,345,cs),
(199,343,o),
(215,330,o),
(219,324,cs),
(236,297,o),
(209,271,o),
(178,265,cs),
(166,263,o),
(151,266,o),
(143,276,cs)
);
},
{
closed = 1;
nodes = (
(171,168,o),
(173,174,o),
(173,179,cs),
(172,187,o),
(179,194,o),
(185,199,c),
(187,211,o),
(200,219,o),
(210,212,cs),
(212,211,o),
(215,206,o),
(217,206,cs),
(223,206,o),
(236,197,o),
(240,192,cs),
(257,174,o),
(234,151,o),
(209,144,cs),
(194,140,o),
(177,147,o),
(172,163,cs)
);
},
{
closed = 1;
nodes = (
(232,72,o),
(220,87,o),
(230,99,c),
(233,101,o),
(236,102,o),
(239,104,c),
(240,104,o),
(242,108,o),
(243,108,c),
(258,123,o),
(280,101,o),
(266,84,c),
(267,80,o),
(268,76,o),
(267,73,cs),
(264,64,o),
(253,60,o),
(245,65,cs)
);
}
);
width = 648;
}
);
note = G;
unicode = 71;
},
{
glyphname = H;
kernLeft = B;
kernRight = H;
layers = (
{
layerId = m01;
shapes = (
{
closed = 1;
nodes = (
(256,49,o),
(255,58,o),
(254,68,cs),
(254,73,o),
(261,94,o),
(262,99,cs),
(275,152,o),
(278,208,o),
(281,263,cs),
(282,273,o),
(286,334,o),
(287,343,cs),
(287,345,o),
(288,346,o),
(290,346,cs),
(393,352,o),
(496,361,o),
(600,363,cs),
(602,363,o),
(602,362,o),
(602,360,cs),
(602,321,o),
(597,105,o),
(593,66,cs),
(592,56,o),
(590,45,o),
(593,34,cs),
(594,29,o),
(601,15,o),
(605,12,cs),
(620,1,o),
(635,17,o),
(641,34,cs),
(644,42,o),
(646,83,o),
(647,92,cs),
(654,169,o),
(658,247,o),
(658,325,cs),
(659,415,o),
(657,506,o),
(645,595,cs),
(641,620,o),
(634,644,o),
(627,668,cs),
(623,679,o),
(621,692,o),
(612,699,cs),
(600,709,o),
(581,702,o),
(578,687,cs),
(576,677,o),
(581,667,o),
(582,658,cs),
(595,573,o),
(600,487,o),
(602,401,c),
(497,399,o),
(393,387,o),
(289,378,c),
(292,433,o),
(291,488,o),
(286,544,cs),
(283,584,o),
(277,625,o),
(266,664,cs),
(261,683,o),
(251,703,o),
(235,716,cs),
(223,724,o),
(208,729,o),
(194,729,c),
(175,745,o),
(147,734,o),
(137,712,c),
(137,710,o),
(135,703,o),
(134,702,c),
(120,679,o),
(86,574,o),
(81,548,cs),
(76,523,o),
(74,498,o),
(71,473,cs),
(59,352,o),
(65,228,o),
(88,108,cs),
(91,88,o),
(97,69,o),
(104,50,cs),
(111,31,o),
(120,12,o),
(135,-1,cs),
(178,-35,o),
(240,-13,o),
(253,40,cs)
);
},
{
closed = 1;
nodes = (
(157,592,o),
(161,605,o),
(163,618,c),
(166,627,o),
(171,636,o),
(179,640,cs),
(187,645,o),
(199,643,o),
(208,639,cs),
(219,634,o),
(229,621,o),
(230,608,cs),
(232,594,o),
(220,571,o),
(207,564,cs),
(189,555,o),
(164,559,o),
(160,579,cs)
);
},
{
closed = 1;
nodes = (
(150,446,o),
(148,449,o),
(148,453,cs),
(149,479,o),
(177,500,o),
(203,493,cs),
(214,489,o),
(221,474,o),
(219,462,cs),
(217,444,o),
(203,427,o),
(187,420,cs),
(170,413,o),
(152,425,o),
(150,443,cs)
);
},
{
closed = 1;
nodes = (
(140,300,o),
(138,319,o),
(142,332,cs),
(146,344,o),
(154,357,o),
(166,361,cs),
(204,374,o),
(219,322,o),
(190,294,c),
(187,292,o),
(176,286,o),
(173,285,cs),
(166,282,o),
(157,287,o),
(151,292,cs)
);
},
{
closed = 1;
nodes = (
(140,184,o),
(139,189,o),
(139,190,c),
(122,211,o),
(143,238,o),
(169,240,cs),
(187,241,o),
(205,232,o),
(204,215,cs),
(204,200,o),
(188,176,o),
(175,169,cs),
(161,163,o),
(144,169,o),
(140,183,c)
);
},
{
closed = 1;
nodes = (
(148,99,o),
(157,112,o),
(170,115,cs),
(187,120,o),
(201,105,o),
(202,87,cs),
(203,71,o),
(188,51,o),
(173,46,cs),
(150,38,o),
(133,65,o),
(143,87,cs)
);
}
);
width = 730;
}
);
note = H;
unicode = 72;
},
{
glyphname = I;
kernRight = I;
layers = (
{
layerId = m01;
shapes = (
{
closed = 1;
nodes = (
(317,-6,o),
(448,-8,o),
(470,-8,cs),
(489,-7,o),
(529,-7,o),
(536,11,cs),
(539,19,o),
(532,26,o),
(525,29,cs),
(500,42,o),
(469,37,o),
(441,39,cs),
(436,39,o),
(407,43,o),
(402,44,cs),
(390,46,o),
(377,46,o),
(364,46,c),
(364,46,o),
(365,49,o),
(365,49,c),
(386,104,o),
(397,164,o),
(402,223,cs),
(414,353,o),
(389,486,o),
(354,612,c),
(352,613,o),
(346,627,o),
(345,629,c),
(343,631,o),
(337,639,o),
(336,640,cs),
(333,642,o),
(326,644,o),
(330,644,cs),
(345,644,o),
(436,645,o),
(451,645,cs),
(471,645,o),
(491,642,o),
(511,645,cs),
(525,647,o),
(543,649,o),
(552,661,c),
(562,671,o),
(546,682,o),
(533,686,cs),
(507,692,o),
(480,689,o),
(453,692,cs),
(432,694,o),
(317,693,o),
(295,693,cs),
(291,693,o),
(287,695,o),
(283,696,cs),
(274,698,o),
(264,698,o),
(255,695,cs),
(239,690,o),
(221,692,o),
(205,692,cs),
(161,692,o),
(118,694,o),
(75,695,cs),
(59,696,o),
(26,694,o),
(18,681,cs),
(12,671,o),
(28,664,o),
(39,660,cs),
(46,658,o),
(80,653,o),
(87,652,cs),
(132,647,o),
(177,646,o),
(222,645,cs),
(223,645,o),
(222,643,o),
(221,642,c),
(221,642,o),
(218,640,o),
(217,640,c),
(213,636,o),
(211,630,o),
(209,624,cs),
(208,619,o),
(210,614,o),
(208,609,cs),
(183,532,o),
(164,453,o),
(157,373,cs),
(152,316,o),
(155,258,o),
(159,201,cs),
(162,160,o),
(166,119,o),
(174,78,cs),
(177,65,o),
(180,52,o),
(186,39,c),
(165,38,o),
(68,34,o),
(48,27,cs),
(40,25,o),
(27,18,o),
(27,10,cs),
(27,-2,o),
(46,-7,o),
(57,-9,cs),
(92,-17,o),
(260,-8,o),
(296,-7,cs)
);
},
{
closed = 1;
nodes = (
(253,505,o),
(251,516,o),
(254,524,c),
(254,526,o),
(252,527,o),
(251,528,cs),
(244,539,o),
(249,554,o),
(262,558,cs),
(267,560,o),
(286,559,o),
(291,558,cs),
(323,553,o),
(315,511,o),
(286,498,cs),
(278,495,o),
(267,495,o),
(259,500,cs)
);
},
{
closed = 1;
nodes = (
(263,383,o),
(262,392,o),
(257,395,cs),
(246,401,o),
(247,416,o),
(256,424,cs),
(261,429,o),
(269,429,o),
(275,432,cs),
(291,440,o),
(306,424,o),
(304,406,cs),
(302,387,o),
(285,372,o),
(269,380,cs)
);
},
{
closed = 1;
nodes = (
(251,273,o),
(244,292,o),
(256,305,c),
(257,305,o),
(259,311,o),
(260,312,cs),
(264,317,o),
(273,320,o),
(280,318,c),
(286,318,o),
(302,314,o),
(305,309,c),
(317,297,o),
(306,275,o),
(289,270,cs),
(286,269,o),
(271,271,o),
(268,271,cs)
);
},
{
closed = 1;
nodes = (
(253,190,o),
(253,195,o),
(255,198,cs),
(260,205,o),
(272,205,o),
(281,204,cs),
(301,202,o),
(302,176,o),
(285,165,cs),
(270,154,o),
(247,169,o),
(252,186,cs)
);
},
{
closed = 1;
nodes = (
(247,57,o),
(247,65,o),
(249,71,cs),
(252,80,o),
(263,94,o),
(272,96,c),
(279,96,o),
(287,95,o),
(291,91,cs),
(299,83,o),
(296,69,o),
(289,61,c),
(286,56,o),
(282,50,o),
(277,48,cs),
(269,44,o),
(256,45,o),
(251,52,cs)
);
}
);
width = 573;
}
);
note = I;
unicode = (73,204,205,206,207);
},
{
glyphname = J;
kernRight = J;
layers = (
{
layerId = m01;
shapes = (
{
closed = 1;
nodes = (
(262,-15,o),
(287,-8,o),
(291,-7,cs),
(312,-4,o),
(334,1,o),
(352,12,cs),
(374,25,o),
(390,47,o),
(403,69,cs),
(428,110,o),
(439,158,o),
(445,206,cs),
(451,261,o),
(450,318,o),
(449,374,cs),
(448,434,o),
(446,494,o),
(440,553,cs),
(437,583,o),
(435,614,o),
(428,643,cs),
(427,646,o),
(429,648,o),
(429,650,cs),
(429,654,o),
(423,671,o),
(422,675,c),
(426,675,o),
(447,677,o),
(451,676,c),
(472,674,o),
(494,671,o),
(514,678,cs),
(521,680,o),
(533,686,o),
(533,694,cs),
(534,700,o),
(525,706,o),
(519,708,cs),
(503,715,o),
(485,716,o),
(468,714,cs),
(465,714,o),
(449,712,o),
(446,712,cs),
(408,711,o),
(186,700,o),
(148,697,cs),
(136,697,o),
(107,698,o),
(101,687,cs),
(96,678,o),
(113,674,o),
(124,673,cs),
(138,672,o),
(218,673,o),
(233,673,c),
(233,671,o),
(232,659,o),
(232,656,cs),
(232,655,o),
(235,650,o),
(234,649,c),
(232,611,o),
(233,573,o),
(234,535,cs),
(235,443,o),
(234,352,o),
(232,261,cs),
(231,211,o),
(230,162,o),
(225,113,cs),
(222,93,o),
(218,72,o),
(208,54,cs),
(205,49,o),
(194,31,o),
(190,28,cs),
(186,25,o),
(174,26,o),
(170,26,cs),
(148,27,o),
(124,34,o),
(106,47,cs),
(87,62,o),
(73,85,o),
(66,108,cs),
(64,116,o),
(63,125,o),
(61,133,cs),
(59,144,o),
(44,143,o),
(33,142,cs),
(28,141,o),
(21,139,o),
(22,135,cs),
(25,109,o),
(30,81,o),
(45,59,cs),
(60,37,o),
(81,19,o),
(106,9,cs),
(154,-10,o),
(208,-25,o),
(258,-15,c)
);
},
{
closed = 1;
nodes = (
(321,602,o),
(319,604,o),
(318,604,c),
(306,610,o),
(308,624,o),
(318,632,c),
(320,633,o),
(320,635,o),
(321,637,c),
(329,647,o),
(345,643,o),
(348,631,cs),
(348,630,o),
(349,628,o),
(350,627,cs),
(351,625,o),
(351,615,o),
(351,612,cs),
(350,596,o),
(332,589,o),
(322,601,cs)
);
},
{
closed = 1;
nodes = (
(311,488,o),
(312,504,o),
(316,510,cs),
(323,520,o),
(339,519,o),
(345,508,c),
(360,501,o),
(358,481,o),
(344,473,cs),
(334,466,o),
(317,471,o),
(313,481,cs)
);
},
{
closed = 1;
nodes = (
(311,365,o),
(317,386,o),
(333,383,c),
(333,383,o),
(337,382,o),
(338,382,cs),
(354,382,o),
(360,364,o),
(354,349,cs),
(347,333,o),
(325,335,o),
(318,350,cs)
);
},
{
closed = 1;
nodes = (
(312,216,o),
(312,232,o),
(314,237,cs),
(317,249,o),
(331,251,o),
(340,242,c),
(358,240,o),
(360,216,o),
(349,202,cs),
(339,189,o),
(319,196,o),
(314,211,cs)
);
},
{
closed = 1;
nodes = (
(296,89,o),
(296,96,o),
(293,101,cs),
(292,103,o),
(292,109,o),
(293,111,cs),
(294,115,o),
(297,117,o),
(298,121,cs),
(305,140,o),
(330,131,o),
(332,111,cs),
(332,102,o),
(328,86,o),
(320,82,cs),
(314,79,o),
(305,80,o),
(300,85,cs)
);
}
);
width = 556;
}
);
note = J;
unicode = 74;
},
{
glyphname = K;
kernLeft = B;
kernRight = K;
layers = (
{
layerId = m01;
shapes = (
{
closed = 1;
nodes = (
(262,24,o),
(266,78,o),
(269,90,cs),
(279,124,o),
(280,284,o),
(280,320,c),
(288,310,o),
(338,254,o),
(347,245,cs),
(403,181,o),
(461,120,o),
(521,60,cs),
(531,50,o),
(575,7,o),
(588,0,cs),
(592,-2,o),
(598,-2,o),
(603,-3,cs),
(625,-10,o),
(645,9,o),
(640,31,c),
(639,33,o),
(636,46,o),
(635,48,cs),
(633,52,o),
(622,65,o),
(619,68,cs),
(599,89,o),
(475,215,o),
(454,236,cs),
(435,255,o),
(321,368,o),
(301,386,c),
(299,387,o),
(298,389,o),
(300,390,c),
(344,446,o),
(392,500,o),
(442,550,cs),
(458,566,o),
(542,645,o),
(555,663,cs),
(561,672,o),
(568,682,o),
(568,692,cs),
(567,706,o),
(553,715,o),
(539,711,cs),
(529,708,o),
(522,701,o),
(515,694,cs),
(434,608,o),
(349,524,o),
(279,430,c),
(279,486,o),
(278,542,o),
(274,598,c),
(280,609,o),
(270,644,o),
(267,656,cs),
(264,667,o),
(257,676,o),
(248,683,cs),
(227,700,o),
(168,702,o),
(142,695,cs),
(128,691,o),
(114,688,o),
(103,679,cs),
(98,675,o),
(90,664,o),
(90,657,c),
(91,655,o),
(92,653,o),
(92,651,c),
(90,645,o),
(85,612,o),
(85,606,cs),
(85,603,o),
(86,590,o),
(86,588,cs),
(84,561,o),
(79,398,o),
(78,370,cs),
(74,258,o),
(72,146,o),
(77,34,cs),
(77,29,o),
(81,24,o),
(85,21,cs),
(89,18,o),
(94,15,o),
(97,11,cs),
(107,-5,o),
(145,-7,o),
(164,-7,c),
(168,-6,o),
(172,-7,o),
(176,-7,cs),
(198,-9,o),
(243,-4,o),
(255,14,cs)
);
},
{
closed = 1;
nodes = (
(155,599,o),
(158,611,o),
(162,614,cs),
(175,626,o),
(195,617,o),
(201,600,cs),
(207,585,o),
(199,568,o),
(183,570,cs),
(171,572,o),
(156,582,o),
(155,594,cs)
);
},
{
closed = 1;
nodes = (
(153,457,o),
(148,472,o),
(152,484,cs),
(153,487,o),
(155,490,o),
(155,493,cs),
(155,505,o),
(163,514,o),
(175,513,cs),
(184,512,o),
(196,510,o),
(202,502,cs),
(205,498,o),
(206,492,o),
(206,487,cs),
(208,470,o),
(194,454,o),
(176,455,cs),
(175,455,o),
(168,457,o),
(166,457,cs)
);
},
{
closed = 1;
nodes = (
(143,333,o),
(144,350,o),
(154,359,cs),
(158,363,o),
(164,363,o),
(169,363,cs),
(193,364,o),
(203,335,o),
(192,313,cs),
(180,290,o),
(146,294,o),
(144,320,cs)
);
},
{
closed = 1;
nodes = (
(136,215,o),
(147,238,o),
(161,246,cs),
(175,254,o),
(197,244,o),
(199,229,cs),
(201,213,o),
(200,192,o),
(185,189,c),
(182,189,o),
(178,190,o),
(176,189,cs),
(163,182,o),
(145,185,o),
(141,199,cs)
);
},
{
closed = 1;
nodes = (
(133,73,o),
(133,80,o),
(133,86,cs),
(133,97,o),
(137,110,o),
(145,118,cs),
(156,129,o),
(179,126,o),
(186,113,cs),
(195,97,o),
(184,74,o),
(169,63,cs),
(160,56,o),
(142,59,o),
(136,68,cs)
);
}
);
width = 657;
}
);
note = K;
unicode = 75;
},
{
glyphname = L;
layers = (
{
layerId = m01;
shapes = (
{
closed = 1;
nodes = (
(529,-25,o),
(539,-23,o),
(550,-21,cs),
(565,-19,o),
(583,-8,o),
(576,6,cs),
(572,16,o),
(559,19,o),
(549,23,cs),
(505,41,o),
(315,39,o),
(267,39,cs),
(263,39,o),
(266,47,o),
(271,50,cs),
(280,54,o),
(286,64,o),
(287,74,cs),
(290,119,o),
(298,388,o),
(299,434,cs),
(300,461,o),
(303,596,o),
(298,623,cs),
(297,627,o),
(295,631,o),
(296,635,cs),
(301,648,o),
(293,668,o),
(281,676,cs),
(261,690,o),
(214,689,o),
(193,676,cs),
(191,675,o),
(189,672,o),
(186,672,cs),
(166,675,o),
(138,671,o),
(126,654,cs),
(115,638,o),
(111,617,o),
(106,598,c),
(106,595,o),
(107,591,o),
(106,588,cs),
(99,557,o),
(91,526,o),
(87,494,cs),
(70,382,o),
(64,267,o),
(65,153,cs),
(65,133,o),
(68,34,o),
(72,14,cs),
(74,7,o),
(80,3,o),
(85,-1,cs),
(90,-6,o),
(95,-12,o),
(101,-16,cs),
(120,-29,o),
(162,-29,o),
(182,-17,c),
(183,-15,o),
(185,-14,o),
(187,-13,c),
(188,-13,o),
(197,-14,o),
(199,-14,cs),
(236,-13,o),
(445,-24,o),
(482,-26,cs),
(494,-27,o),
(506,-28,o),
(518,-27,cs)
);
},
{
closed = 1;
nodes = (
(178,586,o),
(179,596,o),
(180,597,c),
(182,601,o),
(185,603,o),
(188,605,cs),
(190,606,o),
(200,610,o),
(202,610,cs),
(214,612,o),
(226,606,o),
(227,594,cs),
(227,587,o),
(227,580,o),
(223,574,c),
(220,571,o),
(217,567,o),
(214,563,cs),
(211,559,o),
(205,558,o),
(200,557,cs),
(185,556,o),
(175,569,o),
(178,584,cs)
);
},
{
closed = 1;
nodes = (
(171,474,o),
(173,483,o),
(174,490,cs),
(175,497,o),
(176,505,o),
(181,509,cs),
(189,517,o),
(205,515,o),
(215,509,cs),
(223,503,o),
(223,489,o),
(219,479,cs),
(216,472,o),
(211,466,o),
(204,463,cs),
(195,458,o),
(181,459,o),
(175,468,cs)
);
},
{
closed = 1;
nodes = (
(160,346,o),
(162,359,o),
(165,370,cs),
(167,376,o),
(172,385,o),
(178,386,cs),
(185,386,o),
(193,388,o),
(200,385,cs),
(208,383,o),
(217,369,o),
(218,361,cs),
(220,344,o),
(212,329,o),
(198,323,cs),
(185,318,o),
(169,324,o),
(164,336,cs)
);
},
{
closed = 1;
nodes = (
(153,211,o),
(153,227,o),
(158,233,c),
(159,235,o),
(163,246,o),
(164,248,c),
(173,259,o),
(196,256,o),
(202,243,cs),
(206,233,o),
(200,212,o),
(192,204,cs),
(182,192,o),
(162,189,o),
(156,203,cs)
);
},
{
closed = 1;
nodes = (
(163,57,o),
(159,61,o),
(158,67,cs),
(156,78,o),
(158,93,o),
(167,101,cs),
(180,111,o),
(200,108,o),
(205,92,cs),
(208,80,o),
(204,64,o),
(195,56,cs),
(189,51,o),
(175,52,o),
(168,55,cs)
);
}
);
width = 584;
}
);
note = L;
unicode = 76;
},
{
glyphname = M;
kernLeft = B;
kernRight = M;
layers = (
{
layerId = m01;
shapes = (
{
closed = 1;
nodes = (
(236,-7,o),
(243,-4,o),
(245,-4,c),
(253,0,o),
(262,6,o),
(265,14,cs),
(268,21,o),
(271,54,o),
(272,62,cs),
(285,177,o),
(280,295,o),
(271,411,c),
(276,398,o),
(308,319,o),
(313,306,cs),
(344,229,o),
(376,153,o),
(413,79,cs),
(414,77,o),
(416,75,o),
(418,73,c),
(421,66,o),
(438,31,o),
(440,24,cs),
(441,18,o),
(454,12,o),
(459,10,cs),
(467,7,o),
(482,7,o),
(489,13,c),
(491,16,o),
(490,20,o),
(492,23,c),
(493,26,o),
(498,40,o),
(499,43,cs),
(508,63,o),
(552,183,o),
(560,204,cs),
(588,277,o),
(619,350,o),
(653,421,c),
(649,397,o),
(644,271,o),
(644,246,cs),
(645,215,o),
(647,54,o),
(652,23,cs),
(655,7,o),
(673,-6,o),
(689,-9,cs),
(718,-14,o),
(749,-21,o),
(776,-11,cs),
(779,-10,o),
(782,-8,o),
(786,-8,cs),
(801,-8,o),
(820,-4,o),
(828,8,cs),
(830,11,o),
(830,23,o),
(830,26,cs),
(834,73,o),
(840,120,o),
(839,168,cs),
(839,309,o),
(830,450,o),
(813,591,cs),
(813,592,o),
(814,594,o),
(814,596,cs),
(813,601,o),
(810,630,o),
(809,634,cs),
(809,636,o),
(807,641,o),
(807,642,cs),
(808,658,o),
(786,664,o),
(771,666,c),
(755,677,o),
(726,676,o),
(713,662,cs),
(698,647,o),
(696,623,o),
(687,604,cs),
(646,521,o),
(601,440,o),
(564,355,cs),
(525,267,o),
(490,176,o),
(464,83,c),
(461,90,o),
(458,96,o),
(455,103,cs),
(434,149,o),
(414,195,o),
(395,242,cs),
(349,357,o),
(307,475,o),
(248,584,cs),
(246,587,o),
(243,598,o),
(243,601,cs),
(243,602,o),
(244,608,o),
(244,609,cs),
(242,618,o),
(235,647,o),
(227,653,cs),
(225,655,o),
(216,661,o),
(215,663,cs),
(213,666,o),
(214,674,o),
(214,677,c),
(216,686,o),
(205,695,o),
(197,699,cs),
(173,711,o),
(129,710,o),
(110,691,cs),
(92,673,o),
(85,598,o),
(83,573,cs),
(68,402,o),
(68,229,o),
(86,58,cs),
(87,49,o),
(88,38,o),
(94,32,cs),
(99,26,o),
(107,24,o),
(111,18,c),
(111,17,o),
(114,10,o),
(115,9,c),
(123,-5,o),
(143,-8,o),
(159,-9,c),
(178,-27,o),
(214,-24,o),
(235,-8,cs)
);
},
{
closed = 1;
nodes = (
(712,537,o),
(711,560,o),
(712,564,c),
(712,570,o),
(717,577,o),
(722,579,c),
(723,579,o),
(729,579,o),
(730,580,cs),
(739,587,o),
(756,585,o),
(764,577,c),
(779,572,o),
(780,555,o),
(771,541,cs),
(768,536,o),
(755,522,o),
(749,520,cs),
(735,515,o),
(714,517,o),
(712,532,cs)
);
},
{
closed = 1;
nodes = (
(138,531,o),
(134,544,o),
(139,552,c),
(141,554,o),
(140,558,o),
(141,561,cs),
(147,578,o),
(182,572,o),
(184,553,cs),
(185,543,o),
(186,533,o),
(182,525,cs),
(175,510,o),
(155,511,o),
(144,524,cs)
);
},
{
closed = 1;
nodes = (
(721,412,o),
(720,431,o),
(720,435,cs),
(718,450,o),
(734,455,o),
(748,452,c),
(753,450,o),
(758,446,o),
(759,441,cs),
(761,431,o),
(758,410,o),
(751,402,cs),
(741,393,o),
(726,396,o),
(722,408,cs)
);
},
{
closed = 1;
nodes = (
(147,401,o),
(148,412,o),
(155,419,c),
(161,436,o),
(183,432,o),
(184,413,c),
(185,412,o),
(187,408,o),
(188,407,c),
(189,402,o),
(187,396,o),
(184,391,c),
(182,389,o),
(181,385,o),
(179,383,cs),
(169,374,o),
(154,381,o),
(154,395,c)
);
},
{
closed = 1;
nodes = (
(705,301,o),
(719,316,o),
(730,328,cs),
(733,331,o),
(743,332,o),
(747,332,cs),
(767,332,o),
(768,307,o),
(759,289,cs),
(758,287,o),
(752,278,o),
(750,277,c),
(747,274,o),
(741,274,o),
(737,273,cs),
(724,269,o),
(707,271,o),
(706,284,cs)
);
},
{
closed = 1;
nodes = (
(156,252,o),
(153,256,o),
(151,260,cs),
(148,268,o),
(149,286,o),
(154,293,cs),
(159,300,o),
(171,300,o),
(180,299,cs),
(193,297,o),
(195,280,o),
(194,267,cs),
(194,265,o),
(195,262,o),
(195,260,cs),
(195,243,o),
(174,242,o),
(160,250,cs)
);
},
{
closed = 1;
nodes = (
(718,164,o),
(718,187,o),
(720,198,cs),
(721,203,o),
(725,207,o),
(730,209,cs),
(732,210,o),
(734,212,o),
(737,213,c),
(743,218,o),
(754,219,o),
(760,214,cs),
(771,205,o),
(763,181,o),
(757,167,cs),
(751,154,o),
(737,148,o),
(726,157,cs)
);
},
{
closed = 1;
nodes = (
(154,149,o),
(152,163,o),
(163,167,cs),
(174,172,o),
(192,169,o),
(198,158,cs),
(201,154,o),
(201,141,o),
(199,136,cs),
(193,117,o),
(167,121,o),
(159,139,cs)
);
},
{
closed = 1;
nodes = (
(728,57,o),
(726,71,o),
(727,76,cs),
(732,94,o),
(765,84,o),
(762,65,c),
(761,62,o),
(761,59,o),
(760,56,c),
(759,38,o),
(733,35,o),
(729,52,cs)
);
},
{
closed = 1;
nodes = (
(159,43,o),
(158,65,o),
(175,67,cs),
(177,67,o),
(187,68,o),
(189,68,cs),
(204,66,o),
(209,47,o),
(201,34,cs),
(196,24,o),
(179,22,o),
(171,31,cs)
);
}
);
width = 908;
}
);
note = M;
unicode = 77;
},
{
glyphname = N;
layers = (
{
layerId = m01;
shapes = (
{
closed = 1;
nodes = (
(290,32,o),
(291,39,o),
(292,47,cs),
(297,94,o),
(295,141,o),
(294,188,cs),
(291,274,o),
(286,360,o),
(273,445,c),
(332,346,o),
(399,251,o),
(468,158,cs),
(494,124,o),
(518,89,o),
(541,53,c),
(543,51,o),
(544,48,o),
(543,45,cs),
(542,42,o),
(543,38,o),
(544,35,c),
(545,34,o),
(544,30,o),
(543,29,c),
(543,22,o),
(550,17,o),
(555,14,cs),
(567,8,o),
(580,7,o),
(592,8,cs),
(596,8,o),
(595,8,o),
(596,5,cs),
(597,2,o),
(601,-1,o),
(604,-3,cs),
(617,-9,o),
(634,-9,o),
(647,-5,cs),
(666,2,o),
(711,13,o),
(715,33,cs),
(726,80,o),
(729,128,o),
(732,176,cs),
(739,296,o),
(740,418,o),
(720,537,cs),
(714,571,o),
(708,606,o),
(693,637,c),
(694,644,o),
(683,661,o),
(679,667,cs),
(673,674,o),
(669,683,o),
(661,688,cs),
(653,693,o),
(641,692,o),
(631,689,c),
(616,701,o),
(590,703,o),
(574,692,cs),
(569,689,o),
(560,680,o),
(560,675,cs),
(560,673,o),
(560,671,o),
(559,670,cs),
(546,651,o),
(544,626,o),
(539,603,cs),
(525,531,o),
(522,457,o),
(523,384,cs),
(525,301,o),
(529,218,o),
(537,135,c),
(492,202,o),
(264,545,o),
(232,620,c),
(230,622,o),
(227,638,o),
(226,640,cs),
(225,643,o),
(220,645,o),
(218,647,cs),
(214,650,o),
(213,653,o),
(208,656,cs),
(200,661,o),
(190,663,o),
(181,666,cs),
(166,672,o),
(149,673,o),
(134,668,cs),
(128,666,o),
(118,660,o),
(117,654,c),
(117,654,o),
(117,651,o),
(116,650,cs),
(107,637,o),
(104,619,o),
(101,603,c),
(100,602,o),
(102,597,o),
(102,595,c),
(101,592,o),
(97,575,o),
(96,572,cs),
(74,458,o),
(69,342,o),
(67,226,cs),
(67,182,o),
(67,138,o),
(69,94,cs),
(69,86,o),
(71,52,o),
(74,45,cs),
(78,36,o),
(89,31,o),
(98,26,cs),
(102,24,o),
(107,24,o),
(110,21,c),
(122,13,o),
(138,11,o),
(153,12,c),
(159,-12,o),
(197,-11,o),
(222,-10,cs),
(246,-8,o),
(273,4,o),
(286,25,cs)
);
},
{
closed = 1;
nodes = (
(599,559,o),
(600,565,o),
(598,570,c),
(596,583,o),
(600,599,o),
(610,607,cs),
(612,609,o),
(622,612,o),
(624,613,cs),
(633,616,o),
(644,614,o),
(648,606,cs),
(651,600,o),
(649,579,o),
(649,573,cs),
(648,564,o),
(644,556,o),
(640,548,cs),
(632,532,o),
(603,536,o),
(600,553,cs)
);
},
{
closed = 1;
nodes = (
(147,539,o),
(146,540,o),
(145,542,c),
(143,553,o),
(147,566,o),
(158,567,cs),
(160,567,o),
(166,571,o),
(167,572,cs),
(170,574,o),
(180,574,o),
(183,574,cs),
(193,573,o),
(196,560,o),
(194,549,cs),
(194,547,o),
(193,534,o),
(192,532,cs),
(188,523,o),
(175,521,o),
(165,518,cs),
(154,515,o),
(145,526,o),
(147,538,cs)
);
},
{
closed = 1;
nodes = (
(601,448,o),
(600,461,o),
(607,467,cs),
(613,473,o),
(624,471,o),
(632,471,cs),
(653,471,o),
(652,442,o),
(636,428,cs),
(624,419,o),
(603,424,o),
(602,439,cs)
);
},
{
closed = 1;
nodes = (
(132,397,o),
(124,406,o),
(126,418,cs),
(128,427,o),
(133,434,o),
(139,440,c),
(139,441,o),
(140,447,o),
(140,448,c),
(142,453,o),
(143,459,o),
(147,462,cs),
(153,467,o),
(163,467,o),
(169,462,cs),
(170,461,o),
(174,455,o),
(176,454,cs),
(179,452,o),
(184,450,o),
(186,446,cs),
(191,438,o),
(188,419,o),
(184,411,cs),
(182,408,o),
(178,405,o),
(176,402,c),
(170,396,o),
(151,397,o),
(144,397,cs)
);
},
{
closed = 1;
nodes = (
(598,324,o),
(609,345,o),
(627,347,cs),
(638,349,o),
(652,345,o),
(655,334,cs),
(656,332,o),
(656,322,o),
(656,320,cs),
(658,296,o),
(625,290,o),
(610,310,cs)
);
},
{
closed = 1;
nodes = (
(134,287,o),
(133,303,o),
(133,308,cs),
(133,320,o),
(142,328,o),
(154,326,cs),
(159,325,o),
(166,327,o),
(171,326,c),
(178,323,o),
(183,318,o),
(185,312,cs),
(188,298,o),
(183,280,o),
(170,274,cs),
(159,270,o),
(143,273,o),
(136,283,cs)
);
},
{
closed = 1;
nodes = (
(608,204,o),
(602,232,o),
(624,235,cs),
(628,236,o),
(633,233,o),
(637,231,c),
(647,232,o),
(656,224,o),
(655,214,cs),
(655,211,o),
(654,201,o),
(652,198,cs),
(648,189,o),
(635,187,o),
(626,193,cs)
);
},
{
closed = 1;
nodes = (
(143,172,o),
(142,177,o),
(143,182,cs),
(144,188,o),
(149,191,o),
(151,196,cs),
(157,211,o),
(183,215,o),
(190,202,cs),
(199,188,o),
(189,167,o),
(176,157,cs),
(164,148,o),
(144,152,o),
(143,167,cs)
);
},
{
closed = 1;
nodes = (
(604,80,o),
(604,90,o),
(604,98,cs),
(603,110,o),
(615,117,o),
(626,113,c),
(627,113,o),
(630,112,o),
(631,112,cs),
(640,112,o),
(651,108,o),
(652,99,cs),
(653,88,o),
(652,75,o),
(644,68,cs),
(635,60,o),
(614,62,o),
(608,72,cs)
);
},
{
closed = 1;
nodes = (
(165,57,o),
(166,82,o),
(170,95,cs),
(173,106,o),
(186,107,o),
(196,103,c),
(206,110,o),
(220,107,o),
(223,95,cs),
(226,86,o),
(223,75,o),
(220,66,cs),
(214,47,o),
(192,37,o),
(176,49,cs)
);
}
);
width = 803;
}
);
note = N;
unicode = (78,209);
},
{
glyphname = O;
layers = (
{
layerId = m01;
shapes = (
{
closed = 1;
nodes = (
(447,9,o),
(492,31,o),
(526,63,cs),
(557,93,o),
(581,133,o),
(593,175,cs),
(615,251,o),
(623,331,o),
(622,411,cs),
(621,454,o),
(621,499,o),
(612,542,cs),
(607,563,o),
(602,584,o),
(592,603,cs),
(578,630,o),
(555,652,o),
(529,667,cs),
(491,689,o),
(448,698,o),
(405,705,cs),
(349,715,o),
(287,707,o),
(234,685,cs),
(185,664,o),
(141,627,o),
(111,584,cs),
(75,533,o),
(62,468,o),
(56,406,cs),
(48,315,o),
(53,218,o),
(90,135,cs),
(111,88,o),
(151,47,o),
(197,23,cs),
(260,-9,o),
(332,-17,o),
(401,-1,cs)
);
},
{
closed = 1;
nodes = (
(253,59,o),
(252,59,o),
(252,59,c),
(252,60,o),
(255,65,o),
(255,66,c),
(253,72,o),
(254,79,o),
(253,86,cs),
(251,92,o),
(244,132,o),
(243,139,cs),
(237,170,o),
(236,203,o),
(234,234,cs),
(229,302,o),
(228,370,o),
(232,438,cs),
(234,471,o),
(244,606,o),
(258,637,cs),
(259,640,o),
(258,646,o),
(261,648,cs),
(266,652,o),
(264,657,o),
(259,660,c),
(271,667,o),
(284,673,o),
(297,678,cs),
(301,679,o),
(313,675,o),
(317,675,c),
(355,668,o),
(393,660,o),
(430,649,cs),
(432,648,o),
(433,648,o),
(432,646,cs),
(430,642,o),
(427,627,o),
(427,623,cs),
(426,619,o),
(426,603,o),
(428,599,c),
(428,598,o),
(430,597,o),
(430,596,cs),
(433,522,o),
(435,447,o),
(430,374,cs),
(423,275,o),
(407,178,o),
(392,80,c),
(392,76,o),
(396,72,o),
(398,68,c),
(399,63,o),
(403,59,o),
(407,56,c),
(392,48,o),
(375,42,o),
(358,39,cs),
(323,32,o),
(284,41,o),
(254,58,c)
);
},
{
closed = 1;
nodes = (
(495,567,o),
(485,567,o),
(481,571,cs),
(469,582,o),
(476,611,o),
(491,615,cs),
(502,617,o),
(514,617,o),
(523,611,cs),
(537,602,o),
(537,577,o),
(532,561,cs),
(530,556,o),
(521,551,o),
(515,551,cs),
(508,551,o),
(500,555,o),
(497,562,cs)
);
},
{
closed = 1;
nodes = (
(147,501,o),
(138,508,o),
(136,513,cs),
(133,525,o),
(132,542,o),
(144,547,cs),
(151,550,o),
(160,548,o),
(168,547,cs),
(174,546,o),
(179,535,o),
(180,528,cs),
(182,521,o),
(173,508,o),
(167,503,cs),
(163,500,o),
(157,498,o),
(152,499,cs)
);
},
{
closed = 1;
nodes = (
(499,476,o),
(502,478,o),
(501,481,c),
(501,488,o),
(501,495,o),
(503,501,cs),
(511,518,o),
(536,513,o),
(537,494,cs),
(537,490,o),
(542,487,o),
(543,483,cs),
(545,477,o),
(541,470,o),
(537,464,c),
(536,457,o),
(531,450,o),
(524,448,c),
(521,446,o),
(517,446,o),
(513,446,cs),
(499,445,o),
(493,461,o),
(498,473,cs)
);
},
{
closed = 1;
nodes = (
(111,402,o),
(119,408,o),
(120,411,c),
(120,416,o),
(124,422,o),
(129,424,cs),
(133,426,o),
(138,424,o),
(141,427,c),
(148,430,o),
(161,432,o),
(167,428,cs),
(174,423,o),
(175,412,o),
(170,405,cs),
(168,402,o),
(165,399,o),
(164,396,c),
(163,387,o),
(149,377,o),
(141,374,c),
(139,372,o),
(126,371,o),
(124,371,cs),
(109,370,o),
(103,387,o),
(110,399,c)
);
},
{
closed = 1;
nodes = (
(482,347,o),
(481,369,o),
(481,376,cs),
(481,390,o),
(502,395,o),
(509,382,c),
(509,382,o),
(510,379,o),
(511,379,c),
(512,377,o),
(519,377,o),
(521,376,cs),
(538,369,o),
(540,345,o),
(525,334,cs),
(514,326,o),
(492,329,o),
(485,341,cs)
);
},
{
closed = 1;
nodes = (
(130,251,o),
(119,258,o),
(116,261,cs),
(108,269,o),
(106,283,o),
(110,293,cs),
(112,297,o),
(117,300,o),
(118,304,cs),
(122,313,o),
(133,316,o),
(142,311,cs),
(145,309,o),
(150,310,o),
(153,309,cs),
(184,299,o),
(166,241,o),
(134,250,cs)
);
},
{
closed = 1;
nodes = (
(470,207,o),
(468,220,o),
(469,228,c),
(472,238,o),
(479,246,o),
(481,256,cs),
(483,267,o),
(499,273,o),
(508,265,cs),
(509,264,o),
(513,265,o),
(514,265,cs),
(544,269,o),
(534,226,o),
(511,207,cs),
(502,200,o),
(485,198,o),
(476,203,cs)
);
},
{
closed = 1;
nodes = (
(132,158,o),
(132,178,o),
(132,183,cs),
(132,201,o),
(156,207,o),
(162,189,c),
(162,188,o),
(162,186,o),
(163,185,cs),
(173,178,o),
(167,162,o),
(161,151,cs),
(155,138,o),
(136,140,o),
(133,154,cs)
);
},
{
closed = 1;
nodes = (
(451,109,o),
(452,119,o),
(451,126,cs),
(449,145,o),
(472,153,o),
(484,139,c),
(485,137,o),
(488,138,o),
(490,137,cs),
(505,130,o),
(503,109,o),
(488,101,cs),
(480,96,o),
(464,98,o),
(457,104,cs)
);
},
{
closed = 1;
nodes = (
(160,84,o),
(167,102,o),
(181,103,cs),
(187,104,o),
(196,97,o),
(200,92,cs),
(211,74,o),
(181,55,o),
(169,72,cs)
);
}
);
width = 680;
}
);
note = O;
unicode = (79,210,211,212,213,214,216);
},
{
glyphname = P;
kernLeft = B;
kernRight = P;
layers = (
{
layerId = m01;
shapes = (
{
closed = 1;
nodes = (
(237,-10,o),
(243,-4,o),
(249,1,cs),
(252,3,o),
(266,12,o),
(269,15,cs),
(271,18,o),
(274,28,o),
(275,32,c),
(277,54,o),
(286,77,o),
(281,99,cs),
(281,100,o),
(281,101,o),
(281,102,cs),
(284,163,o),
(283,224,o),
(282,284,c),
(348,292,o),
(416,303,o),
(478,327,cs),
(519,343,o),
(559,365,o),
(586,399,cs),
(617,436,o),
(634,490,o),
(627,538,cs),
(623,573,o),
(601,606,o),
(574,628,cs),
(540,657,o),
(495,671,o),
(451,682,cs),
(405,694,o),
(357,702,o),
(309,706,cs),
(308,706,o),
(308,707,o),
(306,707,cs),
(291,707,o),
(202,708,o),
(187,708,cs),
(155,706,o),
(123,704,o),
(90,701,cs),
(87,701,o),
(86,693,o),
(85,690,cs),
(80,677,o),
(80,662,o),
(78,649,cs),
(78,647,o),
(79,645,o),
(79,643,cs),
(71,553,o),
(74,462,o),
(81,372,c),
(82,367,o),
(85,340,o),
(85,335,cs),
(82,239,o),
(77,142,o),
(84,45,cs),
(84,43,o),
(79,29,o),
(79,26,cs),
(79,20,o),
(88,6,o),
(92,1,cs),
(100,-9,o),
(112,-17,o),
(124,-21,cs),
(132,-24,o),
(139,-29,o),
(147,-32,cs),
(156,-34,o),
(165,-33,o),
(173,-31,c),
(192,-38,o),
(218,-30,o),
(232,-15,cs)
);
},
{
closed = 1;
nodes = (
(267,529,o),
(263,581,o),
(253,632,c),
(253,634,o),
(254,637,o),
(253,640,cs),
(251,653,o),
(247,667,o),
(243,680,c),
(314,675,o),
(385,666,o),
(453,647,cs),
(480,640,o),
(509,628,o),
(528,606,cs),
(540,592,o),
(548,575,o),
(552,557,cs),
(556,538,o),
(554,518,o),
(550,499,cs),
(545,471,o),
(534,443,o),
(518,420,cs),
(499,395,o),
(473,375,o),
(445,362,cs),
(394,338,o),
(336,328,o),
(280,320,c),
(277,373,o),
(274,425,o),
(271,477,cs)
);
},
{
closed = 1;
nodes = (
(136,606,o),
(133,611,o),
(133,616,cs),
(131,635,o),
(139,656,o),
(157,656,cs),
(174,655,o),
(194,643,o),
(195,626,cs),
(196,613,o),
(188,596,o),
(176,593,cs),
(166,590,o),
(147,595,o),
(140,602,cs)
);
},
{
closed = 1;
nodes = (
(140,482,o),
(141,494,o),
(141,497,cs),
(141,503,o),
(142,510,o),
(147,514,cs),
(152,519,o),
(154,527,o),
(160,532,cs),
(177,544,o),
(203,530,o),
(203,508,cs),
(203,490,o),
(194,469,o),
(177,468,cs),
(175,468,o),
(170,469,o),
(169,469,cs),
(167,469,o),
(166,467,o),
(165,467,c),
(156,463,o),
(143,471,o),
(141,480,c)
);
},
{
closed = 1;
nodes = (
(168,337,o),
(162,337,o),
(158,341,cs),
(151,348,o),
(153,367,o),
(157,376,cs),
(159,381,o),
(159,386,o),
(161,391,cs),
(162,396,o),
(165,399,o),
(169,402,cs),
(172,404,o),
(175,404,o),
(178,406,cs),
(189,415,o),
(212,412,o),
(221,400,c),
(227,394,o),
(225,383,o),
(224,375,cs),
(218,347,o),
(196,319,o),
(172,334,cs)
);
},
{
closed = 1;
nodes = (
(190,369,o),
(188,369,o),
(187,369,c),
(187,369,o),
(187,368,o),
(187,368,c),
(187,368,o),
(189,366,o),
(189,366,c),
(190,367,o),
(190,368,o),
(190,368,c)
);
},
{
closed = 1;
nodes = (
(162,200,o),
(153,207,o),
(151,215,cs),
(147,230,o),
(152,255,o),
(164,264,cs),
(166,265,o),
(167,267,o),
(168,269,c),
(175,276,o),
(186,281,o),
(195,278,cs),
(202,276,o),
(211,275,o),
(215,269,cs),
(220,261,o),
(219,251,o),
(216,242,cs),
(212,226,o),
(200,211,o),
(187,201,cs),
(182,197,o),
(176,198,o),
(170,199,cs)
);
},
{
closed = 1;
nodes = (
(170,69,o),
(165,72,o),
(164,73,c),
(164,73,o),
(159,75,o),
(158,75,c),
(152,78,o),
(149,87,o),
(150,93,cs),
(152,107,o),
(164,120,o),
(178,125,cs),
(192,129,o),
(210,122,o),
(212,107,cs),
(213,93,o),
(206,76,o),
(194,69,cs),
(187,65,o),
(178,66,o),
(171,69,c)
);
}
);
width = 658;
}
);
note = P;
unicode = 80;
},
{
glyphname = Q;
kernLeft = Q;
kernRight = Q;
layers = (
{
layerId = m01;
shapes = (
{
closed = 1;
nodes = (
(608,-83,o),
(616,-76,o),
(614,-67,cs),
(613,-64,o),
(602,-53,o),
(600,-51,cs),
(574,-17,o),
(547,15,o),
(520,47,c),
(540,62,o),
(559,80,o),
(568,102,cs),
(572,112,o),
(613,162,o),
(617,173,c),
(617,174,o),
(620,179,o),
(620,180,c),
(631,201,o),
(638,223,o),
(644,245,cs),
(649,261,o),
(648,278,o),
(649,295,cs),
(655,378,o),
(649,463,o),
(627,543,cs),
(617,579,o),
(600,615,o),
(575,643,cs),
(551,669,o),
(520,690,o),
(486,703,cs),
(442,720,o),
(392,727,o),
(344,721,cs),
(298,715,o),
(252,699,o),
(208,682,cs),
(196,677,o),
(180,670,o),
(187,659,cs),
(188,657,o),
(188,657,o),
(186,655,cs),
(168,641,o),
(154,624,o),
(141,606,cs),
(140,604,o),
(129,595,o),
(127,593,cs),
(120,586,o),
(96,558,o),
(93,548,c),
(92,548,o),
(92,543,o),
(91,543,c),
(73,511,o),
(65,472,o),
(61,436,cs),
(51,347,o),
(57,255,o),
(76,167,cs),
(85,123,o),
(101,78,o),
(130,43,cs),
(152,16,o),
(181,-4,o),
(213,-17,cs),
(256,-34,o),
(305,-34,o),
(351,-29,cs),
(374,-26,o),
(397,-23,o),
(418,-14,cs),
(434,-8,o),
(449,3,o),
(463,13,c),
(471,4,o),
(515,-48,o),
(523,-57,cs),
(527,-62,o),
(540,-80,o),
(545,-83,cs),
(560,-92,o),
(582,-91,o),
(599,-86,cs)
);
},
{
closed = 1;
nodes = (
(314,55,o),
(301,77,o),
(291,98,cs),
(269,140,o),
(259,189,o),
(252,236,cs),
(240,315,o),
(234,395,o),
(227,475,cs),
(225,497,o),
(215,579,o),
(223,599,cs),
(230,619,o),
(245,635,o),
(259,651,c),
(286,654,o),
(313,658,o),
(340,658,c),
(345,659,o),
(363,659,o),
(367,657,cs),
(374,654,o),
(398,634,o),
(403,628,cs),
(410,621,o),
(414,613,o),
(417,604,cs),
(419,596,o),
(424,552,o),
(425,544,cs),
(439,441,o),
(448,336,o),
(446,231,cs),
(446,201,o),
(444,170,o),
(439,140,c),
(425,154,o),
(412,169,o),
(396,180,cs),
(384,188,o),
(357,190,o),
(344,182,cs),
(334,176,o),
(342,163,o),
(348,152,cs),
(366,122,o),
(388,95,o),
(411,68,c),
(406,61,o),
(401,50,o),
(392,50,cs),
(383,51,o),
(374,51,o),
(366,49,cs),
(359,47,o),
(340,38,o),
(334,42,cs)
);
},
{
closed = 1;
nodes = (
(471,591,o),
(474,595,o),
(472,599,c),
(467,615,o),
(479,635,o),
(494,635,cs),
(512,636,o),
(528,619,o),
(527,601,cs),
(527,588,o),
(521,571,o),
(509,565,cs),
(493,557,o),
(474,570,o),
(472,588,c)
);
},
{
closed = 1;
nodes = (
(130,530,o),
(136,548,o),
(149,557,cs),
(156,561,o),
(160,570,o),
(167,572,cs),
(185,577,o),
(203,565,o),
(199,547,cs),
(195,526,o),
(184,501,o),
(163,492,cs),
(147,485,o),
(127,498,o),
(129,515,cs)
);
},
{
closed = 1;
nodes = (
(516,449,o),
(508,454,o),
(508,462,cs),
(508,469,o),
(511,476,o),
(514,483,cs),
(518,493,o),
(534,507,o),
(545,508,cs),
(556,510,o),
(572,503,o),
(575,492,cs),
(579,476,o),
(571,458,o),
(562,445,cs),
(558,438,o),
(552,431,o),
(545,429,cs),
(535,426,o),
(522,432,o),
(519,441,cs)
);
},
{
closed = 1;
nodes = (
(126,374,o),
(119,373,o),
(115,377,cs),
(110,382,o),
(111,392,o),
(113,399,cs),
(119,420,o),
(138,438,o),
(158,428,cs),
(163,425,o),
(172,415,o),
(172,409,c),
(174,396,o),
(167,372,o),
(157,365,cs),
(149,359,o),
(136,363,o),
(130,370,cs)
);
},
{
closed = 1;
nodes = (
(524,355,o),
(528,371,o),
(532,375,cs),
(536,380,o),
(550,390,o),
(556,391,cs),
(572,394,o),
(596,378,o),
(597,361,cs),
(597,352,o),
(590,331,o),
(583,324,cs),
(578,319,o),
(570,314,o),
(562,315,cs),
(545,316,o),
(526,332,o),
(525,349,cs)
);
},
{
closed = 1;
nodes = (
(138,244,o),
(136,245,o),
(134,245,c),
(105,253,o),
(120,295,o),
(149,303,cs),
(171,308,o),
(193,294,o),
(187,273,cs),
(183,261,o),
(178,247,o),
(167,241,cs),
(159,236,o),
(147,238,o),
(139,243,cs)
);
},
{
closed = 1;
nodes = (
(519,233,o),
(518,240,o),
(518,241,c),
(513,250,o),
(519,265,o),
(528,271,cs),
(541,279,o),
(563,272,o),
(571,260,cs),
(576,252,o),
(573,241,o),
(568,233,cs),
(557,213,o),
(531,213,o),
(519,232,c)
);
},
{
closed = 1;
nodes = (
(170,131,o),
(167,131,o),
(165,131,cs),
(152,130,o),
(139,137,o),
(139,150,cs),
(140,163,o),
(151,174,o),
(161,182,cs),
(162,183,o),
(168,193,o),
(169,194,cs),
(176,200,o),
(188,199,o),
(195,194,cs),
(196,193,o),
(199,193,o),
(200,192,c),
(225,185,o),
(211,152,o),
(191,135,cs),
(186,131,o),
(178,129,o),
(172,131,c)
);
},
{
closed = 1;
nodes = (
(495,141,o),
(492,143,o),
(491,146,cs),
(485,159,o),
(498,173,o),
(511,167,cs),
(517,165,o),
(524,162,o),
(527,156,cs),
(535,139,o),
(512,126,o),
(498,139,c)
);
},
{
closed = 1;
nodes = (
(213,61,o),
(216,68,o),
(218,75,cs),
(224,96,o),
(254,101,o),
(262,80,cs),
(266,70,o),
(258,54,o),
(249,47,cs),
(245,44,o),
(244,39,o),
(240,37,cs),
(228,30,o),
(211,39,o),
(212,53,cs)
);
}
);
width = 705;
}
);
note = Q;
unicode = 81;
},
{
glyphname = R;
kernLeft = B;
kernRight = R;
layers = (
{
layerId = m01;
shapes = (
{
closed = 1;
nodes = (
(188,-13,o),
(191,-15,o),
(195,-16,cs),
(208,-18,o),
(222,-20,o),
(236,-18,cs),
(251,-16,o),
(279,-8,o),
(284,7,cs),
(290,26,o),
(289,46,o),
(289,66,cs),
(287,142,o),
(285,219,o),
(282,295,c),
(294,296,o),
(306,296,o),
(317,298,c),
(322,298,o),
(328,301,o),
(330,297,c),
(331,292,o),
(336,289,o),
(337,284,c),
(344,265,o),
(391,187,o),
(401,170,cs),
(435,120,o),
(470,70,o),
(506,22,cs),
(510,16,o),
(529,4,o),
(536,2,cs),
(553,-3,o),
(581,-4,o),
(589,12,cs),
(590,14,o),
(593,19,o),
(592,21,c),
(588,37,o),
(572,48,o),
(562,61,cs),
(554,71,o),
(548,83,o),
(541,94,cs),
(524,121,o),
(431,270,o),
(411,295,c),
(410,297,o),
(410,299,o),
(409,301,cs),
(408,303,o),
(401,311,o),
(400,313,c),
(437,325,o),
(474,343,o),
(503,370,cs),
(523,388,o),
(538,412,o),
(548,437,cs),
(562,478,o),
(562,524,o),
(552,566,cs),
(543,601,o),
(520,633,o),
(493,657,cs),
(470,677,o),
(442,692,o),
(412,698,cs),
(352,711,o),
(290,711,o),
(229,706,cs),
(224,705,o),
(218,704,o),
(213,705,cs),
(199,706,o),
(167,702,o),
(158,691,c),
(156,690,o),
(155,690,o),
(153,691,c),
(143,692,o),
(131,690,o),
(124,683,cs),
(120,679,o),
(110,661,o),
(109,656,c),
(108,654,o),
(109,652,o),
(108,650,cs),
(100,630,o),
(95,608,o),
(91,587,cs),
(86,559,o),
(74,414,o),
(73,386,cs),
(70,265,o),
(69,143,o),
(84,23,cs),
(85,13,o),
(89,6,o),
(98,1,cs),
(101,-1,o),
(104,-1,o),
(106,-4,cs),
(113,-12,o),
(123,-16,o),
(133,-20,cs),
(146,-25,o),
(174,-24,o),
(185,-15,cs)
);
},
{
closed = 1;
nodes = (
(258,644,o),
(260,647,o),
(260,651,c),
(259,653,o),
(257,665,o),
(257,668,c),
(274,667,o),
(365,669,o),
(383,666,cs),
(426,659,o),
(465,620,o),
(481,579,cs),
(516,489,o),
(470,378,o),
(382,341,cs),
(350,328,o),
(315,323,o),
(281,320,c),
(279,365,o),
(267,597,o),
(258,641,c)
);
},
{
closed = 1;
nodes = (
(145,538,o),
(142,558,o),
(143,565,cs),
(143,570,o),
(152,579,o),
(156,582,cs),
(165,590,o),
(186,589,o),
(191,578,c),
(198,567,o),
(193,541,o),
(187,530,cs),
(180,514,o),
(157,517,o),
(148,532,cs)
);
},
{
closed = 1;
nodes = (
(149,425,o),
(147,437,o),
(153,445,cs),
(160,457,o),
(178,461,o),
(186,448,c),
(186,448,o),
(187,444,o),
(188,444,c),
(194,438,o),
(194,427,o),
(192,419,cs),
(191,415,o),
(191,411,o),
(189,407,c),
(177,392,o),
(151,395,o),
(150,415,cs)
);
},
{
closed = 1;
nodes = (
(147,286,o),
(147,299,o),
(149,306,c),
(149,309,o),
(152,312,o),
(152,315,cs),
(153,329,o),
(168,336,o),
(179,328,c),
(189,328,o),
(196,319,o),
(195,310,cs),
(195,302,o),
(193,293,o),
(187,287,c),
(188,278,o),
(180,270,o),
(170,271,cs),
(166,272,o),
(155,279,o),
(152,281,cs)
);
},
{
closed = 1;
nodes = (
(150,188,o),
(149,201,o),
(150,205,cs),
(155,226,o),
(184,229,o),
(193,209,cs),
(199,197,o),
(197,174,o),
(187,166,c),
(185,163,o),
(181,163,o),
(178,162,c),
(165,161,o),
(153,171,o),
(151,184,cs)
);
},
{
closed = 1;
nodes = (
(173,32,o),
(169,37,o),
(169,40,cs),
(167,56,o),
(161,72,o),
(168,87,cs),
(174,100,o),
(200,99,o),
(204,85,cs),
(206,74,o),
(210,62,o),
(205,53,c),
(205,53,o),
(205,53,o),
(205,53,c),
(209,36,o),
(191,23,o),
(176,30,cs)
);
}
);
width = 627;
}
);
note = R;
unicode = 82;
},
{
glyphname = S;
layers = (
{
layerId = m01;
shapes = (
{
closed = 1;
nodes = (
(374,-23,o),
(415,-16,o),
(447,5,cs),
(459,13,o),
(472,19,o),
(483,28,cs),
(489,32,o),
(495,37,o),
(500,42,cs),
(517,58,o),
(528,83,o),
(527,107,cs),
(526,132,o),
(519,156,o),
(509,180,cs),
(486,238,o),
(449,289,o),
(412,340,cs),
(365,403,o),
(317,464,o),
(269,525,cs),
(265,531,o),
(249,557,o),
(244,561,cs),
(241,563,o),
(237,563,o),
(235,565,c),
(227,577,o),
(211,622,o),
(210,637,cs),
(210,647,o),
(223,653,o),
(232,657,cs),
(246,663,o),
(262,663,o),
(277,660,cs),
(324,650,o),
(370,629,o),
(408,599,cs),
(426,585,o),
(444,569,o),
(456,550,cs),
(458,547,o),
(460,543,o),
(462,541,cs),
(476,526,o),
(501,539,o),
(496,559,cs),
(493,569,o),
(472,599,o),
(465,607,cs),
(438,637,o),
(405,664,o),
(369,683,cs),
(350,694,o),
(329,701,o),
(309,707,cs),
(284,715,o),
(255,719,o),
(230,711,cs),
(221,709,o),
(213,703,o),
(204,700,cs),
(201,699,o),
(185,697,o),
(182,696,c),
(167,694,o),
(125,682,o),
(115,670,c),
(104,665,o),
(93,659,o),
(84,651,cs),
(78,645,o),
(61,617,o),
(58,609,cs),
(46,578,o),
(49,542,o),
(57,510,c),
(57,508,o),
(61,499,o),
(61,497,c),
(81,452,o),
(113,413,o),
(146,376,cs),
(188,329,o),
(234,285,o),
(276,238,cs),
(305,207,o),
(335,174,o),
(349,134,cs),
(351,128,o),
(355,107,o),
(353,101,cs),
(349,86,o),
(326,52,o),
(312,44,cs),
(299,36,o),
(284,33,o),
(269,30,c),
(267,29,o),
(264,27,o),
(262,27,cs),
(235,28,o),
(208,34,o),
(185,46,cs),
(164,56,o),
(146,72,o),
(129,88,cs),
(110,106,o),
(96,131,o),
(88,156,c),
(87,162,o),
(86,169,o),
(82,175,cs),
(71,188,o),
(48,177,o),
(52,160,cs),
(64,107,o),
(100,58,o),
(143,24,cs),
(178,-3,o),
(223,-21,o),
(268,-24,cs),
(276,-25,o),
(285,-27,o),
(293,-28,cs),
(307,-29,o),
(321,-28,o),
(335,-26,cs)
);
},
{
closed = 1;
nodes = (
(113,575,o),
(117,597,o),
(124,608,cs),
(131,620,o),
(148,624,o),
(156,612,cs),
(161,603,o),
(158,581,o),
(154,572,cs),
(148,558,o),
(129,552,o),
(120,565,cs)
);
},
{
closed = 1;
nodes = (
(173,459,o),
(170,462,o),
(169,463,cs),
(163,467,o),
(160,480,o),
(162,488,cs),
(163,496,o),
(170,502,o),
(179,501,c),
(189,512,o),
(208,511,o),
(212,496,cs),
(213,490,o),
(211,483,o),
(209,477,c),
(209,476,o),
(210,474,o),
(210,473,cs),
(212,466,o),
(207,457,o),
(201,456,cs),
(194,454,o),
(178,452,o),
(173,458,c)
);
},
{
closed = 1;
nodes = (
(254,347,o),
(253,362,o),
(253,364,cs),
(253,370,o),
(258,376,o),
(263,377,c),
(265,378,o),
(271,384,o),
(273,385,cs),
(277,387,o),
(283,386,o),
(288,389,cs),
(296,394,o),
(309,387,o),
(310,376,cs),
(311,362,o),
(313,346,o),
(305,334,c),
(303,332,o),
(298,326,o),
(296,326,c),
(278,322,o),
(256,326,o),
(254,344,cs)
);
},
{
closed = 1;
nodes = (
(330,227,o),
(333,260,o),
(360,256,c),
(360,265,o),
(365,276,o),
(374,278,cs),
(381,279,o),
(389,280,o),
(395,275,cs),
(400,271,o),
(401,262,o),
(401,255,cs),
(401,243,o),
(396,223,o),
(384,219,cs),
(375,216,o),
(365,214,o),
(356,217,cs)
);
},
{
closed = 1;
nodes = (
(414,113,o),
(419,133,o),
(424,142,cs),
(433,155,o),
(456,151,o),
(459,135,cs),
(462,122,o),
(462,106,o),
(452,96,cs),
(442,86,o),
(425,91,o),
(419,104,cs)
);
}
);
width = 568;
}
);
note = S;
unicode = 83;
},
{
glyphname = T;
layers = (
{
layerId = m01;
shapes = (
{
closed = 1;
nodes = (
(405,60,o),
(420,194,o),
(425,249,cs),
(432,324,o),
(434,400,o),
(434,475,cs),
(433,541,o),
(431,608,o),
(415,672,c),
(438,673,o),
(561,676,o),
(583,678,cs),
(598,680,o),
(619,686,o),
(619,701,cs),
(619,716,o),
(597,722,o),
(583,724,cs),
(574,725,o),
(528,723,o),
(519,723,cs),
(404,721,o),
(289,719,o),
(175,709,cs),
(137,706,o),
(98,701,o),
(60,693,cs),
(48,691,o),
(18,684,o),
(12,673,cs),
(4,659,o),
(27,651,o),
(44,651,cs),
(66,651,o),
(87,655,o),
(109,657,cs),
(128,659,o),
(227,666,o),
(246,666,c),
(239,656,o),
(230,644,o),
(231,632,c),
(225,616,o),
(222,600,o),
(218,584,cs),
(213,554,o),
(209,524,o),
(206,495,cs),
(198,414,o),
(194,334,o),
(193,253,cs),
(193,205,o),
(194,72,o),
(227,38,cs),
(242,22,o),
(267,17,o),
(289,15,cs),
(312,14,o),
(338,18,o),
(358,30,cs)
);
},
{
closed = 1;
nodes = (
(311,571,o),
(309,574,o),
(309,578,cs),
(309,589,o),
(312,601,o),
(321,608,c),
(323,615,o),
(325,622,o),
(330,626,cs),
(337,631,o),
(348,629,o),
(352,621,cs),
(354,618,o),
(360,605,o),
(360,601,cs),
(361,590,o),
(356,578,o),
(350,569,cs),
(345,563,o),
(340,556,o),
(333,553,cs),
(323,550,o),
(311,557,o),
(311,568,cs)
);
},
{
closed = 1;
nodes = (
(315,439,o),
(311,445,o),
(309,445,c),
(296,448,o),
(292,468,o),
(303,476,cs),
(316,487,o),
(332,490,o),
(348,487,cs),
(357,485,o),
(364,475,o),
(361,466,c),
(361,464,o),
(358,454,o),
(357,453,c),
(352,444,o),
(343,437,o),
(333,436,cs),
(328,436,o),
(321,435,o),
(317,438,cs)
);
},
{
closed = 1;
nodes = (
(293,363,o),
(297,383,o),
(310,389,cs),
(316,392,o),
(323,391,o),
(329,389,c),
(353,385,o),
(358,356,o),
(347,334,cs),
(335,309,o),
(302,322,o),
(296,349,cs)
);
},
{
closed = 1;
nodes = (
(291,219,o),
(293,227,o),
(293,235,cs),
(292,247,o),
(298,262,o),
(311,261,cs),
(317,260,o),
(324,259,o),
(330,256,cs),
(341,249,o),
(343,234,o),
(336,223,cs),
(332,215,o),
(324,206,o),
(315,205,cs),
(308,204,o),
(299,206,o),
(295,212,cs)
);
},
{
closed = 1;
nodes = (
(289,122,o),
(290,132,o),
(295,141,c),
(297,143,o),
(297,147,o),
(299,150,cs),
(302,154,o),
(308,156,o),
(313,155,cs),
(322,154,o),
(331,148,o),
(334,139,cs),
(338,129,o),
(333,107,o),
(326,99,cs),
(313,84,o),
(287,93,o),
(288,112,cs)
);
}
);
width = 627;
}
);
note = T;
unicode = 84;
},
{
glyphname = U;
layers = (
{
layerId = m01;
shapes = (
{
closed = 1;
nodes = (
(388,-1,o),
(417,7,o),
(422,10,c),
(430,13,o),
(467,30,o),
(474,36,c),
(478,38,o),
(491,48,o),
(493,52,cs),
(496,57,o),
(500,60,o),
(503,65,cs),
(508,71,o),
(516,103,o),
(518,110,cs),
(547,213,o),
(550,321,o),
(558,427,cs),
(563,508,o),
(565,589,o),
(564,671,cs),
(564,677,o),
(564,711,o),
(564,717,cs),
(563,731,o),
(552,743,o),
(538,742,c),
(537,741,o),
(535,743,o),
(534,743,c),
(524,748,o),
(511,744,o),
(505,734,cs),
(496,717,o),
(495,646,o),
(495,627,cs),
(494,548,o),
(499,469,o),
(496,391,cs),
(495,363,o),
(485,226,o),
(479,200,cs),
(474,181,o),
(470,162,o),
(462,144,cs),
(453,121,o),
(444,96,o),
(425,81,cs),
(413,71,o),
(397,66,o),
(382,63,cs),
(359,60,o),
(334,63,o),
(311,69,cs),
(308,70,o),
(298,74,o),
(295,76,c),
(281,89,o),
(269,104,o),
(260,121,cs),
(242,152,o),
(240,190,o),
(237,226,cs),
(236,234,o),
(237,242,o),
(238,249,cs),
(238,255,o),
(234,282,o),
(234,287,cs),
(223,391,o),
(222,496,o),
(218,601,cs),
(217,621,o),
(219,692,o),
(208,709,cs),
(202,718,o),
(196,728,o),
(188,734,cs),
(159,759,o),
(112,753,o),
(91,721,cs),
(83,708,o),
(77,694,o),
(76,679,cs),
(66,597,o),
(66,515,o),
(68,433,cs),
(70,331,o),
(74,228,o),
(100,129,cs),
(102,123,o),
(112,90,o),
(115,84,cs),
(121,70,o),
(153,28,o),
(166,19,cs),
(175,13,o),
(184,9,o),
(193,3,cs),
(205,-3,o),
(217,-9,o),
(230,-12,cs),
(279,-23,o),
(332,-14,o),
(382,-3,cs)
);
},
{
closed = 1;
nodes = (
(113,626,o),
(123,654,o),
(143,662,cs),
(175,676,o),
(192,633,o),
(162,615,cs),
(154,610,o),
(142,611,o),
(133,616,cs)
);
},
{
closed = 1;
nodes = (
(118,488,o),
(115,499,o),
(116,508,cs),
(116,510,o),
(117,513,o),
(116,515,cs),
(111,528,o),
(125,545,o),
(139,544,cs),
(147,543,o),
(157,543,o),
(163,538,cs),
(168,535,o),
(172,531,o),
(174,526,cs),
(177,514,o),
(169,492,o),
(159,484,cs),
(158,483,o),
(152,479,o),
(151,478,c),
(144,474,o),
(132,477,o),
(125,483,cs)
);
},
{
closed = 1;
nodes = (
(125,344,o),
(122,358,o),
(121,362,cs),
(120,371,o),
(126,388,o),
(134,393,cs),
(144,399,o),
(163,395,o),
(173,388,cs),
(178,384,o),
(185,379,o),
(187,372,cs),
(192,361,o),
(187,339,o),
(180,330,cs),
(164,313,o),
(137,320,o),
(126,341,c)
);
},
{
closed = 1;
nodes = (
(165,194,o),
(162,194,o),
(159,195,cs),
(151,197,o),
(143,203,o),
(141,211,cs),
(138,221,o),
(143,239,o),
(151,245,cs),
(166,257,o),
(185,245,o),
(192,228,cs),
(201,208,o),
(188,182,o),
(168,192,cs)
);
},
{
closed = 1;
nodes = (
(193,55,o),
(189,59,o),
(188,59,c),
(183,61,o),
(177,61,o),
(173,64,cs),
(154,76,o),
(168,103,o),
(188,113,cs),
(209,124,o),
(238,110,o),
(233,87,cs),
(231,76,o),
(228,64,o),
(220,56,cs),
(213,49,o),
(202,48,o),
(194,54,cs)
);
}
);
width = 628;
}
);
note = U;
unicode = (85,217,218,219,220);
},
{
glyphname = V;
kernRight = V;
layers = (
{
layerId = m01;
shapes = (
{
closed = 1;
nodes = (
(378,9,o),
(380,11,o),
(383,11,cs),
(395,11,o),
(404,23,o),
(411,34,c),
(411,34,o),
(412,39,o),
(413,39,c),
(439,83,o),
(459,130,o),
(476,177,cs),
(516,287,o),
(556,397,o),
(592,508,cs),
(608,558,o),
(626,609,o),
(647,658,cs),
(652,668,o),
(659,678,o),
(660,689,cs),
(661,708,o),
(640,720,o),
(623,713,cs),
(608,706,o),
(603,686,o),
(596,672,cs),
(553,577,o),
(525,475,o),
(489,377,cs),
(479,347,o),
(412,171,o),
(401,142,c),
(399,147,o),
(387,181,o),
(385,186,cs),
(370,227,o),
(266,462,o),
(249,502,cs),
(226,556,o),
(200,609,o),
(168,658,cs),
(161,669,o),
(156,682,o),
(147,691,cs),
(142,696,o),
(141,704,o),
(135,708,c),
(131,712,o),
(123,713,o),
(117,711,c),
(104,715,o),
(89,715,o),
(76,711,cs),
(64,706,o),
(53,696,o),
(48,684,cs),
(40,668,o),
(38,649,o),
(36,630,cs),
(33,596,o),
(35,560,o),
(44,526,cs),
(71,431,o),
(111,340,o),
(159,254,cs),
(183,211,o),
(208,167,o),
(237,126,cs),
(242,119,o),
(265,72,o),
(269,64,cs),
(277,51,o),
(284,37,o),
(293,25,cs),
(300,15,o),
(311,9,o),
(321,3,cs),
(337,-7,o),
(362,-4,o),
(376,7,cs)
);
},
{
closed = 1;
nodes = (
(89,575,o),
(86,583,o),
(87,590,cs),
(88,596,o),
(86,603,o),
(87,609,cs),
(89,617,o),
(90,625,o),
(95,630,cs),
(106,640,o),
(123,638,o),
(132,626,cs),
(135,621,o),
(140,605,o),
(140,599,cs),
(139,574,o),
(113,552,o),
(94,570,cs)
);
},
{
closed = 1;
nodes = (
(151,431,o),
(135,444,o),
(131,454,cs),
(129,460,o),
(128,480,o),
(131,486,cs),
(133,491,o),
(137,496,o),
(142,499,c),
(147,504,o),
(156,503,o),
(163,502,cs),
(172,501,o),
(181,496,o),
(187,489,cs),
(194,480,o),
(195,467,o),
(192,456,cs),
(189,441,o),
(176,427,o),
(161,429,cs)
);
},
{
closed = 1;
nodes = (
(190,320,o),
(187,336,o),
(188,340,cs),
(195,369,o),
(231,388,o),
(245,362,cs),
(248,357,o),
(248,351,o),
(249,345,c),
(249,334,o),
(247,310,o),
(239,304,cs),
(234,300,o),
(219,295,o),
(214,295,cs),
(202,295,o),
(191,305,o),
(190,316,cs)
);
},
{
closed = 1;
nodes = (
(258,193,o),
(255,204,o),
(258,213,cs),
(260,219,o),
(266,223,o),
(270,227,cs),
(280,238,o),
(296,234,o),
(304,222,cs),
(309,213,o),
(310,202,o),
(310,191,cs),
(309,184,o),
(306,175,o),
(299,171,cs),
(295,169,o),
(291,167,o),
(287,166,cs),
(275,165,o),
(264,173,o),
(261,184,cs)
);
},
{
closed = 1;
nodes = (
(314,58,o),
(313,68,o),
(313,76,cs),
(312,91,o),
(316,107,o),
(326,117,cs),
(336,129,o),
(355,124,o),
(363,111,cs),
(368,104,o),
(371,81,o),
(369,72,cs),
(368,64,o),
(365,55,o),
(359,49,cs),
(347,38,o),
(329,39,o),
(319,51,cs)
);
}
);
width = 680;
}
);
note = V;
unicode = 86;
},
{
glyphname = W;
kernLeft = W;
kernRight = W;
layers = (
{
layerId = m01;
shapes = (
{
closed = 1;
nodes = (
(714,-24,o),
(713,-15,o),
(715,-19,cs),
(722,-30,o),
(739,-34,o),
(750,-28,cs),
(757,-25,o),
(761,-18,o),
(767,-13,cs),
(773,-7,o),
(778,1,o),
(780,9,cs),
(801,103,o),
(821,198,o),
(837,293,cs),
(845,336,o),
(885,594,o),
(891,637,cs),
(893,653,o),
(900,670,o),
(896,686,cs),
(894,693,o),
(889,701,o),
(882,705,cs),
(879,707,o),
(877,711,o),
(875,714,cs),
(857,737,o),
(812,731,o),
(786,718,cs),
(778,714,o),
(772,707,o),
(770,699,c),
(760,702,o),
(748,693,o),
(743,683,cs),
(741,679,o),
(741,675,o),
(739,671,c),
(727,632,o),
(685,422,o),
(678,382,cs),
(662,288,o),
(653,191,o),
(635,96,c),
(629,116,o),
(599,230,o),
(594,250,cs),
(582,296,o),
(571,342,o),
(561,389,cs),
(547,457,o),
(537,526,o),
(524,594,cs),
(523,600,o),
(519,631,o),
(517,637,cs),
(513,651,o),
(503,668,o),
(488,664,c),
(480,663,o),
(475,654,o),
(470,648,c),
(468,644,o),
(464,642,o),
(463,638,cs),
(442,578,o),
(359,231,o),
(343,169,c),
(297,305,o),
(244,437,o),
(201,573,cs),
(194,595,o),
(187,617,o),
(181,639,cs),
(175,665,o),
(164,692,o),
(143,710,cs),
(116,733,o),
(71,728,o),
(48,699,cs),
(40,690,o),
(35,678,o),
(33,666,cs),
(30,653,o),
(31,640,o),
(33,628,cs),
(34,618,o),
(47,567,o),
(50,558,cs),
(91,388,o),
(158,226,o),
(212,60,cs),
(216,47,o),
(220,34,o),
(229,24,cs),
(243,8,o),
(255,-13,o),
(274,-23,cs),
(305,-39,o),
(347,-24,o),
(361,7,cs),
(368,24,o),
(372,78,o),
(367,96,c),
(406,250,o),
(448,404,o),
(488,559,c),
(508,422,o),
(535,285,o),
(569,150,cs),
(574,130,o),
(598,26,o),
(606,7,cs),
(609,0,o),
(616,-4,o),
(621,-9,c),
(623,-22,o),
(634,-32,o),
(647,-30,c),
(653,-30,o),
(677,-42,o),
(683,-43,cs),
(695,-45,o),
(706,-40,o),
(712,-29,cs)
);
},
{
closed = 1;
nodes = (
(95,610,o),
(86,618,o),
(84,622,c),
(83,627,o),
(85,639,o),
(87,642,c),
(92,655,o),
(103,666,o),
(114,659,cs),
(126,652,o),
(126,629,o),
(123,616,cs),
(121,605,o),
(107,602,o),
(98,608,cs)
);
},
{
closed = 1;
nodes = (
(779,608,o),
(781,627,o),
(787,642,cs),
(791,651,o),
(804,660,o),
(813,660,cs),
(820,660,o),
(828,658,o),
(831,652,cs),
(835,646,o),
(833,631,o),
(829,625,c),
(826,618,o),
(822,611,o),
(816,606,cs),
(812,602,o),
(800,600,o),
(795,602,cs)
);
},
{
closed = 1;
nodes = (
(782,544,o),
(799,549,o),
(807,538,cs),
(819,522,o),
(818,495,o),
(798,492,cs),
(778,489,o),
(770,513,o),
(777,532,cs)
);
},
{
closed = 1;
nodes = (
(141,488,o),
(137,490,o),
(136,490,c),
(124,485,o),
(112,494,o),
(113,507,cs),
(113,511,o),
(115,526,o),
(117,529,cs),
(127,550,o),
(155,548,o),
(162,525,cs),
(167,507,o),
(160,485,o),
(142,488,cs)
);
},
{
closed = 1;
nodes = (
(162,386,o),
(159,389,o),
(159,393,cs),
(158,402,o),
(162,411,o),
(166,419,cs),
(173,432,o),
(192,432,o),
(199,418,cs),
(203,412,o),
(200,392,o),
(198,385,cs),
(194,363,o),
(166,360,o),
(163,382,cs)
);
},
{
closed = 1;
nodes = (
(739,390,o),
(753,420,o),
(775,410,cs),
(790,403,o),
(792,383,o),
(786,368,cs),
(783,362,o),
(778,356,o),
(771,355,cs),
(762,353,o),
(753,358,o),
(749,368,cs)
);
},
{
closed = 1;
nodes = (
(205,254,o),
(203,260,o),
(204,268,cs),
(207,296,o),
(244,292,o),
(253,266,cs),
(256,257,o),
(251,245,o),
(243,243,cs),
(237,241,o),
(233,236,o),
(227,235,cs),
(220,235,o),
(214,242,o),
(212,249,c)
);
},
{
closed = 1;
nodes = (
(729,242,o),
(726,245,o),
(725,247,cs),
(721,255,o),
(724,270,o),
(729,277,cs),
(739,289,o),
(757,283,o),
(762,269,cs),
(763,267,o),
(766,255,o),
(767,252,c),
(767,249,o),
(763,238,o),
(762,235,cs),
(755,217,o),
(731,220,o),
(729,239,cs)
);
},
{
closed = 1;
nodes = (
(241,83,o),
(243,103,o),
(250,119,cs),
(258,137,o),
(277,152,o),
(293,141,c),
(295,139,o),
(305,132,o),
(306,129,c),
(309,124,o),
(308,117,o),
(306,112,cs),
(303,102,o),
(289,84,o),
(280,81,cs),
(272,78,o),
(264,75,o),
(257,78,cs)
);
},
{
closed = 1;
nodes = (
(687,67,o),
(683,77,o),
(685,85,cs),
(688,93,o),
(691,101,o),
(697,106,cs),
(706,115,o),
(723,112,o),
(729,101,cs),
(731,96,o),
(731,89,o),
(730,83,cs),
(730,80,o),
(731,76,o),
(730,73,cs),
(727,66,o),
(723,58,o),
(716,55,cs),
(709,52,o),
(699,58,o),
(694,64,c)
);
}
);
width = 940;
}
);
note = W;
unicode = 87;
},
{
glyphname = X;
layers = (
{
layerId = m01;
shapes = (
{
closed = 1;
nodes = (
(640,47,o),
(637,65,o),
(630,80,cs),
(621,99,o),
(608,115,o),
(600,133,cs),
(598,139,o),
(583,163,o),
(579,167,c),
(516,248,o),
(458,333,o),
(400,417,c),
(447,483,o),
(493,550,o),
(536,618,cs),
(547,637,o),
(588,697,o),
(588,718,cs),
(588,736,o),
(568,745,o),
(555,734,cs),
(550,729,o),
(540,711,o),
(538,705,c),
(538,704,o),
(538,699,o),
(538,698,c),
(536,695,o),
(526,679,o),
(524,676,cs),
(477,600,o),
(425,528,o),
(373,456,c),
(322,530,o),
(270,604,o),
(210,670,cs),
(198,683,o),
(184,696,o),
(173,710,cs),
(166,718,o),
(137,740,o),
(127,744,cs),
(114,749,o),
(99,751,o),
(86,748,cs),
(56,741,o),
(35,715,o),
(35,684,c),
(35,684,o),
(36,681,o),
(35,680,c),
(35,679,o),
(33,676,o),
(33,675,c),
(27,665,o),
(29,652,o),
(31,640,cs),
(34,624,o),
(40,609,o),
(45,594,cs),
(57,562,o),
(74,532,o),
(90,501,cs),
(133,421,o),
(186,346,o),
(239,271,c),
(186,194,o),
(136,114,o),
(91,32,cs),
(89,28,o),
(85,26,o),
(84,22,c),
(75,4,o),
(82,-20,o),
(103,-20,cs),
(110,-20,o),
(123,-11,o),
(128,-6,cs),
(131,-2,o),
(138,18,o),
(140,21,cs),
(177,95,o),
(222,165,o),
(269,233,c),
(283,214,o),
(367,108,o),
(384,90,cs),
(386,88,o),
(403,73,o),
(405,70,cs),
(421,51,o),
(436,30,o),
(456,14,cs),
(467,4,o),
(479,-5,o),
(494,-8,cs),
(503,-10,o),
(513,-10,o),
(521,-7,cs),
(526,-6,o),
(534,-14,o),
(538,-17,c),
(578,-37,o),
(627,-13,o),
(636,30,cs)
);
},
{
closed = 1;
nodes = (
(93,614,o),
(88,615,o),
(86,616,cs),
(77,622,o),
(76,638,o),
(84,646,cs),
(97,660,o),
(123,669,o),
(139,660,cs),
(146,656,o),
(151,648,o),
(150,641,cs),
(149,638,o),
(147,625,o),
(145,622,cs),
(141,615,o),
(136,608,o),
(131,601,cs),
(117,585,o),
(93,591,o),
(93,612,cs)
);
},
{
closed = 1;
nodes = (
(198,469,o),
(200,481,o),
(199,483,c),
(199,484,o),
(196,489,o),
(195,490,c),
(192,502,o),
(195,523,o),
(205,530,cs),
(211,534,o),
(224,533,o),
(231,530,cs),
(239,525,o),
(251,511,o),
(251,501,cs),
(251,484,o),
(249,465,o),
(238,453,cs),
(227,440,o),
(200,449,o),
(198,467,cs)
);
},
{
closed = 1;
nodes = (
(301,325,o),
(291,337,o),
(290,341,cs),
(289,345,o),
(286,348,o),
(285,351,cs),
(282,365,o),
(293,387,o),
(305,395,cs),
(311,400,o),
(319,404,o),
(327,403,cs),
(335,403,o),
(344,402,o),
(351,399,cs),
(360,396,o),
(370,383,o),
(370,374,cs),
(370,354,o),
(362,333,o),
(347,320,cs),
(344,317,o),
(327,315,o),
(322,315,cs),
(317,314,o),
(307,318,o),
(304,322,cs)
);
},
{
closed = 1;
nodes = (
(388,235,o),
(390,273,o),
(414,264,cs),
(424,261,o),
(434,255,o),
(439,247,cs),
(444,238,o),
(442,216,o),
(438,207,cs),
(434,197,o),
(428,186,o),
(418,185,cs),
(404,184,o),
(392,196,o),
(390,209,cs)
);
},
{
closed = 1;
nodes = (
(494,85,o),
(487,91,o),
(486,97,cs),
(483,108,o),
(487,135,o),
(493,144,cs),
(494,146,o),
(500,152,o),
(502,153,cs),
(513,159,o),
(532,149,o),
(534,136,c),
(535,134,o),
(537,121,o),
(537,118,cs),
(537,111,o),
(533,89,o),
(528,84,cs),
(522,76,o),
(510,78,o),
(502,84,c)
);
}
);
width = 661;
}
);
note = X;
unicode = 88;
},
{
glyphname = Y;
kernLeft = Y;
kernRight = Y;
layers = (
{
layerId = m01;
shapes = (
{
closed = 1;
nodes = (
(378,-18,o),
(398,7,o),
(402,14,cs),
(407,21,o),
(409,54,o),
(410,63,cs),
(414,107,o),
(414,151,o),
(412,195,cs),
(411,206,o),
(406,274,o),
(406,285,cs),
(405,295,o),
(402,339,o),
(404,349,cs),
(404,350,o),
(407,356,o),
(408,357,c),
(428,393,o),
(553,612,o),
(573,647,cs),
(577,653,o),
(598,675,o),
(603,679,cs),
(611,686,o),
(617,697,o),
(616,707,cs),
(614,730,o),
(590,744,o),
(571,732,cs),
(552,721,o),
(538,700,o),
(532,679,cs),
(531,676,o),
(530,674,o),
(529,672,cs),
(478,589,o),
(429,505,o),
(384,418,c),
(379,431,o),
(373,443,o),
(365,453,cs),
(341,485,o),
(197,664,o),
(175,696,cs),
(163,713,o),
(148,730,o),
(129,739,cs),
(105,751,o),
(74,748,o),
(53,731,cs),
(45,725,o),
(40,717,o),
(34,708,cs),
(28,698,o),
(21,668,o),
(23,656,c),
(24,654,o),
(24,642,o),
(24,640,cs),
(25,625,o),
(31,610,o),
(35,594,cs),
(43,563,o),
(59,535,o),
(75,507,cs),
(111,446,o),
(152,390,o),
(195,334,cs),
(200,328,o),
(230,289,o),
(235,283,c),
(232,271,o),
(218,203,o),
(216,191,cs),
(210,143,o),
(216,93,o),
(235,49,cs),
(245,27,o),
(258,5,o),
(276,-11,cs),
(302,-34,o),
(346,-46,o),
(372,-23,cs)
);
},
{
closed = 1;
nodes = (
(93,599,o),
(90,612,o),
(83,621,cs),
(75,630,o),
(71,648,o),
(78,658,cs),
(80,662,o),
(90,667,o),
(95,668,cs),
(106,670,o),
(118,663,o),
(125,655,cs),
(135,644,o),
(143,614,o),
(137,600,cs),
(133,587,o),
(115,585,o),
(102,593,cs)
);
},
{
closed = 1;
nodes = (
(161,502,o),
(162,516,o),
(169,526,cs),
(171,529,o),
(171,533,o),
(172,535,cs),
(175,539,o),
(179,542,o),
(184,544,cs),
(188,545,o),
(203,549,o),
(208,548,cs),
(212,547,o),
(216,543,o),
(220,540,c),
(230,528,o),
(237,502,o),
(230,489,cs),
(228,486,o),
(227,482,o),
(223,480,cs),
(208,470,o),
(178,477,o),
(171,494,c)
);
},
{
closed = 1;
nodes = (
(258,385,o),
(253,394,o),
(256,403,c),
(256,404,o),
(257,406,o),
(257,407,cs),
(256,422,o),
(275,433,o),
(286,424,cs),
(290,421,o),
(295,420,o),
(297,416,cs),
(304,406,o),
(305,391,o),
(300,379,c),
(298,376,o),
(295,373,o),
(292,372,cs),
(281,367,o),
(267,366,o),
(262,376,cs)
);
},
{
closed = 1;
nodes = (
(264,219,o),
(266,238,o),
(277,250,cs),
(287,260,o),
(303,264,o),
(318,263,cs),
(333,263,o),
(343,249,o),
(342,234,cs),
(342,233,o),
(344,227,o),
(344,226,cs),
(345,202,o),
(328,181,o),
(304,179,cs),
(289,178,o),
(271,188,o),
(267,204,cs)
);
},
{
closed = 1;
nodes = (
(303,78,o),
(297,84,o),
(298,92,cs),
(298,109,o),
(311,126,o),
(329,122,cs),
(337,121,o),
(347,119,o),
(352,112,cs),
(363,98,o),
(353,79,o),
(336,75,c),
(334,74,o),
(332,74,o),
(331,73,cs),
(325,66,o),
(314,66,o),
(308,72,cs)
);
}
);
width = 627;
}
);
note = Y;
unicode = (89,221,376);
},
{
glyphname = Z;
kernLeft = Z;
layers = (
{
layerId = m01;
shapes = (
{
closed = 1;
nodes = (
(165,-14,o),
(167,-11,o),
(170,-11,cs),
(207,-11,o),
(414,-4,o),
(450,-1,cs),
(469,1,o),
(489,-7,o),
(508,-2,cs),
(530,5,o),
(533,34,o),
(512,45,cs),
(499,52,o),
(484,54,o),
(469,56,cs),
(394,67,o),
(318,66,o),
(242,63,c),
(339,191,o),
(425,327,o),
(508,465,cs),
(525,494,o),
(542,522,o),
(557,553,cs),
(569,579,o),
(577,609,o),
(577,638,cs),
(578,655,o),
(574,674,o),
(563,687,cs),
(557,694,o),
(549,699,o),
(542,704,cs),
(541,705,o),
(534,706,o),
(533,707,cs),
(523,716,o),
(509,722,o),
(496,721,cs),
(486,720,o),
(476,717,o),
(467,712,c),
(464,711,o),
(462,709,o),
(459,709,cs),
(393,717,o),
(326,721,o),
(260,720,cs),
(203,719,o),
(146,710,o),
(90,698,cs),
(84,697,o),
(77,699,o),
(71,696,cs),
(58,689,o),
(59,667,o),
(73,660,cs),
(80,656,o),
(88,657,o),
(96,657,cs),
(166,661,o),
(237,665,o),
(308,660,cs),
(340,658,o),
(372,653,o),
(405,650,c),
(401,646,o),
(378,619,o),
(375,614,cs),
(302,509,o),
(229,404,o),
(159,298,cs),
(122,242,o),
(89,184,o),
(55,127,cs),
(53,123,o),
(40,101,o),
(38,97,cs),
(16,51,o),
(36,-6,o),
(86,-18,cs),
(97,-21,o),
(108,-20,o),
(120,-18,cs),
(122,-18,o),
(134,-21,o),
(137,-21,cs),
(145,-21,o),
(154,-19,o),
(162,-15,cs)
);
},
{
closed = 1;
nodes = (
(440,560,o),
(439,562,o),
(438,562,c),
(433,565,o),
(429,570,o),
(428,575,cs),
(422,592,o),
(438,615,o),
(453,625,cs),
(460,630,o),
(471,631,o),
(479,628,cs),
(490,623,o),
(502,611,o),
(500,599,cs),
(499,592,o),
(497,584,o),
(497,576,cs),
(497,570,o),
(490,565,o),
(486,560,cs),
(474,545,o),
(451,543,o),
(441,559,cs)
);
},
{
closed = 1;
nodes = (
(354,435,o),
(350,439,o),
(349,444,cs),
(341,477,o),
(378,508,o),
(403,484,cs),
(405,482,o),
(406,480,o),
(408,478,c),
(417,474,o),
(416,463,o),
(412,454,c),
(400,434,o),
(378,421,o),
(359,433,c)
);
},
{
closed = 1;
nodes = (
(263,328,o),
(264,335,o),
(266,342,c),
(267,353,o),
(279,373,o),
(289,377,cs),
(303,383,o),
(319,374,o),
(324,360,c),
(334,357,o),
(339,345,o),
(332,337,cs),
(324,328,o),
(305,306,o),
(294,306,cs),
(285,306,o),
(270,315,o),
(266,322,cs)
);
},
{
closed = 1;
nodes = (
(186,217,o),
(188,232,o),
(194,244,cs),
(197,249,o),
(206,258,o),
(213,257,cs),
(216,257,o),
(229,257,o),
(232,255,cs),
(237,251,o),
(248,236,o),
(250,230,cs),
(252,221,o),
(246,203,o),
(239,196,cs),
(224,181,o),
(198,185,o),
(190,205,cs)
);
},
{
closed = 1;
nodes = (
(111,91,o),
(114,107,o),
(118,111,cs),
(120,113,o),
(123,114,o),
(126,116,cs),
(132,119,o),
(136,126,o),
(143,129,cs),
(152,132,o),
(168,129,o),
(175,121,cs),
(176,120,o),
(179,113,o),
(180,112,c),
(181,109,o),
(179,100,o),
(178,97,cs),
(175,82,o),
(166,67,o),
(153,60,cs),
(134,50,o),
(110,64,o),
(111,86,cs)
);
}
);
width = 608;
}
);
note = Z;
unicode = 90;
},
{
glyphname = underscore;
layers = (
{
layerId = m01;
shapes = (
{
closed = 1;
nodes = (
(140,-76,o),
(144,-73,o),
(148,-73,cs),
(179,-74,o),
(360,-65,o),
(390,-64,cs),
(420,-64,o),
(600,-70,o),
(630,-70,cs),
(637,-70,o),
(663,-65,o),
(670,-61,c),
(671,-61,o),
(679,-55,o),
(681,-55,c),
(686,-53,o),
(691,-51,o),
(695,-48,cs),
(704,-41,o),
(710,-29,o),
(709,-18,cs),
(709,-15,o),
(711,-12,o),
(711,-8,cs),
(713,6,o),
(711,23,o),
(701,35,cs),
(686,52,o),
(662,62,o),
(639,64,cs),
(564,74,o),
(488,80,o),
(412,79,cs),
(318,78,o),
(223,77,o),
(131,61,cs),
(107,56,o),
(84,50,o),
(62,42,cs),
(24,28,o),
(8,-19,o),
(34,-50,cs),
(40,-57,o),
(46,-66,o),
(54,-70,cs),
(69,-77,o),
(119,-80,o),
(136,-77,cs)
);
},
{
closed = 1;
nodes = (
(387,6,o),
(398,25,o),
(412,36,cs),
(429,48,o),
(455,42,o),
(455,21,c),
(456,14,o),
(446,-5,o),
(441,-10,cs),
(436,-16,o),
(421,-29,o),
(414,-30,cs),
(401,-32,o),
(388,-25,o),
(388,-12,cs)
);
},
{
closed = 1;
nodes = (
(256,-17,o),
(255,-9,o),
(257,-2,cs),
(261,15,o),
(271,37,o),
(287,31,cs),
(309,24,o),
(307,16,o),
(306,4,cs),
(305,-21,o),
(279,-39,o),
(261,-22,cs)
);
},
{
closed = 1;
nodes = (
(536,-21,o),
(533,-14,o),
(535,-6,cs),
(538,4,o),
(547,10,o),
(553,18,cs),
(555,20,o),
(565,25,o),
(567,26,cs),
(587,37,o),
(611,24,o),
(605,2,cs),
(601,-10,o),
(595,-19,o),
(585,-27,cs),
(581,-31,o),
(574,-34,o),
(569,-32,cs),
(565,-31,o),
(547,-27,o),
(544,-26,c)
);
},
{
closed = 1;
nodes = (
(113,-11,o),
(117,-2,o),
(121,4,cs),
(126,13,o),
(141,24,o),
(151,23,cs),
(163,22,o),
(174,12,o),
(175,1,cs),
(175,-10,o),
(164,-24,o),
(153,-24,c),
(150,-31,o),
(144,-34,o),
(137,-33,cs),
(131,-31,o),
(119,-24,o),
(116,-17,cs)
);
}
);
width = 735;
}
);
note = underscore;
unicode = 95;
},
{
glyphname = a;
kernRight = H;
layers = (
{
layerId = m01;
shapes = (
{
closed = 1;
nodes = (
(503,21,o),
(501,74,o),
(500,85,cs),
(498,158,o),
(494,232,o),
(489,305,cs),
(484,369,o),
(484,433,o),
(479,497,cs),
(479,504,o),
(475,543,o),
(476,550,cs),
(476,553,o),
(475,562,o),
(475,564,c),
(476,566,o),
(477,568,o),
(478,570,c),
(485,598,o),
(442,603,o),
(436,575,cs),
(434,565,o),
(430,517,o),
(430,508,c),
(417,515,o),
(405,524,o),
(391,530,cs),
(379,537,o),
(365,540,o),
(351,543,cs),
(320,550,o),
(287,552,o),
(256,547,cs),
(251,546,o),
(246,547,o),
(242,545,cs),
(240,544,o),
(233,542,o),
(231,543,c),
(221,545,o),
(212,542,o),
(207,534,c),
(176,523,o),
(146,507,o),
(121,486,cs),
(98,465,o),
(79,440,o),
(65,412,cs),
(49,379,o),
(40,341,o),
(38,303,cs),
(36,258,o),
(46,212,o),
(60,170,cs),
(70,139,o),
(85,108,o),
(106,83,cs),
(136,48,o),
(178,20,o),
(224,10,cs),
(254,3,o),
(287,3,o),
(317,12,cs),
(365,25,o),
(408,52,o),
(447,81,c),
(448,64,o),
(444,12,o),
(456,-1,cs),
(470,-17,o),
(496,-10,o),
(501,10,cs)
);
},
{
closed = 1;
nodes = (
(269,111,o),
(244,234,o),
(239,270,cs),
(233,327,o),
(236,385,o),
(245,442,cs),
(248,465,o),
(253,489,o),
(261,511,c),
(293,516,o),
(326,513,o),
(357,506,cs),
(364,504,o),
(370,502,o),
(376,500,cs),
(384,496,o),
(420,473,o),
(428,471,c),
(427,406,o),
(428,341,o),
(433,277,cs),
(438,226,o),
(443,176,o),
(446,125,cs),
(446,124,o),
(437,123,o),
(435,121,c),
(397,101,o),
(358,83,o),
(316,70,c),
(310,80,o),
(302,83,o),
(291,82,c)
);
},
{
closed = 1;
nodes = (
(139,402,o),
(146,425,o),
(155,431,cs),
(167,440,o),
(183,431,o),
(184,416,cs),
(184,406,o),
(176,383,o),
(168,377,cs),
(157,370,o),
(140,379,o),
(139,391,cs)
);
},
{
closed = 1;
nodes = (
(139,233,o),
(134,231,o),
(133,231,cs),
(126,231,o),
(116,240,o),
(113,245,cs),
(105,261,o),
(118,289,o),
(135,293,cs),
(139,294,o),
(143,294,o),
(148,296,cs),
(167,302,o),
(180,282,o),
(177,262,cs),
(175,250,o),
(172,236,o),
(163,229,cs),
(156,225,o),
(146,227,o),
(140,232,cs)
);
},
{
closed = 1;
nodes = (
(174,98,o),
(161,110,o),
(163,124,cs),
(164,139,o),
(173,155,o),
(187,155,cs),
(207,154,o),
(220,136,o),
(216,117,cs),
(215,112,o),
(215,106,o),
(212,102,cs),
(209,99,o),
(205,97,o),
(202,96,cs),
(197,95,o),
(193,98,o),
(189,98,cs)
);
}
);
width = 553;
}
);
note = a;
unicode = (97,224,225,226,227,228,229);
},
{
glyphname = b;
kernLeft = F;
layers = (
{
layerId = m01;
shapes = (
{
closed = 1;
nodes = (
(491,12,o),
(512,23,o),
(529,38,cs),
(560,64,o),
(583,102,o),
(597,140,cs),
(620,206,o),
(630,281,o),
(616,350,cs),
(608,391,o),
(590,432,o),
(563,464,cs),
(534,498,o),
(495,528,o),
(452,542,cs),
(431,549,o),
(408,549,o),
(387,544,cs),
(366,540,o),
(347,531,o),
(329,521,cs),
(306,509,o),
(284,495,o),
(264,479,cs),
(262,477,o),
(261,477,o),
(261,479,cs),
(261,518,o),
(261,556,o),
(257,595,cs),
(254,620,o),
(251,646,o),
(241,669,cs),
(235,684,o),
(224,699,o),
(209,706,cs),
(201,710,o),
(191,710,o),
(182,713,cs),
(168,719,o),
(151,720,o),
(138,713,cs),
(122,706,o),
(111,688,o),
(104,672,cs),
(79,610,o),
(62,544,o),
(57,477,cs),
(52,421,o),
(57,363,o),
(65,307,c),
(65,307,o),
(66,302,o),
(66,302,c),
(68,248,o),
(76,195,o),
(87,143,cs),
(98,94,o),
(114,4,o),
(163,-1,cs),
(174,-3,o),
(185,-2,o),
(194,3,cs),
(207,9,o),
(218,22,o),
(223,35,cs),
(227,47,o),
(236,58,o),
(238,70,c),
(275,37,o),
(321,9,o),
(370,1,cs),
(403,-5,o),
(438,-5,o),
(470,6,cs)
);
},
{
closed = 1;
nodes = (
(127,598,o),
(138,623,o),
(146,634,cs),
(149,639,o),
(161,650,o),
(166,651,c),
(178,656,o),
(197,642,o),
(199,628,cs),
(200,622,o),
(194,604,o),
(191,598,cs),
(190,596,o),
(183,587,o),
(182,584,c),
(182,579,o),
(178,574,o),
(173,572,cs),
(160,567,o),
(139,573,o),
(133,586,cs)
);
},
{
closed = 1;
nodes = (
(143,454,o),
(138,464,o),
(136,467,cs),
(126,485,o),
(146,502,o),
(164,512,cs),
(172,517,o),
(188,512,o),
(196,507,cs),
(201,503,o),
(204,494,o),
(203,488,cs),
(200,479,o),
(198,470,o),
(192,463,cs),
(187,456,o),
(182,448,o),
(174,445,cs),
(165,441,o),
(152,445,o),
(144,452,c)
);
},
{
closed = 1;
nodes = (
(306,77,o),
(273,106,o),
(248,140,cs),
(247,142,o),
(247,144,o),
(247,146,cs),
(258,235,o),
(260,325,o),
(261,415,cs),
(261,418,o),
(261,418,o),
(263,420,cs),
(294,450,o),
(333,473,o),
(372,489,cs),
(393,498,o),
(419,503,o),
(441,495,cs),
(496,476,o),
(544,425,o),
(564,370,cs),
(585,315,o),
(581,251,o),
(567,194,cs),
(559,157,o),
(544,119,o),
(519,90,cs),
(504,71,o),
(482,55,o),
(459,48,cs),
(422,37,o),
(379,43,o),
(344,59,cs)
);
},
{
closed = 1;
nodes = (
(129,333,o),
(127,336,o),
(126,340,c),
(126,350,o),
(133,365,o),
(142,369,c),
(143,370,o),
(145,374,o),
(146,375,cs),
(165,397,o),
(201,388,o),
(195,360,cs),
(194,353,o),
(190,346,o),
(186,340,c),
(187,335,o),
(184,329,o),
(180,326,cs),
(166,316,o),
(143,317,o),
(132,330,cs)
);
},
{
closed = 1;
nodes = (
(156,208,o),
(142,214,o),
(139,220,cs),
(130,235,o),
(144,253,o),
(162,254,cs),
(172,254,o),
(185,247,o),
(187,237,c),
(187,232,o),
(184,218,o),
(181,214,cs),
(177,207,o),
(170,204,o),
(162,207,c)
);
},
{
closed = 1;
nodes = (
(153,101,o),
(151,115,o),
(160,122,cs),
(163,124,o),
(164,136,o),
(165,139,cs),
(169,148,o),
(181,150,o),
(188,144,cs),
(193,140,o),
(193,132,o),
(195,125,cs),
(197,120,o),
(194,113,o),
(190,109,c),
(185,101,o),
(173,93,o),
(164,96,cs)
);
}
);
width = 663;
}
);
note = b;
unicode = 98;
},
{
glyphname = c;
kernLeft = c;
layers = (
{
layerId = m01;
shapes = (
{
closed = 1;
nodes = (
(455,33,o),
(489,56,o),
(515,85,cs),
(518,88,o),
(531,105,o),
(533,110,cs),
(543,130,o),
(517,147,o),
(501,131,cs),
(475,106,o),
(442,89,o),
(409,76,cs),
(371,61,o),
(330,51,o),
(290,51,c),
(290,51,o),
(287,52,o),
(287,52,c),
(288,55,o),
(289,71,o),
(290,74,c),
(298,171,o),
(285,268,o),
(276,365,cs),
(271,411,o),
(271,460,o),
(250,501,c),
(263,507,o),
(276,509,o),
(290,509,cs),
(318,510,o),
(346,506,o),
(372,497,cs),
(402,486,o),
(429,467,o),
(455,448,cs),
(457,446,o),
(468,439,o),
(471,439,c),
(484,436,o),
(496,449,o),
(490,462,cs),
(487,469,o),
(464,484,o),
(458,489,cs),
(424,513,o),
(388,538,o),
(347,546,cs),
(304,555,o),
(254,557,o),
(214,538,cs),
(154,511,o),
(102,461,o),
(71,404,cs),
(48,361,o),
(36,310,o),
(37,261,cs),
(39,219,o),
(48,177,o),
(62,138,cs),
(75,99,o),
(98,59,o),
(131,35,cs),
(161,13,o),
(197,-3,o),
(234,-7,cs),
(296,-14,o),
(362,-7,o),
(420,18,cs)
);
},
{
closed = 1;
nodes = (
(141,375,o),
(138,383,o),
(140,390,cs),
(142,399,o),
(142,411,o),
(150,417,cs),
(155,422,o),
(162,422,o),
(168,426,cs),
(180,433,o),
(198,424,o),
(195,411,cs),
(192,399,o),
(190,387,o),
(184,376,cs),
(177,361,o),
(158,359,o),
(146,371,cs)
);
},
{
closed = 1;
nodes = (
(124,249,o),
(122,261,o),
(126,270,cs),
(131,281,o),
(140,292,o),
(151,297,cs),
(160,302,o),
(173,301,o),
(183,298,cs),
(192,295,o),
(200,285,o),
(200,276,cs),
(200,262,o),
(190,248,o),
(179,239,cs),
(169,231,o),
(145,240,o),
(134,245,cs)
);
},
{
closed = 1;
nodes = (
(169,113,o),
(166,118,o),
(166,120,cs),
(165,133,o),
(173,151,o),
(186,156,c),
(191,165,o),
(199,169,o),
(209,167,cs),
(217,165,o),
(223,158,o),
(221,151,cs),
(220,146,o),
(225,141,o),
(225,136,cs),
(224,131,o),
(222,127,o),
(221,123,cs),
(220,120,o),
(221,116,o),
(219,113,cs),
(216,108,o),
(204,102,o),
(198,102,cs),
(188,101,o),
(178,105,o),
(171,112,c)
);
}
);
width = 560;
}
);
note = c;
unicode = (99,231);
},
{
glyphname = d;
kernRight = H;
layers = (
{
layerId = m01;
shapes = (
{
closed = 1;
nodes = (
(629,29,o),
(634,41,o),
(633,53,cs),
(633,56,o),
(638,67,o),
(639,70,cs),
(646,93,o),
(649,118,o),
(650,142,cs),
(652,190,o),
(646,238,o),
(638,286,c),
(638,289,o),
(639,307,o),
(639,311,cs),
(639,330,o),
(632,436,o),
(630,455,cs),
(629,461,o),
(625,495,o),
(624,501,c),
(622,550,o),
(620,600,o),
(611,648,cs),
(606,671,o),
(600,695,o),
(585,712,cs),
(573,725,o),
(555,735,o),
(538,737,cs),
(525,738,o),
(504,723,o),
(496,713,c),
(495,711,o),
(491,710,o),
(489,709,cs),
(481,705,o),
(474,698,o),
(471,690,cs),
(461,668,o),
(458,644,o),
(450,622,cs),
(438,592,o),
(430,559,o),
(425,527,c),
(414,536,o),
(404,546,o),
(392,552,cs),
(376,560,o),
(359,565,o),
(342,567,cs),
(305,569,o),
(267,563,o),
(232,550,cs),
(189,534,o),
(150,504,o),
(120,469,cs),
(85,427,o),
(59,375,o),
(47,321,cs),
(33,253,o),
(40,176,o),
(69,113,cs),
(92,65,o),
(133,21,o),
(181,-1,cs),
(241,-29,o),
(318,-28,o),
(379,0,cs),
(407,12,o),
(432,33,o),
(448,59,cs),
(451,63,o),
(454,71,o),
(456,66,cs),
(467,40,o),
(482,13,o),
(504,-6,cs),
(543,-41,o),
(604,-30,o),
(624,18,cs)
);
},
{
closed = 1;
nodes = (
(530,579,o),
(527,583,o),
(524,584,c),
(519,587,o),
(514,589,o),
(512,594,cs),
(509,599,o),
(511,612,o),
(512,618,c),
(514,622,o),
(522,632,o),
(527,634,cs),
(534,637,o),
(543,635,o),
(550,634,cs),
(567,631,o),
(572,610,o),
(565,595,cs),
(563,590,o),
(556,586,o),
(550,585,c),
(547,581,o),
(540,577,o),
(534,578,cs)
);
},
{
closed = 1;
nodes = (
(203,48,o),
(178,64,o),
(157,84,cs),
(133,107,o),
(116,140,o),
(106,173,cs),
(91,225,o),
(90,285,o),
(106,337,cs),
(122,393,o),
(159,445,o),
(206,480,cs),
(245,508,o),
(293,523,o),
(341,520,cs),
(362,520,o),
(382,507,o),
(398,493,cs),
(404,488,o),
(419,478,o),
(418,470,cs),
(414,433,o),
(412,395,o),
(413,357,cs),
(414,281,o),
(419,204,o),
(435,130,cs),
(436,127,o),
(433,124,o),
(431,122,cs),
(410,94,o),
(386,64,o),
(354,50,cs),
(316,34,o),
(271,31,o),
(231,41,cs)
);
},
{
closed = 1;
nodes = (
(506,462,o),
(508,483,o),
(509,487,cs),
(511,492,o),
(514,498,o),
(518,500,cs),
(521,502,o),
(521,506,o),
(523,509,cs),
(529,516,o),
(540,516,o),
(546,509,cs),
(550,504,o),
(550,498,o),
(552,493,c),
(552,492,o),
(555,487,o),
(556,485,cs),
(559,475,o),
(559,459,o),
(549,453,c),
(547,451,o),
(547,447,o),
(545,444,c),
(537,422,o),
(504,434,o),
(506,457,cs)
);
},
{
closed = 1;
nodes = (
(497,313,o),
(505,338,o),
(507,348,cs),
(509,354,o),
(518,362,o),
(524,363,cs),
(528,363,o),
(532,363,o),
(536,363,c),
(545,365,o),
(557,361,o),
(560,352,cs),
(564,340,o),
(551,316,o),
(543,307,cs),
(532,293,o),
(511,290,o),
(502,305,cs)
);
},
{
closed = 1;
nodes = (
(526,182,o),
(523,186,o),
(523,190,cs),
(523,198,o),
(523,216,o),
(530,220,cs),
(536,224,o),
(539,232,o),
(546,235,cs),
(557,239,o),
(569,228,o),
(566,216,cs),
(563,205,o),
(566,192,o),
(560,181,cs),
(553,168,o),
(536,165,o),
(529,178,cs)
);
},
{
closed = 1;
nodes = (
(531,86,o),
(531,108,o),
(548,111,c),
(549,112,o),
(557,111,o),
(558,112,c),
(558,112,o),
(560,114,o),
(561,114,c),
(578,125,o),
(590,101,o),
(584,82,cs),
(582,77,o),
(577,72,o),
(572,70,c),
(570,70,o),
(567,70,o),
(566,69,cs),
(559,60,o),
(546,61,o),
(540,71,cs)
);
}
);
width = 707;
}
);
note = d;
unicode = 100;
},
{
glyphname = e;
layers = (
{
layerId = m01;
shapes = (
{
closed = 1;
nodes = (
(348,-12,o),
(365,-12,o),
(381,-7,cs),
(406,0,o),
(431,12,o),
(450,30,cs),
(469,49,o),
(485,72,o),
(496,96,cs),
(498,100,o),
(507,120,o),
(508,125,cs),
(512,144,o),
(484,153,o),
(477,134,cs),
(466,109,o),
(451,83,o),
(431,64,cs),
(416,50,o),
(397,40,o),
(378,35,cs),
(351,28,o),
(322,28,o),
(294,30,cs),
(291,30,o),
(292,38,o),
(291,41,c),
(276,70,o),
(266,102,o),
(258,133,c),
(258,136,o),
(258,136,o),
(260,138,c),
(284,152,o),
(307,167,o),
(330,183,cs),
(365,208,o),
(397,238,o),
(427,270,cs),
(448,292,o),
(468,316,o),
(482,343,cs),
(490,361,o),
(495,381,o),
(493,400,cs),
(490,433,o),
(475,467,o),
(452,492,cs),
(425,519,o),
(388,538,o),
(350,546,cs),
(322,551,o),
(294,551,o),
(266,550,cs),
(242,550,o),
(218,548,o),
(194,545,cs),
(173,543,o),
(150,538,o),
(133,524,cs),
(132,523,o),
(127,520,o),
(126,520,c),
(119,516,o),
(111,511,o),
(106,505,cs),
(88,484,o),
(56,398,o),
(51,371,cs),
(50,366,o),
(47,343,o),
(48,338,cs),
(48,336,o),
(49,334,o),
(49,333,cs),
(43,294,o),
(41,255,o),
(45,216,cs),
(49,187,o),
(48,158,o),
(55,129,cs),
(58,120,o),
(56,110,o),
(60,102,cs),
(74,71,o),
(95,41,o),
(123,23,cs),
(148,7,o),
(175,-7,o),
(204,-12,cs),
(246,-19,o),
(289,-19,o),
(331,-14,cs)
);
},
{
closed = 1;
nodes = (
(273,508,o),
(324,514,o),
(370,499,cs),
(388,492,o),
(407,482,o),
(421,468,cs),
(437,450,o),
(450,424,o),
(450,400,cs),
(450,377,o),
(432,357,o),
(417,339,cs),
(385,301,o),
(349,266,o),
(311,233,cs),
(291,215,o),
(270,197,o),
(248,182,c),
(227,288,o),
(223,396,o),
(225,503,c)
);
},
{
closed = 1;
nodes = (
(130,432,o),
(151,442,o),
(163,428,cs),
(173,416,o),
(163,401,o),
(150,394,cs),
(133,385,o),
(113,399,o),
(121,415,cs)
);
},
{
closed = 1;
nodes = (
(114,261,o),
(99,271,o),
(99,283,cs),
(99,297,o),
(114,314,o),
(127,318,cs),
(161,328,o),
(169,275,o),
(137,260,c),
(133,259,o),
(129,257,o),
(125,258,cs)
);
},
{
closed = 1;
nodes = (
(126,131,o),
(121,135,o),
(116,138,cs),
(99,147,o),
(103,170,o),
(117,184,cs),
(129,197,o),
(149,199,o),
(160,185,cs),
(170,171,o),
(163,145,o),
(149,134,cs),
(145,131,o),
(136,127,o),
(131,129,cs)
);
},
{
closed = 1;
nodes = (
(159,62,o),
(163,66,o),
(164,71,cs),
(165,75,o),
(165,80,o),
(168,84,cs),
(173,90,o),
(186,92,o),
(192,87,cs),
(205,77,o),
(210,58,o),
(201,44,cs),
(188,27,o),
(165,37,o),
(160,58,cs)
);
}
);
width = 543;
}
);
note = e;
unicode = (101,232,233,234,235);
},
{
glyphname = f;
kernRight = f;
layers = (
{
layerId = m01;
shapes = (
{
closed = 1;
nodes = (
(220,-9,o),
(233,-12,o),
(245,-9,cs),
(253,-7,o),
(260,-3,o),
(266,2,cs),
(283,17,o),
(289,43,o),
(292,65,cs),
(297,101,o),
(296,137,o),
(294,173,cs),
(293,204,o),
(284,397,o),
(282,428,c),
(329,432,o),
(379,426,o),
(424,442,cs),
(442,448,o),
(442,473,o),
(426,483,cs),
(413,491,o),
(366,488,o),
(351,486,cs),
(342,485,o),
(291,480,o),
(283,479,cs),
(280,479,o),
(280,479,o),
(280,482,cs),
(280,501,o),
(277,613,o),
(275,632,cs),
(275,634,o),
(276,642,o),
(276,644,c),
(298,652,o),
(321,657,o),
(344,661,cs),
(375,665,o),
(408,660,o),
(439,659,cs),
(444,659,o),
(463,657,o),
(467,658,cs),
(485,662,o),
(486,687,o),
(468,694,cs),
(443,702,o),
(417,705,o),
(391,706,cs),
(347,708,o),
(303,698,o),
(262,683,cs),
(250,678,o),
(238,670,o),
(225,666,cs),
(203,661,o),
(187,640,o),
(176,620,cs),
(159,590,o),
(147,558,o),
(134,525,cs),
(131,516,o),
(114,467,o),
(111,458,c),
(91,457,o),
(71,452,o),
(51,449,cs),
(26,445,o),
(20,411,o),
(44,400,cs),
(60,393,o),
(78,392,o),
(95,394,c),
(98,395,o),
(97,395,o),
(97,391,cs),
(95,373,o),
(93,355,o),
(92,336,cs),
(88,257,o),
(97,177,o),
(111,99,cs),
(114,82,o),
(117,66,o),
(122,50,cs),
(127,37,o),
(131,22,o),
(140,11,cs),
(155,-9,o),
(186,-20,o),
(207,-6,c)
);
},
{
closed = 1;
nodes = (
(192,541,o),
(209,541,o),
(216,530,cs),
(223,519,o),
(221,498,o),
(210,493,cs),
(191,483,o),
(179,509,o),
(187,529,cs)
);
},
{
closed = 1;
nodes = (
(160,342,o),
(158,366,o),
(167,385,cs),
(169,389,o),
(178,397,o),
(183,398,cs),
(199,403,o),
(218,390,o),
(215,374,cs),
(211,354,o),
(199,332,o),
(180,337,cs)
);
},
{
closed = 1;
nodes = (
(157,217,o),
(161,231,o),
(169,241,cs),
(184,259,o),
(213,251,o),
(213,228,cs),
(213,212,o),
(204,191,o),
(189,185,c),
(185,182,o),
(179,178,o),
(174,178,c),
(164,180,o),
(155,193,o),
(156,204,cs)
);
},
{
closed = 1;
nodes = (
(181,63,o),
(178,75,o),
(178,79,cs),
(177,95,o),
(191,111,o),
(205,117,cs),
(221,124,o),
(238,114,o),
(241,98,cs),
(242,89,o),
(237,80,o),
(232,73,cs),
(220,56,o),
(198,46,o),
(184,60,cs)
);
}
);
width = 506;
}
);
note = f;
unicode = 102;
},
{
glyphname = g;
kernLeft = c;
kernRight = H;
layers = (
{
layerId = m01;
shapes = (
{
closed = 1;
nodes = (
(385,-242,o),
(426,-239,o),
(464,-229,cs),
(472,-227,o),
(478,-223,o),
(486,-221,c),
(487,-220,o),
(492,-220,o),
(492,-220,c),
(528,-211,o),
(555,-176,o),
(570,-143,cs),
(591,-98,o),
(595,-47,o),
(596,3,cs),
(597,31,o),
(596,193,o),
(595,221,cs),
(594,252,o),
(585,434,o),
(583,465,cs),
(581,481,o),
(582,497,o),
(581,513,cs),
(579,525,o),
(582,538,o),
(578,550,cs),
(575,561,o),
(571,572,o),
(564,581,cs),
(538,614,o),
(487,614,o),
(461,581,cs),
(458,578,o),
(455,567,o),
(450,567,cs),
(429,568,o),
(417,536,o),
(412,515,cs),
(411,510,o),
(413,505,o),
(408,506,cs),
(373,516,o),
(337,522,o),
(300,523,cs),
(264,525,o),
(226,522,o),
(191,511,cs),
(159,500,o),
(126,484,o),
(103,459,cs),
(86,440,o),
(76,416,o),
(67,392,cs),
(55,355,o),
(47,317,o),
(42,279,cs),
(38,245,o),
(37,209,o),
(45,175,cs),
(51,145,o),
(66,116,o),
(83,90,cs),
(105,54,o),
(139,22,o),
(179,5,cs),
(225,-14,o),
(277,-15,o),
(326,-12,cs),
(345,-10,o),
(364,-8,o),
(383,-5,c),
(387,-44,o),
(391,-84,o),
(386,-124,cs),
(386,-128,o),
(382,-149,o),
(382,-153,cs),
(382,-163,o),
(373,-182,o),
(365,-188,cs),
(359,-193,o),
(352,-195,o),
(348,-201,cs),
(346,-204,o),
(346,-204,o),
(343,-204,cs),
(305,-206,o),
(267,-207,o),
(229,-200,cs),
(203,-195,o),
(175,-187,o),
(153,-171,cs),
(133,-157,o),
(115,-134,o),
(112,-109,cs),
(110,-92,o),
(115,-74,o),
(119,-56,cs),
(123,-39,o),
(101,-27,o),
(89,-40,c),
(84,-44,o),
(82,-51,o),
(81,-57,cs),
(75,-81,o),
(69,-108,o),
(76,-133,cs),
(84,-159,o),
(101,-183,o),
(121,-200,cs),
(145,-220,o),
(175,-233,o),
(205,-239,cs),
(251,-249,o),
(299,-248,o),
(345,-245,cs)
);
},
{
closed = 1;
nodes = (
(485,438,o),
(474,446,o),
(471,449,cs),
(455,463,o),
(461,487,o),
(481,497,cs),
(491,502,o),
(511,499,o),
(520,492,cs),
(547,469,o),
(523,427,o),
(489,437,cs)
);
},
{
closed = 1;
nodes = (
(250,44,o),
(209,49,o),
(179,71,cs),
(140,99,o),
(112,144,o),
(100,190,cs),
(90,226,o),
(90,264,o),
(95,301,cs),
(100,342,o),
(107,386,o),
(129,421,cs),
(143,444,o),
(169,458,o),
(194,467,cs),
(233,483,o),
(277,484,o),
(319,479,cs),
(346,476,o),
(373,471,o),
(400,464,c),
(385,390,o),
(376,315,o),
(372,240,cs),
(369,175,o),
(372,111,o),
(378,47,c),
(349,40,o),
(318,41,o),
(288,42,cs)
);
},
{
closed = 1;
nodes = (
(445,304,o),
(446,313,o),
(448,322,cs),
(453,347,o),
(476,371,o),
(502,368,cs),
(525,366,o),
(536,339,o),
(527,317,cs),
(522,302,o),
(513,286,o),
(500,277,cs),
(482,265,o),
(453,274,o),
(447,295,cs)
);
},
{
closed = 1;
nodes = (
(444,114,o),
(457,150,o),
(472,161,cs),
(480,167,o),
(501,169,o),
(510,165,cs),
(541,153,o),
(548,114,o),
(529,88,cs),
(521,78,o),
(510,68,o),
(497,64,cs),
(474,58,o),
(448,71,o),
(446,95,cs)
);
},
{
closed = 1;
nodes = (
(455,-112,o),
(452,-106,o),
(450,-100,cs),
(449,-94,o),
(450,-73,o),
(451,-67,cs),
(454,-50,o),
(464,-31,o),
(480,-24,cs),
(511,-11,o),
(535,-49,o),
(524,-80,cs),
(519,-94,o),
(512,-110,o),
(499,-115,cs),
(495,-116,o),
(481,-122,o),
(477,-122,cs),
(471,-122,o),
(465,-120,o),
(460,-116,cs)
);
}
);
width = 652;
}
);
note = g;
unicode = 103;
},
{
glyphname = h;
kernLeft = B;
layers = (
{
layerId = m01;
shapes = (
{
closed = 1;
nodes = (
(611,2,o),
(615,5,o),
(618,9,cs),
(623,15,o),
(625,24,o),
(626,31,cs),
(627,52,o),
(632,175,o),
(632,196,cs),
(633,260,o),
(625,325,o),
(602,384,cs),
(588,421,o),
(564,455,o),
(533,478,cs),
(511,494,o),
(485,505,o),
(458,509,cs),
(425,513,o),
(390,513,o),
(357,504,cs),
(326,497,o),
(297,482,o),
(270,464,cs),
(268,463,o),
(268,464,o),
(268,466,cs),
(265,504,o),
(261,542,o),
(257,580,cs),
(257,584,o),
(258,589,o),
(258,594,cs),
(257,601,o),
(255,648,o),
(254,656,cs),
(254,659,o),
(256,674,o),
(256,677,cs),
(257,686,o),
(252,695,o),
(243,699,cs),
(240,701,o),
(235,701,o),
(235,704,cs),
(236,713,o),
(232,721,o),
(224,725,cs),
(216,729,o),
(191,725,o),
(182,722,cs),
(173,720,o),
(165,715,o),
(158,709,cs),
(155,707,o),
(150,706,o),
(149,706,c),
(136,712,o),
(120,710,o),
(109,702,cs),
(98,692,o),
(91,677,o),
(87,662,cs),
(86,657,o),
(87,651,o),
(85,646,cs),
(74,614,o),
(71,578,o),
(67,544,cs),
(66,528,o),
(62,437,o),
(62,421,cs),
(61,330,o),
(66,239,o),
(76,149,cs),
(81,113,o),
(84,76,o),
(99,44,cs),
(103,33,o),
(110,24,o),
(119,17,cs),
(130,8,o),
(144,3,o),
(158,2,cs),
(162,2,o),
(177,6,o),
(181,4,cs),
(199,-3,o),
(219,-2,o),
(238,-3,cs),
(249,-4,o),
(257,5,o),
(258,15,c),
(263,20,o),
(269,26,o),
(272,32,cs),
(275,39,o),
(275,49,o),
(271,56,c),
(269,58,o),
(276,64,o),
(277,67,cs),
(288,101,o),
(289,137,o),
(288,172,cs),
(287,203,o),
(275,379,o),
(272,410,c),
(293,426,o),
(315,441,o),
(340,449,cs),
(364,458,o),
(391,460,o),
(416,459,cs),
(444,457,o),
(473,445,o),
(494,426,cs),
(510,410,o),
(521,388,o),
(529,366,cs),
(543,331,o),
(550,293,o),
(555,255,cs),
(565,181,o),
(562,106,o),
(560,31,c),
(559,24,o),
(562,15,o),
(567,9,cs),
(569,7,o),
(571,5,o),
(572,3,cs),
(579,-11,o),
(598,-14,o),
(608,-2,cs)
);
},
{
closed = 1;
nodes = (
(148,595,o),
(137,608,o),
(138,621,cs),
(140,634,o),
(147,648,o),
(160,646,cs),
(162,646,o),
(163,649,o),
(165,650,cs),
(176,656,o),
(189,649,o),
(189,637,cs),
(189,631,o),
(184,606,o),
(182,600,cs),
(178,591,o),
(168,585,o),
(159,590,cs)
);
},
{
closed = 1;
nodes = (
(166,442,o),
(164,444,o),
(162,445,cs),
(157,447,o),
(151,446,o),
(147,449,cs),
(141,453,o),
(136,458,o),
(135,465,cs),
(134,471,o),
(140,486,o),
(144,491,cs),
(166,521,o),
(211,497,o),
(198,461,c),
(198,459,o),
(193,449,o),
(192,447,cs),
(188,439,o),
(176,438,o),
(168,442,c)
);
},
{
closed = 1;
nodes = (
(157,289,o),
(150,295,o),
(146,305,cs),
(143,311,o),
(139,316,o),
(135,322,cs),
(132,326,o),
(133,332,o),
(134,337,cs),
(136,356,o),
(149,374,o),
(168,372,cs),
(185,370,o),
(204,356,o),
(205,338,cs),
(205,321,o),
(197,304,o),
(186,291,cs),
(182,286,o),
(174,286,o),
(168,287,cs)
);
},
{
closed = 1;
nodes = (
(144,180,o),
(146,193,o),
(147,197,cs),
(153,213,o),
(166,229,o),
(181,220,c),
(191,217,o),
(203,208,o),
(202,196,cs),
(201,186,o),
(192,169,o),
(182,166,cs),
(168,161,o),
(150,162,o),
(145,176,cs)
);
},
{
closed = 1;
nodes = (
(158,70,o),
(163,84,o),
(168,90,cs),
(175,99,o),
(189,101,o),
(198,93,cs),
(205,87,o),
(209,74,o),
(203,67,cs),
(201,64,o),
(193,55,o),
(190,53,cs),
(179,48,o),
(165,52,o),
(161,62,cs)
);
}
);
width = 678;
}
);
note = h;
unicode = 104;
},
{
glyphname = i;
kernLeft = i;
kernRight = i;
layers = (
{
layerId = m01;
shapes = (
{
closed = 1;
nodes = (
(215,585,o),
(218,584,o),
(219,584,cs),
(262,584,o),
(296,624,o),
(298,667,cs),
(299,686,o),
(294,707,o),
(282,721,cs),
(264,742,o),
(233,747,o),
(209,732,cs),
(203,729,o),
(196,725,o),
(192,720,c),
(174,707,o),
(164,683,o),
(162,661,cs),
(160,646,o),
(167,606,o),
(177,594,cs),
(185,583,o),
(203,577,o),
(215,585,c)
);
},
{
closed = 1;
nodes = (
(244,-35,o),
(247,-33,o),
(251,-33,cs),
(265,-34,o),
(280,-30,o),
(293,-24,cs),
(295,-23,o),
(305,-26,o),
(308,-26,cs),
(328,-25,o),
(347,-11,o),
(359,5,cs),
(360,6,o),
(363,10,o),
(364,12,c),
(375,66,o),
(379,123,o),
(384,178,cs),
(389,223,o),
(392,267,o),
(391,312,cs),
(391,343,o),
(387,373,o),
(386,404,cs),
(386,408,o),
(379,424,o),
(377,427,c),
(364,455,o),
(343,481,o),
(315,494,cs),
(264,519,o),
(203,518,o),
(147,512,cs),
(136,511,o),
(71,506,o),
(60,505,c),
(52,509,o),
(42,505,o),
(34,502,c),
(19,494,o),
(15,475,o),
(27,463,cs),
(33,457,o),
(43,454,o),
(52,454,cs),
(53,454,o),
(55,454,o),
(56,454,cs),
(83,451,o),
(111,454,o),
(138,455,c),
(140,456,o),
(137,452,o),
(136,450,cs),
(134,443,o),
(136,411,o),
(137,404,cs),
(139,381,o),
(139,259,o),
(138,236,cs),
(137,210,o),
(147,82,o),
(151,56,cs),
(153,42,o),
(158,29,o),
(163,16,cs),
(175,-13,o),
(208,-44,o),
(240,-36,cs)
);
},
{
closed = 1;
nodes = (
(222,434,o),
(226,452,o),
(239,453,cs),
(246,454,o),
(251,459,o),
(257,459,cs),
(270,459,o),
(282,450,o),
(282,437,cs),
(283,421,o),
(275,403,o),
(262,395,cs),
(258,393,o),
(255,391,o),
(251,390,c),
(235,389,o),
(222,405,o),
(222,421,cs)
);
},
{
closed = 1;
nodes = (
(229,223,o),
(226,235,o),
(225,245,cs),
(224,261,o),
(238,282,o),
(253,288,cs),
(257,290,o),
(262,289,o),
(267,288,cs),
(278,285,o),
(286,278,o),
(290,268,c),
(293,263,o),
(290,247,o),
(288,241,cs),
(280,218,o),
(257,202,o),
(237,216,cs)
);
},
{
closed = 1;
nodes = (
(249,59,o),
(239,63,o),
(237,65,cs),
(234,68,o),
(233,72,o),
(232,75,cs),
(229,82,o),
(235,100,o),
(239,106,c),
(244,117,o),
(253,128,o),
(264,132,cs),
(277,135,o),
(290,129,o),
(297,117,cs),
(301,108,o),
(299,98,o),
(296,89,cs),
(293,78,o),
(289,67,o),
(280,60,cs),
(271,53,o),
(262,52,o),
(251,58,cs)
);
}
);
width = 439;
}
);
note = i;
unicode = (105,236,237,238,239);
},
{
glyphname = j;
kernRight = i;
layers = (
{
layerId = m01;
shapes = (
{
closed = 1;
nodes = (
(251,625,o),
(276,669,o),
(266,705,cs),
(254,746,o),
(205,771,o),
(167,755,cs),
(146,746,o),
(131,723,o),
(126,701,cs),
(122,686,o),
(125,670,o),
(126,654,cs),
(128,610,o),
(178,591,o),
(218,609,cs)
);
},
{
closed = 1;
nodes = (
(237,-174,o),
(257,-161,o),
(271,-143,c),
(271,-142,o),
(276,-139,o),
(277,-139,c),
(296,-127,o),
(315,-111,o),
(323,-90,cs),
(335,-60,o),
(348,-29,o),
(354,3,cs),
(373,107,o),
(380,214,o),
(368,319,cs),
(361,379,o),
(342,440,o),
(307,489,cs),
(297,503,o),
(284,516,o),
(270,528,cs),
(263,535,o),
(254,542,o),
(245,547,cs),
(221,558,o),
(194,557,o),
(168,562,cs),
(140,568,o),
(110,566,o),
(81,563,cs),
(71,562,o),
(49,560,o),
(43,552,cs),
(42,550,o),
(40,548,o),
(38,547,cs),
(18,539,o),
(24,511,o),
(44,505,cs),
(55,502,o),
(111,503,o),
(122,502,cs),
(124,502,o),
(126,501,o),
(125,499,c),
(123,490,o),
(118,445,o),
(117,436,cs),
(106,322,o),
(112,207,o),
(115,92,cs),
(116,50,o),
(116,8,o),
(117,-34,cs),
(117,-39,o),
(114,-67,o),
(113,-72,cs),
(113,-77,o),
(111,-106,o),
(110,-111,cs),
(108,-124,o),
(107,-137,o),
(105,-149,cs),
(105,-153,o),
(105,-153,o),
(102,-152,c),
(71,-150,o),
(39,-142,o),
(11,-127,cs),
(-6,-118,o),
(-24,-108,o),
(-38,-95,cs),
(-50,-85,o),
(-59,-71,o),
(-68,-58,cs),
(-82,-37,o),
(-114,-56,o),
(-104,-80,cs),
(-88,-117,o),
(-57,-149,o),
(-22,-170,cs),
(20,-195,o),
(71,-203,o),
(119,-202,cs),
(152,-201,o),
(186,-196,o),
(217,-183,cs)
);
},
{
closed = 1;
nodes = (
(211,399,o),
(208,405,o),
(205,411,cs),
(200,421,o),
(200,437,o),
(209,444,cs),
(211,445,o),
(210,449,o),
(211,451,cs),
(217,465,o),
(235,466,o),
(245,455,c),
(246,453,o),
(250,445,o),
(251,443,cs),
(256,431,o),
(251,405,o),
(242,396,cs),
(236,389,o),
(224,390,o),
(217,395,cs)
);
},
{
closed = 1;
nodes = (
(197,269,o),
(195,276,o),
(197,285,cs),
(202,302,o),
(214,318,o),
(229,326,cs),
(244,334,o),
(264,323,o),
(266,306,cs),
(266,301,o),
(261,285,o),
(259,281,cs),
(253,269,o),
(239,253,o),
(226,254,c),
(222,255,o),
(208,262,o),
(205,265,c)
);
},
{
closed = 1;
nodes = (
(216,99,o),
(210,100,o),
(205,104,cs),
(189,118,o),
(202,142,o),
(218,156,cs),
(232,167,o),
(260,156,o),
(262,138,cs),
(263,127,o),
(252,107,o),
(243,101,c),
(238,96,o),
(229,96,o),
(222,98,cs)
);
},
{
closed = 1;
nodes = (
(207,-51,o),
(189,-43,o),
(191,-27,cs),
(195,8,o),
(230,40,o),
(255,15,cs),
(260,10,o),
(263,-4,o),
(261,-11,cs),
(257,-26,o),
(251,-43,o),
(238,-51,cs),
(234,-54,o),
(228,-53,o),
(223,-52,cs)
);
}
);
width = 420;
}
);
note = j;
unicode = 106;
},
{
glyphname = k;
kernLeft = F;
kernRight = k;
layers = (
{
layerId = m01;
shapes = (
{
closed = 1;
nodes = (
(268,-43,o),
(282,-23,o),
(289,-3,cs),
(296,19,o),
(296,43,o),
(295,66,cs),
(292,119,o),
(291,173,o),
(290,226,cs),
(290,230,o),
(293,226,o),
(295,223,cs),
(343,158,o),
(398,96,o),
(456,39,cs),
(470,25,o),
(536,-39,o),
(553,-49,cs),
(574,-61,o),
(601,-48,o),
(596,-25,cs),
(594,-14,o),
(584,-7,o),
(576,1,cs),
(521,55,o),
(473,117,o),
(423,175,cs),
(413,187,o),
(353,255,o),
(342,267,c),
(340,268,o),
(330,281,o),
(329,283,c),
(384,327,o),
(441,369,o),
(499,410,cs),
(514,420,o),
(584,468,o),
(596,481,cs),
(607,494,o),
(603,519,o),
(589,526,cs),
(581,530,o),
(570,528,o),
(562,524,cs),
(560,523,o),
(547,514,o),
(545,513,cs),
(514,493,o),
(482,474,o),
(452,452,cs),
(395,410,o),
(342,362,o),
(289,316,c),
(288,362,o),
(284,577,o),
(272,622,c),
(272,624,o),
(271,637,o),
(271,639,c),
(269,648,o),
(255,684,o),
(251,692,c),
(250,693,o),
(247,705,o),
(246,707,cs),
(236,732,o),
(208,747,o),
(188,730,cs),
(185,728,o),
(183,724,o),
(180,724,cs),
(171,725,o),
(161,720,o),
(155,714,cs),
(137,696,o),
(126,673,o),
(115,650,cs),
(95,606,o),
(82,558,o),
(72,510,cs),
(60,449,o),
(53,386,o),
(54,324,cs),
(55,232,o),
(70,138,o),
(106,54,cs),
(115,34,o),
(128,14,o),
(145,0,cs),
(148,-2,o),
(149,-5,o),
(150,-8,cs),
(167,-46,o),
(210,-68,o),
(249,-51,cs)
);
},
{
closed = 1;
nodes = (
(158,575,o),
(154,598,o),
(162,611,cs),
(163,613,o),
(165,622,o),
(166,624,cs),
(179,650,o),
(215,620,o),
(210,591,c),
(210,588,o),
(208,577,o),
(207,575,cs),
(204,571,o),
(201,568,o),
(198,564,cs),
(191,557,o),
(178,560,o),
(170,566,cs)
);
},
{
closed = 1;
nodes = (
(152,418,o),
(140,431,o),
(140,440,cs),
(140,447,o),
(142,454,o),
(145,461,cs),
(151,478,o),
(172,484,o),
(182,469,cs),
(183,468,o),
(188,464,o),
(189,463,cs),
(200,453,o),
(202,438,o),
(196,424,cs),
(190,410,o),
(172,405,o),
(160,413,cs)
);
},
{
closed = 1;
nodes = (
(139,264,o),
(137,268,o),
(135,272,cs),
(133,277,o),
(135,292,o),
(136,297,cs),
(139,309,o),
(147,320,o),
(156,329,cs),
(162,335,o),
(172,334,o),
(180,333,cs),
(191,330,o),
(205,320,o),
(206,309,cs),
(206,305,o),
(204,293,o),
(202,290,cs),
(195,275,o),
(181,250,o),
(165,252,cs),
(156,253,o),
(147,255,o),
(141,261,c)
);
},
{
closed = 1;
nodes = (
(141,166,o),
(158,190,o),
(175,199,cs),
(183,203,o),
(194,201,o),
(202,196,cs),
(216,188,o),
(208,167,o),
(202,152,c),
(198,145,o),
(190,137,o),
(182,137,cs),
(180,137,o),
(177,137,o),
(175,136,cs),
(163,129,o),
(148,134,o),
(145,147,cs)
);
},
{
closed = 1;
nodes = (
(183,53,o),
(191,81,o),
(213,75,cs),
(227,71,o),
(233,52,o),
(230,38,c),
(230,34,o),
(225,23,o),
(223,20,c),
(212,10,o),
(191,16,o),
(188,31,cs)
);
}
);
width = 629;
}
);
note = k;
unicode = 107;
},
{
glyphname = l;
kernLeft = l;
layers = (
{
layerId = m01;
shapes = (
{
closed = 1;
nodes = (
(364,-6,o),
(382,17,o),
(384,26,cs),
(387,41,o),
(380,55,o),
(367,61,cs),
(364,63,o),
(349,66,o),
(346,67,cs),
(341,68,o),
(345,73,o),
(346,78,cs),
(352,100,o),
(349,208,o),
(349,232,cs),
(349,259,o),
(351,420,o),
(349,448,cs),
(346,498,o),
(342,548,o),
(326,595,cs),
(310,641,o),
(280,688,o),
(236,708,cs),
(224,714,o),
(213,723,o),
(201,726,cs),
(188,730,o),
(174,728,o),
(161,729,cs),
(135,731,o),
(51,726,o),
(29,713,cs),
(8,701,o),
(23,670,o),
(46,680,cs),
(58,685,o),
(104,678,o),
(117,675,c),
(113,657,o),
(112,566,o),
(113,547,cs),
(114,425,o),
(117,303,o),
(124,182,cs),
(125,170,o),
(133,108,o),
(135,97,cs),
(140,60,o),
(153,19,o),
(181,-7,cs),
(196,-20,o),
(215,-27,o),
(234,-33,cs),
(242,-35,o),
(277,-39,o),
(285,-39,cs),
(310,-37,o),
(336,-27,o),
(356,-12,cs)
);
},
{
closed = 1;
nodes = (
(196,590,o),
(197,604,o),
(202,606,cs),
(205,608,o),
(208,611,o),
(211,613,c),
(221,616,o),
(230,609,o),
(231,599,c),
(249,594,o),
(246,562,o),
(228,562,c),
(228,562,o),
(226,563,o),
(226,563,c),
(224,562,o),
(219,559,o),
(217,559,c),
(203,555,o),
(193,570,o),
(195,584,cs)
);
},
{
closed = 1;
nodes = (
(201,436,o),
(199,448,o),
(203,456,cs),
(206,462,o),
(204,470,o),
(208,476,cs),
(221,496,o),
(253,494,o),
(247,471,c),
(246,470,o),
(257,468,o),
(258,468,c),
(275,462,o),
(269,433,o),
(251,434,c),
(250,430,o),
(246,425,o),
(242,423,cs),
(234,420,o),
(215,427,o),
(208,431,cs)
);
},
{
closed = 1;
nodes = (
(217,281,o),
(209,283,o),
(203,288,c),
(196,297,o),
(194,312,o),
(199,322,c),
(200,327,o),
(210,332,o),
(214,333,cs),
(225,336,o),
(243,334,o),
(250,325,cs),
(255,318,o),
(252,307,o),
(250,298,cs),
(250,297,o),
(247,295,o),
(247,293,cs),
(248,279,o),
(236,269,o),
(224,276,cs)
);
},
{
closed = 1;
nodes = (
(206,195,o),
(209,210,o),
(217,213,cs),
(223,216,o),
(231,213,o),
(238,212,cs),
(256,210,o),
(256,185,o),
(247,169,cs),
(236,149,o),
(207,164,o),
(206,187,cs)
);
},
{
closed = 1;
nodes = (
(227,59,o),
(225,60,o),
(224,61,cs),
(219,66,o),
(219,75,o),
(221,82,cs),
(226,94,o),
(242,92,o),
(255,87,c),
(262,83,o),
(270,73,o),
(268,65,cs),
(267,57,o),
(267,49,o),
(262,43,cs),
(251,29,o),
(230,41,o),
(227,58,cs)
);
}
);
width = 427;
}
);
note = l;
unicode = 108;
},
{
glyphname = m;
kernLeft = F;
layers = (
{
layerId = m01;
shapes = (
{
closed = 1;
nodes = (
(228,22,o),
(238,67,o),
(238,78,cs),
(238,96,o),
(238,208,o),
(238,226,cs),
(238,274,o),
(235,322,o),
(228,369,c),
(237,388,o),
(248,407,o),
(263,422,cs),
(278,438,o),
(298,449,o),
(318,459,cs),
(338,469,o),
(361,478,o),
(383,480,cs),
(396,481,o),
(411,480,o),
(421,473,cs),
(460,447,o),
(469,334,o),
(473,289,cs),
(479,226,o),
(480,163,o),
(478,101,cs),
(478,81,o),
(472,20,o),
(484,4,cs),
(492,-6,o),
(506,-7,o),
(515,0,cs),
(520,4,o),
(526,20,o),
(527,26,cs),
(530,53,o),
(529,193,o),
(528,220,cs),
(527,267,o),
(523,314,o),
(515,360,c),
(519,365,o),
(521,372,o),
(520,378,cs),
(518,387,o),
(530,407,o),
(536,414,cs),
(558,444,o),
(589,467,o),
(622,483,cs),
(643,493,o),
(666,502,o),
(689,505,cs),
(692,505,o),
(696,506,o),
(700,505,c),
(722,504,o),
(743,462,o),
(752,443,cs),
(772,401,o),
(785,355,o),
(790,308,cs),
(798,230,o),
(788,151,o),
(783,73,cs),
(783,64,o),
(780,26,o),
(782,17,c),
(783,16,o),
(785,9,o),
(786,8,c),
(799,-19,o),
(840,-8,o),
(837,22,cs),
(834,42,o),
(839,153,o),
(839,174,cs),
(839,228,o),
(839,283,o),
(830,337,cs),
(821,389,o),
(803,441,o),
(777,487,cs),
(767,504,o),
(756,521,o),
(741,533,cs),
(729,542,o),
(714,548,o),
(700,549,cs),
(679,550,o),
(657,544,o),
(637,537,cs),
(582,517,o),
(529,481,o),
(497,433,c),
(486,464,o),
(468,498,o),
(439,513,cs),
(417,525,o),
(390,525,o),
(365,520,cs),
(328,513,o),
(292,495,o),
(261,473,cs),
(243,461,o),
(227,445,o),
(216,426,c),
(212,440,o),
(190,505,o),
(183,518,cs),
(172,539,o),
(154,558,o),
(133,568,cs),
(127,571,o),
(121,574,o),
(115,575,cs),
(76,582,o),
(41,554,o),
(40,515,cs),
(39,479,o),
(55,445,o),
(63,410,cs),
(71,377,o),
(77,343,o),
(78,309,cs),
(81,244,o),
(78,179,o),
(78,113,cs),
(78,92,o),
(79,70,o),
(85,50,cs),
(90,31,o),
(98,13,o),
(110,-2,cs),
(120,-15,o),
(135,-23,o),
(150,-27,cs),
(159,-29,o),
(169,-28,o),
(178,-27,cs),
(195,-25,o),
(219,-4,o),
(224,12,cs)
);
},
{
closed = 1;
nodes = (
(95,471,o),
(95,481,o),
(96,491,cs),
(97,498,o),
(100,506,o),
(106,509,cs),
(112,512,o),
(126,508,o),
(131,504,cs),
(139,498,o),
(137,484,o),
(136,474,cs),
(135,466,o),
(131,456,o),
(124,452,cs),
(115,448,o),
(103,453,o),
(99,462,cs)
);
},
{
closed = 1;
nodes = (
(123,327,o),
(115,333,o),
(113,342,cs),
(111,354,o),
(118,368,o),
(130,366,c),
(136,366,o),
(143,370,o),
(149,368,cs),
(158,366,o),
(162,354,o),
(161,345,cs),
(160,338,o),
(159,328,o),
(153,323,cs),
(147,318,o),
(136,316,o),
(130,321,cs)
);
},
{
closed = 1;
nodes = (
(137,195,o),
(131,198,o),
(129,204,cs),
(123,217,o),
(133,239,o),
(146,242,cs),
(159,246,o),
(174,235,o),
(175,223,cs),
(176,213,o),
(172,204,o),
(167,196,cs),
(162,187,o),
(151,186,o),
(142,192,cs)
);
},
{
closed = 1;
nodes = (
(130,80,o),
(132,97,o),
(136,102,cs),
(151,122,o),
(179,99,o),
(175,73,cs),
(174,64,o),
(168,53,o),
(159,50,cs),
(147,47,o),
(131,62,o),
(130,74,cs)
);
}
);
width = 886;
}
);
note = m;
unicode = 109;
},
{
glyphname = n;
kernLeft = B;
kernRight = M;
layers = (
{
layerId = m01;
shapes = (
{
closed = 1;
nodes = (
(218,-21,o),
(223,-23,o),
(228,-23,cs),
(261,-23,o),
(297,5,o),
(302,37,cs),
(304,47,o),
(304,57,o),
(303,67,cs),
(293,175,o),
(281,283,o),
(263,390,c),
(263,393,o),
(263,394,o),
(264,396,cs),
(293,437,o),
(336,473,o),
(384,490,cs),
(412,500,o),
(444,502,o),
(474,497,cs),
(492,494,o),
(512,487,o),
(523,472,cs),
(536,454,o),
(540,431,o),
(544,408,cs),
(562,308,o),
(555,205,o),
(551,103,cs),
(551,87,o),
(548,13,o),
(552,-3,cs),
(556,-23,o),
(583,-24,o),
(590,-5,cs),
(597,11,o),
(596,29,o),
(596,46,cs),
(599,171,o),
(608,298,o),
(586,421,cs),
(580,454,o),
(570,490,o),
(545,512,cs),
(523,533,o),
(490,540,o),
(460,542,cs),
(425,546,o),
(387,541,o),
(355,527,cs),
(315,510,o),
(280,480,o),
(253,446,c),
(248,467,o),
(243,487,o),
(237,507,cs),
(230,528,o),
(224,550,o),
(212,568,cs),
(200,587,o),
(176,602,o),
(154,602,cs),
(144,602,o),
(135,599,o),
(127,596,cs),
(125,595,o),
(116,589,o),
(115,589,c),
(110,587,o),
(105,588,o),
(101,586,cs),
(87,580,o),
(82,563,o),
(76,549,cs),
(57,507,o),
(50,459,o),
(49,413,cs),
(48,364,o),
(50,314,o),
(57,265,cs),
(68,191,o),
(77,117,o),
(96,45,cs),
(100,28,o),
(106,11,o),
(117,-2,cs),
(128,-15,o),
(145,-24,o),
(162,-26,cs),
(179,-28,o),
(197,-28,o),
(213,-22,c)
);
},
{
closed = 1;
nodes = (
(141,480,o),
(138,481,o),
(136,482,cs),
(118,491,o),
(124,515,o),
(139,529,cs),
(169,557,o),
(202,510,o),
(176,477,cs),
(168,467,o),
(153,470,o),
(143,478,cs)
);
},
{
closed = 1;
nodes = (
(136,343,o),
(134,357,o),
(134,361,cs),
(134,374,o),
(142,395,o),
(156,399,cs),
(169,403,o),
(185,392,o),
(186,378,cs),
(188,361,o),
(182,341,o),
(169,332,cs),
(160,325,o),
(143,329,o),
(137,340,c)
);
},
{
closed = 1;
nodes = (
(155,198,o),
(157,217,o),
(160,223,c),
(167,244,o),
(198,246,o),
(202,224,cs),
(203,214,o),
(198,190,o),
(192,182,cs),
(181,170,o),
(163,176,o),
(157,191,cs)
);
},
{
closed = 1;
nodes = (
(177,40,o),
(163,50,o),
(164,63,cs),
(164,82,o),
(170,105,o),
(189,105,cs),
(203,105,o),
(219,94,o),
(221,80,cs),
(221,77,o),
(219,65,o),
(218,62,cs),
(215,51,o),
(203,38,o),
(191,39,cs)
);
}
);
width = 651;
}
);
note = n;
unicode = (110,241);
},
{
glyphname = o;
layers = (
{
layerId = m01;
shapes = (
{
closed = 1;
nodes = (
(486,1,o),
(521,37,o),
(548,75,cs),
(585,129,o),
(611,194,o),
(618,260,cs),
(622,295,o),
(620,331,o),
(610,365,cs),
(599,401,o),
(576,436,o),
(547,461,cs),
(518,486,o),
(482,503,o),
(446,514,cs),
(443,515,o),
(442,519,o),
(441,521,cs),
(437,530,o),
(428,536,o),
(420,538,cs),
(403,543,o),
(385,541,o),
(367,541,cs),
(305,539,o),
(241,531,o),
(183,508,cs),
(131,487,o),
(91,449,o),
(65,399,cs),
(48,364,o),
(40,324,o),
(37,285,cs),
(33,235,o),
(40,182,o),
(63,137,cs),
(82,101,o),
(112,70,o),
(146,47,cs),
(195,15,o),
(250,-9,o),
(307,-23,cs),
(351,-34,o),
(401,-37,o),
(443,-18,cs)
);
},
{
closed = 1;
nodes = (
(311,34,o),
(313,35,o),
(311,37,cs),
(305,41,o),
(299,46,o),
(295,52,cs),
(292,58,o),
(277,88,o),
(275,95,cs),
(270,111,o),
(261,188,o),
(261,204,cs),
(260,216,o),
(263,279,o),
(264,290,cs),
(265,310,o),
(283,406,o),
(288,426,cs),
(291,436,o),
(292,447,o),
(299,456,cs),
(321,488,o),
(392,475,o),
(430,465,cs),
(476,454,o),
(522,427,o),
(548,387,cs),
(572,351,o),
(576,302,o),
(570,259,cs),
(561,193,o),
(531,128,o),
(487,78,cs),
(467,56,o),
(443,34,o),
(415,26,cs),
(382,16,o),
(345,22,o),
(312,32,c)
);
},
{
closed = 1;
nodes = (
(159,422,o),
(169,443,o),
(185,446,cs),
(204,450,o),
(224,436,o),
(221,417,cs),
(219,399,o),
(208,380,o),
(189,382,cs),
(176,383,o),
(161,393,o),
(160,405,cs)
);
},
{
closed = 1;
nodes = (
(119,265,o),
(119,281,o),
(122,290,cs),
(124,298,o),
(127,306,o),
(134,312,c),
(134,312,o),
(138,314,o),
(138,314,c),
(154,332,o),
(186,321,o),
(188,297,cs),
(188,294,o),
(190,291,o),
(190,288,cs),
(192,277,o),
(186,265,o),
(179,257,cs),
(166,242,o),
(142,248,o),
(126,260,cs)
);
},
{
closed = 1;
nodes = (
(160,91,o),
(152,97,o),
(149,103,cs),
(148,105,o),
(144,116,o),
(144,118,cs),
(143,135,o),
(152,155,o),
(169,157,cs),
(188,160,o),
(207,143,o),
(207,125,cs),
(206,111,o),
(197,95,o),
(184,93,cs),
(178,92,o),
(172,95,o),
(166,93,cs)
);
},
{
closed = 1;
nodes = (
(231,65,o),
(232,65,o),
(232,65,c),
(232,65,o),
(231,65,o),
(231,65,c)
);
}
);
width = 655;
}
);
note = o;
unicode = (111,242,243,244,245,246,248);
},
{
glyphname = p;
kernLeft = B;
layers = (
{
layerId = m01;
shapes = (
{
closed = 1;
nodes = (
(186,-190,o),
(189,-192,o),
(192,-192,cs),
(210,-190,o),
(229,-184,o),
(241,-171,cs),
(257,-154,o),
(272,-129,o),
(269,-105,cs),
(268,-87,o),
(259,23,o),
(258,41,c),
(279,31,o),
(300,22,o),
(322,14,cs),
(344,6,o),
(367,-1,o),
(390,-1,cs),
(412,0,o),
(434,6,o),
(452,18,cs),
(489,43,o),
(519,80,o),
(543,118,cs),
(577,174,o),
(601,239,o),
(605,305,cs),
(607,346,o),
(601,388,o),
(586,426,cs),
(575,455,o),
(556,484,o),
(531,503,cs),
(501,526,o),
(463,540,o),
(426,544,cs),
(360,551,o),
(290,529,o),
(234,494,c),
(231,511,o),
(224,529,o),
(215,543,cs),
(207,556,o),
(191,567,o),
(175,568,cs),
(174,568,o),
(169,566,o),
(168,567,cs),
(143,584,o),
(110,579,o),
(93,554,cs),
(87,544,o),
(82,533,o),
(79,521,cs),
(77,515,o),
(77,508,o),
(75,502,cs),
(66,470,o),
(65,436,o),
(62,403,cs),
(46,246,o),
(53,87,o),
(67,-70,cs),
(68,-79,o),
(72,-124,o),
(73,-132,cs),
(79,-162,o),
(103,-189,o),
(132,-197,cs),
(149,-201,o),
(167,-197,o),
(182,-191,cs)
);
},
{
closed = 1;
nodes = (
(121,420,o),
(110,435,o),
(111,445,cs),
(113,460,o),
(116,478,o),
(128,488,cs),
(138,497,o),
(155,492,o),
(165,483,cs),
(183,467,o),
(182,432,o),
(162,416,cs),
(154,409,o),
(140,411,o),
(130,416,cs)
);
},
{
closed = 1;
nodes = (
(316,72,o),
(286,91,o),
(254,106,c),
(249,208,o),
(243,310,o),
(241,412,cs),
(241,416,o),
(239,437,o),
(238,441,c),
(264,458,o),
(292,471,o),
(322,480,cs),
(361,491,o),
(405,495,o),
(444,484,cs),
(467,478,o),
(490,466,o),
(507,450,cs),
(522,435,o),
(533,415,o),
(540,396,cs),
(553,361,o),
(556,323,o),
(552,286,cs),
(546,214,o),
(510,143,o),
(462,89,cs),
(448,73,o),
(430,58,o),
(410,53,cs),
(390,47,o),
(368,53,o),
(349,60,cs)
);
},
{
closed = 1;
nodes = (
(120,259,o),
(117,260,o),
(115,262,cs),
(109,267,o),
(109,277,o),
(110,285,cs),
(112,302,o),
(122,317,o),
(136,326,cs),
(141,329,o),
(155,327,o),
(160,325,cs),
(167,323,o),
(176,312,o),
(177,305,cs),
(180,289,o),
(167,258,o),
(154,247,cs),
(143,238,o),
(125,243,o),
(121,256,cs)
);
},
{
closed = 1;
nodes = (
(118,120,o),
(126,137,o),
(138,138,cs),
(159,140,o),
(178,122,o),
(178,101,cs),
(178,83,o),
(167,60,o),
(150,54,cs),
(123,46,o),
(111,81,o),
(116,109,cs)
);
},
{
closed = 1;
nodes = (
(124,-89,o),
(127,-63,o),
(148,-55,c),
(166,-38,o),
(192,-55,o),
(192,-80,cs),
(193,-97,o),
(187,-119,o),
(172,-129,cs),
(156,-139,o),
(136,-128,o),
(130,-110,cs)
);
}
);
width = 642;
}
);
note = p;
unicode = 112;
},
